<?xml version="1.0" encoding="utf-8"?>
<!-- Generator: Adobe Illustrator 26.0.3, SVG Export Plug-In . SVG Version: 6.00 Build 0)  -->
<svg version="1.1" id="Layer_1" xmlns="http://www.w3.org/2000/svg" xmlns:xlink="http://www.w3.org/1999/xlink" x="0px" y="0px"
	 viewBox="0 0 1437.3 307.2" style="enable-background:new 0 0 1437.3 307.2;" xml:space="preserve">
<style type="text/css">
	.st0{fill:#333333;}
</style>
<path class="st0" d="M153.6,0C68.9,0,0,68.9,0,153.6s68.9,153.6,153.6,153.6s153.6-68.9,153.6-153.6S238.3,0,153.6,0z M153.6,296.9
	c-79.2,0-143.3-64.2-143.3-143.3S74.4,10.3,153.6,10.3s143.3,64.2,143.3,143.3C297,232.8,232.8,296.9,153.6,296.9z"/>
<path class="st0" d="M188.9,81.9H159l30.4,30.4H230c1.7,0,3.4,0.1,5.2,0.2C227.3,94.1,209.1,81.9,188.9,81.9z"/>
<polygon class="st0" points="153.6,182.5 126.3,131.6 123.4,137 147.8,182.5 "/>
<path class="st0" d="M153.6,287.9c45.6,0,87.6-22.9,112.3-60.6c-10.2,6.8-22.1,10.5-34.6,10.5h-44.4c-2.3,0-4.4-1.2-5.5-3.3
	L160.2,195H144c-2.3,0-4.4-1.2-5.5-3.3l-22.2-41.5l-45.1,84.3c-0.9,1.7-2.6,2.9-4.5,3.2c-2,0.3-3.9-0.4-5.3-1.7l-32.5-32.5
	C49.1,254.3,98.1,287.9,153.6,287.9z"/>
<path class="st0" d="M153.6,20.7c-73.3,0-132.9,59.6-132.9,132.9c0,8.1,0.7,16.2,2.3,24.2L78.8,73.5c1.1-2,3.2-3.3,5.4-3.3
	c2.3,0,4.4,1.2,5.4,3.3l27.1,50.6l4.4-8.2c1.1-2,3.2-3.3,5.4-3.3c2.3,0,4.4,1.2,5.4,3.3l35.5,66.3h21c27.4,0,49.8-22.3,49.8-49.8
	v-3.2l2.6,0.5c2.8,0.6,5.6,1.3,8.3,2.3l1.5,0.5v1.5c-0.9,33.3-28.7,60.4-62,60.4H174l16.1,30.1h39.2c27.2,0,50.1-21.6,50.9-48.3
	c0.4-13.6-4.6-26.4-14.1-36.2c-9.5-9.7-22.1-15.1-35.7-15.1h-43.9c-1.6,0-3.2-0.6-4.4-1.8l-42.4-42.4c-1.3-1.3-2-3.2-1.8-5
	c0.4-3.1,3-5.5,6.1-5.5h44.4c27.8,0,52.2,18.6,59.7,45.3c16.9,5.2,30.7,17.2,38.2,32.6C283.6,77.4,225.1,20.7,153.6,20.7z"/>
<polygon class="st0" points="64.3,221.2 109.3,137 83.5,88.8 30.6,187.6 "/>
<g>
	<path class="st0" d="M381.3,182h-35.7l-8.1,19.9h-11.8l32.9-77.4h9.9L401,202h-11.8L381.3,182z M349.2,173.3h28.7l-14-35.3h-0.4
		L349.2,173.3z"/>
	<path class="st0" d="M466,124.6V177c0,8.4-3,14.9-9,19.4s-13.9,6.7-23.6,6.7c-9.4,0-17-2.2-22.8-6.7c-5.8-4.5-8.7-10.9-8.7-19.3
		v-52.5h11.5V177c0,5.8,1.8,10.3,5.5,13.3c3.7,3,8.5,4.5,14.5,4.5c6.3,0,11.4-1.5,15.3-4.5c3.9-3,5.8-7.5,5.8-13.3v-52.4H466z"/>
	<path class="st0" d="M533.5,132.8h-27.4V202h-11.5v-69.2h-27.3v-8.2h66.2V132.8z"/>
	<path class="st0" d="M599.9,170.2c0,9.5-3.2,17.3-9.7,23.6c-6.5,6.2-14.8,9.4-25.1,9.4c-9.9,0-18-3.1-24.2-9.4
		c-6.2-6.2-9.3-14.1-9.3-23.6v-13.8c0-9.4,3.1-17.3,9.3-23.6c6.2-6.3,14.3-9.4,24.2-9.4c10.3,0,18.7,3.1,25.1,9.4
		c6.5,6.3,9.7,14.1,9.7,23.6V170.2z M588.3,156.3c0-7.1-2.1-12.9-6.3-17.4c-4.2-4.5-9.9-6.8-17-6.8c-6.7,0-12.1,2.3-16.1,6.8
		c-4,4.5-6,10.4-6,17.4v13.9c0,7.2,2,13,6,17.5c4,4.5,9.3,6.8,16.1,6.8c7.1,0,12.8-2.3,17-6.8c4.2-4.5,6.3-10.4,6.3-17.6V156.3z"/>
	<path class="st0" d="M622.8,124.6l27.1,62.9h0.4l27.1-62.9h14.7V202h-11.5v-30.6l1.2-31.5l-0.3-0.1L653.9,202h-7.7l-27.5-62
		l-0.3,0.1l1.1,31.3V202h-11.5v-77.4H622.8z"/>
	<path class="st0" d="M751.5,182h-35.7l-8.1,19.9H696l32.9-77.4h9.9l32.4,77.4h-11.8L751.5,182z M719.4,173.3h28.7L734,138h-0.4
		L719.4,173.3z"/>
	<path class="st0" d="M831.6,132.8h-27.4V202h-11.5v-69.2h-27.3v-8.2h66.2V132.8z"/>
	<path class="st0" d="M885.7,166.1h-39v27.7h45v8.2h-56.5v-77.4H891v8.2h-44.3v25h39V166.1z"/>
	<path class="st0" d="M896.2,202v-77.4h26.1c11.2,0,20.1,3.1,26.8,9.3c6.7,6.2,10.1,14.3,10.1,24.1v10.6c0,9.9-3.4,17.9-10.1,24.1
		c-6.7,6.2-15.7,9.3-26.8,9.3H896.2z M907.7,132.8v60.9h14.6c7.9,0,14.1-2.4,18.6-7.1c4.5-4.7,6.8-10.8,6.8-18.1v-10.7
		c0-7.3-2.3-13.3-6.8-18c-4.5-4.7-10.8-7.1-18.6-7.1H907.7z"/>
	<path class="st0" d="M986.9,202v-77.4h26.1c11.2,0,20.1,3.1,26.8,9.3c6.7,6.2,10.1,14.3,10.1,24.1v10.6c0,9.9-3.4,17.9-10.1,24.1
		c-6.7,6.2-15.7,9.3-26.8,9.3H986.9z M998.4,132.8v60.9h14.6c7.9,0,14.1-2.4,18.6-7.1c4.5-4.7,6.8-10.8,6.8-18.1v-10.7
		c0-7.3-2.3-13.3-6.8-18c-4.5-4.7-10.8-7.1-18.6-7.1H998.4z"/>
	<path class="st0" d="M1107.4,166.1h-39v27.7h45v8.2h-56.5v-77.4h55.9v8.2h-44.3v25h39V166.1z"/>
	<path class="st0" d="M1178.1,177.2l0.1,0.3c0.2,7.3-2.7,13.4-8.4,18.3c-5.8,4.9-13.4,7.4-22.9,7.4c-9.6,0-17.5-3.1-23.5-9.3
		c-6.1-6.2-9.1-14.1-9.1-23.6v-13.8c0-9.5,3-17.4,9.1-23.6c6.1-6.2,13.9-9.3,23.5-9.3c9.6,0,17.3,2.3,23,7
		c5.7,4.7,8.5,10.8,8.3,18.5l-0.1,0.3H1167c0-5.4-1.8-9.7-5.3-12.9c-3.5-3.2-8.5-4.7-14.9-4.7c-6.4,0-11.6,2.4-15.4,7.1
		s-5.7,10.6-5.7,17.5v13.9c0,7,1.9,12.9,5.7,17.6c3.8,4.7,9,7.1,15.4,7.1c6.4,0,11.3-1.6,14.9-4.7c3.5-3.1,5.3-7.5,5.3-13H1178.1z"
		/>
	<path class="st0" d="M1196.9,202h-11.6v-77.4h11.6V202z"/>
	<path class="st0" d="M1256,182.5c0-3.5-1.5-6.5-4.4-8.9c-2.9-2.4-8.1-4.4-15.6-6c-9-2-16-4.8-21.1-8.6c-5.1-3.8-7.6-8.6-7.6-14.3
		c0-6,2.7-11.1,8.2-15.1c5.4-4.1,12.5-6.1,21.1-6.1c9.3,0,16.7,2.3,22.3,7c5.5,4.6,8.2,10,8,16.2l-0.1,0.3h-11c0-4.5-1.6-8.2-4.9-11
		c-3.3-2.8-8-4.2-14.2-4.2c-5.7,0-10.1,1.2-13.2,3.5c-3.1,2.4-4.6,5.4-4.6,9.2c0,3.4,1.7,6.2,5,8.4s8.7,4.2,16.1,5.9
		c9,2,15.8,5,20.5,8.9c4.7,3.9,7,8.8,7,14.6c0,6.2-2.8,11.3-8.4,15c-5.6,3.8-12.9,5.7-22,5.7c-8.5,0-16-2.1-22.6-6.3
		s-9.7-9.8-9.5-16.8l0.1-0.3h11c0,5,2,8.7,6,11.3s9,3.9,14.9,3.9c5.8,0,10.4-1.1,13.8-3.3S1256,186.3,1256,182.5z"/>
	<path class="st0" d="M1287.5,202h-11.6v-77.4h11.6V202z"/>
	<path class="st0" d="M1364.7,170.2c0,9.5-3.2,17.3-9.7,23.6c-6.5,6.2-14.8,9.4-25.1,9.4c-9.9,0-18-3.1-24.2-9.4
		c-6.2-6.2-9.3-14.1-9.3-23.6v-13.8c0-9.4,3.1-17.3,9.3-23.6c6.2-6.3,14.3-9.4,24.2-9.4c10.3,0,18.7,3.1,25.1,9.4
		c6.5,6.3,9.7,14.1,9.7,23.6V170.2z M1353.2,156.3c0-7.1-2.1-12.9-6.3-17.4c-4.2-4.5-9.9-6.8-17-6.8c-6.7,0-12.1,2.3-16.1,6.8
		c-4,4.5-6,10.4-6,17.4v13.9c0,7.2,2,13,6,17.5c4,4.5,9.3,6.8,16.1,6.8c7.1,0,12.8-2.3,17-6.8c4.2-4.5,6.3-10.4,6.3-17.6V156.3z"/>
	<path class="st0" d="M1437.3,202h-11.5l-41-59.9l-0.4,0.1V202h-11.5v-77.4h11.5l41,59.8l0.4-0.1v-59.7h11.5V202z"/>
</g>
</svg>
