<svg width="564" height="33" viewBox="0 0 564 33" fill="none" xmlns="http://www.w3.org/2000/svg">
<path d="M14.4278 32.45C11.5778 32.45 9.13279 31.985 7.09279 31.055C5.08279 30.125 3.50779 28.76 2.36779 26.96C1.25779 25.16 0.642793 22.925 0.522793 20.255C0.492793 19.025 0.477793 17.705 0.477793 16.295C0.477793 14.885 0.492793 13.535 0.522793 12.245C0.642793 9.635 1.27279 7.43 2.41279 5.63C3.55279 3.8 5.14279 2.42 7.18279 1.49C9.22279 0.529998 11.6378 0.0499983 14.4278 0.0499983C16.4078 0.0499983 18.2378 0.304999 19.9178 0.814999C21.5978 1.295 23.0678 2.015 24.3278 2.975C25.5878 3.905 26.5628 5.045 27.2528 6.395C27.9728 7.715 28.3478 9.215 28.3778 10.895C28.4078 11.165 28.3178 11.39 28.1078 11.57C27.9278 11.75 27.7028 11.84 27.4328 11.84H21.3578C20.9678 11.84 20.6678 11.765 20.4578 11.615C20.2478 11.435 20.0678 11.12 19.9178 10.67C19.4978 9.08 18.8078 8 17.8478 7.43C16.9178 6.83 15.7628 6.53 14.3828 6.53C12.7328 6.53 11.4278 6.995 10.4678 7.925C9.50779 8.825 8.98279 10.34 8.89279 12.47C8.80279 14.93 8.80279 17.45 8.89279 20.03C8.98279 22.16 9.50779 23.69 10.4678 24.62C11.4278 25.52 12.7328 25.97 14.3828 25.97C15.7628 25.97 16.9328 25.67 17.8928 25.07C18.8528 24.47 19.5278 23.39 19.9178 21.83C20.0378 21.38 20.2028 21.08 20.4128 20.93C20.6528 20.75 20.9678 20.66 21.3578 20.66H27.4328C27.7028 20.66 27.9278 20.75 28.1078 20.93C28.3178 21.11 28.4078 21.335 28.3778 21.605C28.3478 23.285 27.9728 24.8 27.2528 26.15C26.5628 27.47 25.5878 28.61 24.3278 29.57C23.0678 30.5 21.5978 31.22 19.9178 31.73C18.2378 32.21 16.4078 32.45 14.4278 32.45ZM48.2295 32.45C45.4695 32.45 43.0695 32 41.0295 31.1C38.9895 30.2 37.3995 28.85 36.2595 27.05C35.1195 25.22 34.4895 22.94 34.3695 20.21C34.3395 18.92 34.3245 17.63 34.3245 16.34C34.3245 15.05 34.3395 13.745 34.3695 12.425C34.4895 9.725 35.1195 7.46 36.2595 5.63C37.4295 3.77 39.0345 2.375 41.0745 1.445C43.1145 0.514999 45.4995 0.0499983 48.2295 0.0499983C50.9295 0.0499983 53.2995 0.514999 55.3395 1.445C57.4095 2.375 59.0295 3.77 60.1995 5.63C61.3695 7.46 61.9995 9.725 62.0895 12.425C62.1495 13.745 62.1795 15.05 62.1795 16.34C62.1795 17.63 62.1495 18.92 62.0895 20.21C61.9695 22.94 61.3395 25.22 60.1995 27.05C59.0595 28.85 57.4695 30.2 55.4295 31.1C53.3895 32 50.9895 32.45 48.2295 32.45ZM48.2295 25.97C49.8195 25.97 51.1095 25.49 52.0995 24.53C53.1195 23.57 53.6595 22.04 53.7195 19.94C53.7795 18.62 53.8095 17.375 53.8095 16.205C53.8095 15.035 53.7795 13.82 53.7195 12.56C53.6595 11.15 53.3895 10.01 52.9095 9.14C52.4595 8.24 51.8295 7.58 51.0195 7.16C50.2095 6.74 49.2795 6.53 48.2295 6.53C47.2095 6.53 46.2945 6.74 45.4845 7.16C44.6745 7.58 44.0295 8.24 43.5495 9.14C43.0695 10.01 42.7995 11.15 42.7395 12.56C42.7095 13.82 42.6945 15.035 42.6945 16.205C42.6945 17.375 42.7095 18.62 42.7395 19.94C42.8295 22.04 43.3695 23.57 44.3595 24.53C45.3495 25.49 46.6395 25.97 48.2295 25.97ZM70.7706 32C70.4406 32 70.1706 31.895 69.9606 31.685C69.7506 31.475 69.6456 31.205 69.6456 30.875V1.625C69.6456 1.295 69.7506 1.025 69.9606 0.814999C70.1706 0.604998 70.4406 0.499998 70.7706 0.499998H75.5406C76.0506 0.499998 76.4106 0.619998 76.6206 0.859999C76.8606 1.07 77.0106 1.235 77.0706 1.355L88.0506 18.68V1.625C88.0506 1.295 88.1556 1.025 88.3656 0.814999C88.5756 0.604998 88.8456 0.499998 89.1756 0.499998H94.5756C94.9056 0.499998 95.1756 0.604998 95.3856 0.814999C95.5956 1.025 95.7006 1.295 95.7006 1.625V30.875C95.7006 31.175 95.5956 31.445 95.3856 31.685C95.1756 31.895 94.9056 32 94.5756 32H89.7606C89.2806 32 88.9206 31.88 88.6806 31.64C88.4706 31.4 88.3356 31.235 88.2756 31.145L77.2956 14.495V30.875C77.2956 31.205 77.1906 31.475 76.9806 31.685C76.7706 31.895 76.5006 32 76.1706 32H70.7706ZM105.364 32C105.034 32 104.764 31.895 104.554 31.685C104.344 31.475 104.239 31.205 104.239 30.875V1.625C104.239 1.295 104.344 1.025 104.554 0.814999C104.764 0.604998 105.034 0.499998 105.364 0.499998H110.134C110.644 0.499998 111.004 0.619998 111.214 0.859999C111.454 1.07 111.604 1.235 111.664 1.355L122.644 18.68V1.625C122.644 1.295 122.749 1.025 122.959 0.814999C123.169 0.604998 123.439 0.499998 123.769 0.499998H129.169C129.499 0.499998 129.769 0.604998 129.979 0.814999C130.189 1.025 130.294 1.295 130.294 1.625V30.875C130.294 31.175 130.189 31.445 129.979 31.685C129.769 31.895 129.499 32 129.169 32H124.354C123.874 32 123.514 31.88 123.274 31.64C123.064 31.4 122.929 31.235 122.869 31.145L111.889 14.495V30.875C111.889 31.205 111.784 31.475 111.574 31.685C111.364 31.895 111.094 32 110.764 32H105.364ZM139.958 32C139.628 32 139.358 31.895 139.148 31.685C138.938 31.475 138.833 31.205 138.833 30.875V1.625C138.833 1.295 138.938 1.025 139.148 0.814999C139.358 0.604998 139.628 0.499998 139.958 0.499998H160.973C161.303 0.499998 161.573 0.604998 161.783 0.814999C161.993 1.025 162.098 1.295 162.098 1.625V5.855C162.098 6.185 161.993 6.455 161.783 6.665C161.573 6.875 161.303 6.98 160.973 6.98H146.618V13.055H159.983C160.313 13.055 160.583 13.175 160.793 13.415C161.003 13.625 161.108 13.895 161.108 14.225V18.14C161.108 18.44 161.003 18.71 160.793 18.95C160.583 19.16 160.313 19.265 159.983 19.265H146.618V25.52H161.333C161.663 25.52 161.933 25.625 162.143 25.835C162.353 26.045 162.458 26.315 162.458 26.645V30.875C162.458 31.205 162.353 31.475 162.143 31.685C161.933 31.895 161.663 32 161.333 32H139.958ZM182.475 32.45C179.625 32.45 177.18 31.985 175.14 31.055C173.13 30.125 171.555 28.76 170.415 26.96C169.305 25.16 168.69 22.925 168.57 20.255C168.54 19.025 168.525 17.705 168.525 16.295C168.525 14.885 168.54 13.535 168.57 12.245C168.69 9.635 169.32 7.43 170.46 5.63C171.6 3.8 173.19 2.42 175.23 1.49C177.27 0.529998 179.685 0.0499983 182.475 0.0499983C184.455 0.0499983 186.285 0.304999 187.965 0.814999C189.645 1.295 191.115 2.015 192.375 2.975C193.635 3.905 194.61 5.045 195.3 6.395C196.02 7.715 196.395 9.215 196.425 10.895C196.455 11.165 196.365 11.39 196.155 11.57C195.975 11.75 195.75 11.84 195.48 11.84H189.405C189.015 11.84 188.715 11.765 188.505 11.615C188.295 11.435 188.115 11.12 187.965 10.67C187.545 9.08 186.855 8 185.895 7.43C184.965 6.83 183.81 6.53 182.43 6.53C180.78 6.53 179.475 6.995 178.515 7.925C177.555 8.825 177.03 10.34 176.94 12.47C176.85 14.93 176.85 17.45 176.94 20.03C177.03 22.16 177.555 23.69 178.515 24.62C179.475 25.52 180.78 25.97 182.43 25.97C183.81 25.97 184.98 25.67 185.94 25.07C186.9 24.47 187.575 23.39 187.965 21.83C188.085 21.38 188.25 21.08 188.46 20.93C188.7 20.75 189.015 20.66 189.405 20.66H195.48C195.75 20.66 195.975 20.75 196.155 20.93C196.365 21.11 196.455 21.335 196.425 21.605C196.395 23.285 196.02 24.8 195.3 26.15C194.61 27.47 193.635 28.61 192.375 29.57C191.115 30.5 189.645 31.22 187.965 31.73C186.285 32.21 184.455 32.45 182.475 32.45ZM211.461 32C211.131 32 210.861 31.895 210.651 31.685C210.441 31.475 210.336 31.205 210.336 30.875V7.565H202.326C201.996 7.565 201.726 7.46 201.516 7.25C201.306 7.01 201.201 6.74 201.201 6.44V1.625C201.201 1.295 201.306 1.025 201.516 0.814999C201.726 0.604998 201.996 0.499998 202.326 0.499998H226.536C226.866 0.499998 227.136 0.604998 227.346 0.814999C227.556 1.025 227.661 1.295 227.661 1.625V6.44C227.661 6.74 227.556 7.01 227.346 7.25C227.136 7.46 226.866 7.565 226.536 7.565H218.526V30.875C218.526 31.205 218.421 31.475 218.211 31.685C218.001 31.895 217.731 32 217.401 32H211.461ZM312.628 32C312.298 32 312.028 31.895 311.818 31.685C311.608 31.475 311.503 31.205 311.503 30.875V1.625C311.503 1.295 311.608 1.025 311.818 0.814999C312.028 0.604998 312.298 0.499998 312.628 0.499998H325.228C327.718 0.499998 329.878 0.889998 331.708 1.67C333.568 2.42 335.008 3.56 336.028 5.09C337.078 6.62 337.603 8.555 337.603 10.895C337.603 13.205 337.078 15.11 336.028 16.61C335.008 18.11 333.568 19.22 331.708 19.94C329.878 20.66 327.718 21.02 325.228 21.02H319.873V30.875C319.873 31.205 319.753 31.475 319.513 31.685C319.303 31.895 319.033 32 318.703 32H312.628ZM319.738 14.81H325.003C326.293 14.81 327.313 14.48 328.063 13.82C328.843 13.16 329.233 12.155 329.233 10.805C329.233 9.665 328.903 8.705 328.243 7.925C327.583 7.145 326.503 6.755 325.003 6.755H319.738V14.81ZM345.288 32C344.958 32 344.688 31.895 344.478 31.685C344.268 31.475 344.163 31.205 344.163 30.875V1.625C344.163 1.295 344.268 1.025 344.478 0.814999C344.688 0.604998 344.958 0.499998 345.288 0.499998H351.228C351.528 0.499998 351.783 0.604998 351.993 0.814999C352.233 1.025 352.353 1.295 352.353 1.625V25.205H365.943C366.273 25.205 366.543 25.325 366.753 25.565C366.993 25.775 367.113 26.045 367.113 26.375V30.875C367.113 31.205 366.993 31.475 366.753 31.685C366.543 31.895 366.273 32 365.943 32H345.288ZM371.464 32C371.224 32 370.999 31.91 370.789 31.73C370.609 31.52 370.519 31.295 370.519 31.055C370.519 30.905 370.534 30.77 370.564 30.65L381.139 1.76C381.229 1.43 381.409 1.145 381.679 0.904998C381.979 0.634998 382.384 0.499998 382.894 0.499998H389.554C390.064 0.499998 390.454 0.634998 390.724 0.904998C391.024 1.145 391.219 1.43 391.309 1.76L401.839 30.65C401.899 30.77 401.929 30.905 401.929 31.055C401.929 31.295 401.824 31.52 401.614 31.73C401.434 31.91 401.209 32 400.939 32H395.404C394.954 32 394.609 31.895 394.369 31.685C394.159 31.445 394.024 31.235 393.964 31.055L392.209 26.465H380.194L378.484 31.055C378.424 31.235 378.289 31.445 378.079 31.685C377.869 31.895 377.509 32 376.999 32H371.464ZM382.039 19.985H390.409L386.179 8.105L382.039 19.985ZM412.573 32C412.243 32 411.973 31.895 411.763 31.685C411.553 31.475 411.448 31.205 411.448 30.875V7.565H403.438C403.108 7.565 402.838 7.46 402.628 7.25C402.418 7.01 402.313 6.74 402.313 6.44V1.625C402.313 1.295 402.418 1.025 402.628 0.814999C402.838 0.604998 403.108 0.499998 403.438 0.499998H427.648C427.978 0.499998 428.248 0.604998 428.458 0.814999C428.668 1.025 428.773 1.295 428.773 1.625V6.44C428.773 6.74 428.668 7.01 428.458 7.25C428.248 7.46 427.978 7.565 427.648 7.565H419.638V30.875C419.638 31.205 419.533 31.475 419.323 31.685C419.113 31.895 418.843 32 418.513 32H412.573ZM436.237 32C435.907 32 435.637 31.895 435.427 31.685C435.217 31.475 435.112 31.205 435.112 30.875V1.625C435.112 1.295 435.217 1.025 435.427 0.814999C435.637 0.604998 435.907 0.499998 436.237 0.499998H456.892C457.222 0.499998 457.492 0.604998 457.702 0.814999C457.942 1.025 458.062 1.295 458.062 1.625V6.17C458.062 6.5 457.942 6.77 457.702 6.98C457.492 7.19 457.222 7.295 456.892 7.295H443.032V13.91H455.992C456.322 13.91 456.592 14.03 456.802 14.27C457.042 14.48 457.162 14.75 457.162 15.08V19.58C457.162 19.88 457.042 20.15 456.802 20.39C456.592 20.6 456.322 20.705 455.992 20.705H443.032V30.875C443.032 31.205 442.927 31.475 442.717 31.685C442.507 31.895 442.237 32 441.907 32H436.237ZM477.786 32.45C475.026 32.45 472.626 32 470.586 31.1C468.546 30.2 466.956 28.85 465.816 27.05C464.676 25.22 464.046 22.94 463.926 20.21C463.896 18.92 463.881 17.63 463.881 16.34C463.881 15.05 463.896 13.745 463.926 12.425C464.046 9.725 464.676 7.46 465.816 5.63C466.986 3.77 468.591 2.375 470.631 1.445C472.671 0.514999 475.056 0.0499983 477.786 0.0499983C480.486 0.0499983 482.856 0.514999 484.896 1.445C486.966 2.375 488.586 3.77 489.756 5.63C490.926 7.46 491.556 9.725 491.646 12.425C491.706 13.745 491.736 15.05 491.736 16.34C491.736 17.63 491.706 18.92 491.646 20.21C491.526 22.94 490.896 25.22 489.756 27.05C488.616 28.85 487.026 30.2 484.986 31.1C482.946 32 480.546 32.45 477.786 32.45ZM477.786 25.97C479.376 25.97 480.666 25.49 481.656 24.53C482.676 23.57 483.216 22.04 483.276 19.94C483.336 18.62 483.366 17.375 483.366 16.205C483.366 15.035 483.336 13.82 483.276 12.56C483.216 11.15 482.946 10.01 482.466 9.14C482.016 8.24 481.386 7.58 480.576 7.16C479.766 6.74 478.836 6.53 477.786 6.53C476.766 6.53 475.851 6.74 475.041 7.16C474.231 7.58 473.586 8.24 473.106 9.14C472.626 10.01 472.356 11.15 472.296 12.56C472.266 13.82 472.251 15.035 472.251 16.205C472.251 17.375 472.266 18.62 472.296 19.94C472.386 22.04 472.926 23.57 473.916 24.53C474.906 25.49 476.196 25.97 477.786 25.97ZM500.327 32C499.997 32 499.727 31.895 499.517 31.685C499.307 31.475 499.202 31.205 499.202 30.875V1.625C499.202 1.295 499.307 1.025 499.517 0.814999C499.727 0.604998 499.997 0.499998 500.327 0.499998H512.567C516.437 0.499998 519.482 1.4 521.702 3.2C523.952 4.97 525.077 7.49 525.077 10.76C525.077 12.89 524.552 14.69 523.502 16.16C522.482 17.63 521.132 18.74 519.452 19.49L525.662 30.56C525.752 30.74 525.797 30.905 525.797 31.055C525.797 31.295 525.692 31.52 525.482 31.73C525.302 31.91 525.077 32 524.807 32H518.867C518.297 32 517.877 31.865 517.607 31.595C517.337 31.295 517.142 31.025 517.022 30.785L511.892 20.885H507.257V30.875C507.257 31.205 507.152 31.475 506.942 31.685C506.732 31.895 506.462 32 506.132 32H500.327ZM507.257 14.54H512.477C513.887 14.54 514.937 14.195 515.627 13.505C516.347 12.815 516.707 11.87 516.707 10.67C516.707 9.5 516.362 8.555 515.672 7.835C515.012 7.115 513.947 6.755 512.477 6.755H507.257V14.54ZM533.691 32C533.391 32 533.121 31.895 532.881 31.685C532.671 31.475 532.566 31.205 532.566 30.875V1.625C532.566 1.295 532.671 1.025 532.881 0.814999C533.121 0.604998 533.391 0.499998 533.691 0.499998H538.551C539.031 0.499998 539.391 0.634998 539.631 0.904998C539.901 1.145 540.066 1.34 540.126 1.49L548.046 15.71L555.966 1.49C556.056 1.34 556.206 1.145 556.416 0.904998C556.656 0.634998 557.031 0.499998 557.541 0.499998H562.356C562.686 0.499998 562.956 0.604998 563.166 0.814999C563.406 1.025 563.526 1.295 563.526 1.625V30.875C563.526 31.205 563.406 31.475 563.166 31.685C562.956 31.895 562.686 32 562.356 32H557.001C556.671 32 556.386 31.895 556.146 31.685C555.936 31.475 555.831 31.205 555.831 30.875V14L550.746 23.405C550.626 23.675 550.446 23.915 550.206 24.125C549.966 24.335 549.636 24.44 549.216 24.44H546.876C546.456 24.44 546.126 24.335 545.886 24.125C545.646 23.915 545.451 23.675 545.301 23.405L540.216 14V30.875C540.216 31.205 540.111 31.475 539.901 31.685C539.691 31.895 539.421 32 539.091 32H533.691Z" fill="black" fill-opacity="0.9"/>
<path d="M232.651 32C232.411 32 232.201 31.91 232.021 31.73C231.841 31.55 231.751 31.34 231.751 31.1C231.751 30.95 231.766 30.785 231.796 30.605L242.956 1.49C243.076 1.19 243.241 0.949999 243.451 0.77C243.661 0.589998 243.976 0.499998 244.396 0.499998H247.456C247.846 0.499998 248.146 0.589998 248.356 0.77C248.596 0.949999 248.776 1.19 248.896 1.49L260.011 30.605C260.071 30.785 260.101 30.95 260.101 31.1C260.101 31.34 260.011 31.55 259.831 31.73C259.651 31.91 259.441 32 259.201 32H256.906C256.546 32 256.276 31.91 256.096 31.73C255.946 31.55 255.841 31.385 255.781 31.235L253.306 24.845H238.546L236.071 31.235C236.041 31.385 235.936 31.55 235.756 31.73C235.576 31.91 235.306 32 234.946 32H232.651ZM239.851 20.975H252.001L245.926 5L239.851 20.975ZM268.198 32C267.868 32 267.613 31.91 267.433 31.73C267.253 31.52 267.163 31.265 267.163 30.965V1.58C267.163 1.25 267.253 0.994999 267.433 0.814999C267.613 0.604998 267.868 0.499998 268.198 0.499998H278.413C281.503 0.499998 283.993 0.964998 285.883 1.895C287.773 2.825 289.153 4.205 290.023 6.035C290.893 7.835 291.343 10.055 291.373 12.695C291.403 14.045 291.418 15.23 291.418 16.25C291.418 17.27 291.403 18.44 291.373 19.76C291.313 22.52 290.848 24.815 289.978 26.645C289.138 28.445 287.788 29.795 285.928 30.695C284.098 31.565 281.668 32 278.638 32H268.198ZM271.573 28.175H278.413C280.483 28.175 282.133 27.89 283.363 27.32C284.593 26.75 285.478 25.835 286.018 24.575C286.588 23.315 286.888 21.65 286.918 19.58C286.978 18.68 287.008 17.9 287.008 17.24C287.008 16.55 287.008 15.875 287.008 15.215C287.008 14.525 286.978 13.745 286.918 12.875C286.858 9.965 286.168 7.82 284.848 6.44C283.528 5.03 281.308 4.325 278.188 4.325H271.573V28.175Z" fill="#828282"/>
</svg>
