<svg width="359" height="22" viewBox="0 0 359 22" fill="none" xmlns="http://www.w3.org/2000/svg">
    <path d="M8.90859 21.2864C7.09496 21.2864 5.53905 20.9905 4.24086 20.3986C2.96177 19.8068 1.9595 18.9382 1.23405 17.7927C0.527682 16.6473 0.136319 15.225 0.059955 13.5259C0.0408642 12.7432 0.0313187 11.9032 0.0313187 11.0059C0.0313187 10.1086 0.0408642 9.24954 0.059955 8.42864C0.136319 6.76773 0.537228 5.36454 1.26268 4.21909C1.98814 3.05454 2.99996 2.17636 4.29814 1.58454C5.59632 0.973635 7.13314 0.66818 8.90859 0.66818C10.1686 0.66818 11.3331 0.830453 12.4022 1.155C13.4713 1.46045 14.4068 1.91863 15.2086 2.52954C16.0104 3.12136 16.6309 3.84682 17.07 4.70591C17.5281 5.54591 17.7668 6.50045 17.7859 7.56954C17.805 7.74136 17.7477 7.88454 17.614 7.99909C17.4995 8.11364 17.3563 8.17091 17.1845 8.17091H13.3186C13.0704 8.17091 12.8795 8.12318 12.7459 8.02773C12.6122 7.91318 12.4977 7.71273 12.4022 7.42636C12.135 6.41454 11.6959 5.72727 11.085 5.36455C10.4931 4.98273 9.75814 4.79182 8.87996 4.79182C7.82996 4.79182 6.9995 5.08773 6.38859 5.67954C5.77768 6.25227 5.44359 7.21636 5.38632 8.57182C5.32905 10.1373 5.32905 11.7409 5.38632 13.3827C5.44359 14.7382 5.77768 15.7118 6.38859 16.3036C6.9995 16.8764 7.82996 17.1627 8.87996 17.1627C9.75814 17.1627 10.5027 16.9718 11.1136 16.59C11.7245 16.2082 12.154 15.5209 12.4022 14.5282C12.4786 14.2418 12.5836 14.0509 12.7172 13.9555C12.87 13.8409 13.0704 13.7836 13.3186 13.7836H17.1845C17.3563 13.7836 17.4995 13.8409 17.614 13.9555C17.7477 14.07 17.805 14.2132 17.7859 14.385C17.7668 15.4541 17.5281 16.4182 17.07 17.2773C16.6309 18.1173 16.0104 18.8427 15.2086 19.4536C14.4068 20.0455 13.4713 20.5036 12.4022 20.8282C11.3331 21.1336 10.1686 21.2864 8.90859 21.2864ZM30.4188 21.2864C28.6624 21.2864 27.1351 21 25.8369 20.4273C24.5388 19.8545 23.5269 18.9955 22.8015 17.85C22.076 16.6855 21.6751 15.2345 21.5988 13.4973C21.5797 12.6764 21.5701 11.8555 21.5701 11.0345C21.5701 10.2136 21.5797 9.38318 21.5988 8.54318C21.6751 6.825 22.076 5.38364 22.8015 4.21909C23.546 3.03545 24.5674 2.14773 25.8656 1.55591C27.1638 0.96409 28.6815 0.66818 30.4188 0.66818C32.1369 0.66818 33.6451 0.96409 34.9433 1.55591C36.2606 2.14773 37.2915 3.03545 38.036 4.21909C38.7806 5.38364 39.1815 6.825 39.2388 8.54318C39.2769 9.38318 39.296 10.2136 39.296 11.0345C39.296 11.8555 39.2769 12.6764 39.2388 13.4973C39.1624 15.2345 38.7615 16.6855 38.036 17.85C37.3106 18.9955 36.2988 19.8545 35.0006 20.4273C33.7024 21 32.1751 21.2864 30.4188 21.2864ZM30.4188 17.1627C31.4306 17.1627 32.2515 16.8573 32.8815 16.2464C33.5306 15.6355 33.8742 14.6618 33.9124 13.3255C33.9506 12.4855 33.9697 11.6932 33.9697 10.9486C33.9697 10.2041 33.9506 9.43091 33.9124 8.62909C33.8742 7.73182 33.7024 7.00636 33.3969 6.45273C33.1106 5.88 32.7097 5.46 32.1942 5.19273C31.6788 4.92545 31.0869 4.79182 30.4188 4.79182C29.7697 4.79182 29.1874 4.92545 28.6719 5.19273C28.1565 5.46 27.746 5.88 27.4406 6.45273C27.1351 7.00636 26.9633 7.73182 26.9251 8.62909C26.906 9.43091 26.8965 10.2041 26.8965 10.9486C26.8965 11.6932 26.906 12.4855 26.9251 13.3255C26.9824 14.6618 27.326 15.6355 27.956 16.2464C28.586 16.8573 29.4069 17.1627 30.4188 17.1627ZM44.7631 21C44.5531 21 44.3813 20.9332 44.2477 20.7995C44.114 20.6659 44.0472 20.4941 44.0472 20.2841V1.67045C44.0472 1.46045 44.114 1.28864 44.2477 1.155C44.3813 1.02136 44.5531 0.954544 44.7631 0.954544H47.7986C48.1231 0.954544 48.3522 1.03091 48.4858 1.18364C48.6386 1.31727 48.734 1.42227 48.7722 1.49863L55.7595 12.5236V1.67045C55.7595 1.46045 55.8263 1.28864 55.9599 1.155C56.0936 1.02136 56.2654 0.954544 56.4754 0.954544H59.9117C60.1217 0.954544 60.2936 1.02136 60.4272 1.155C60.5608 1.28864 60.6277 1.46045 60.6277 1.67045V20.2841C60.6277 20.475 60.5608 20.6468 60.4272 20.7995C60.2936 20.9332 60.1217 21 59.9117 21H56.8477C56.5422 21 56.3131 20.9236 56.1604 20.7709C56.0267 20.6182 55.9408 20.5132 55.9027 20.4559L48.9154 9.86045V20.2841C48.9154 20.4941 48.8486 20.6659 48.7149 20.7995C48.5813 20.9332 48.4095 21 48.1995 21H44.7631ZM66.7773 21C66.5673 21 66.3955 20.9332 66.2619 20.7995C66.1282 20.6659 66.0614 20.4941 66.0614 20.2841V1.67045C66.0614 1.46045 66.1282 1.28864 66.2619 1.155C66.3955 1.02136 66.5673 0.954544 66.7773 0.954544H69.8128C70.1373 0.954544 70.3664 1.03091 70.5 1.18364C70.6528 1.31727 70.7482 1.42227 70.7864 1.49863L77.7737 12.5236V1.67045C77.7737 1.46045 77.8405 1.28864 77.9741 1.155C78.1078 1.02136 78.2796 0.954544 78.4896 0.954544H81.926C82.136 0.954544 82.3078 1.02136 82.4414 1.155C82.575 1.28864 82.6419 1.46045 82.6419 1.67045V20.2841C82.6419 20.475 82.575 20.6468 82.4414 20.7995C82.3078 20.9332 82.136 21 81.926 21H78.8619C78.5564 21 78.3273 20.9236 78.1746 20.7709C78.041 20.6182 77.955 20.5132 77.9169 20.4559L70.9296 9.86045V20.2841C70.9296 20.4941 70.8628 20.6659 70.7291 20.7995C70.5955 20.9332 70.4237 21 70.2137 21H66.7773ZM88.7915 21C88.5815 21 88.4097 20.9332 88.2761 20.7995C88.1424 20.6659 88.0756 20.4941 88.0756 20.2841V1.67045C88.0756 1.46045 88.1424 1.28864 88.2761 1.155C88.4097 1.02136 88.5815 0.954544 88.7915 0.954544H102.165C102.375 0.954544 102.547 1.02136 102.68 1.155C102.814 1.28864 102.881 1.46045 102.881 1.67045V4.36227C102.881 4.57227 102.814 4.74409 102.68 4.87773C102.547 5.01136 102.375 5.07818 102.165 5.07818H93.0297V8.94409H101.535C101.745 8.94409 101.917 9.02045 102.05 9.17318C102.184 9.30682 102.251 9.47864 102.251 9.68864V12.18C102.251 12.3709 102.184 12.5427 102.05 12.6955C101.917 12.8291 101.745 12.8959 101.535 12.8959H93.0297V16.8764H102.394C102.604 16.8764 102.776 16.9432 102.909 17.0768C103.043 17.2105 103.11 17.3823 103.11 17.5923V20.2841C103.11 20.4941 103.043 20.6659 102.909 20.7995C102.776 20.9332 102.604 21 102.394 21H88.7915ZM115.848 21.2864C114.034 21.2864 112.478 20.9905 111.18 20.3986C109.901 19.8068 108.898 18.9382 108.173 17.7927C107.467 16.6473 107.075 15.225 106.999 13.5259C106.98 12.7432 106.97 11.9032 106.97 11.0059C106.97 10.1086 106.98 9.24954 106.999 8.42864C107.075 6.76773 107.476 5.36454 108.202 4.21909C108.927 3.05454 109.939 2.17636 111.237 1.58454C112.535 0.973635 114.072 0.66818 115.848 0.66818C117.108 0.66818 118.272 0.830453 119.341 1.155C120.41 1.46045 121.346 1.91863 122.148 2.52954C122.949 3.12136 123.57 3.84682 124.009 4.70591C124.467 5.54591 124.706 6.50045 124.725 7.56954C124.744 7.74136 124.687 7.88454 124.553 7.99909C124.438 8.11364 124.295 8.17091 124.123 8.17091H120.258C120.009 8.17091 119.818 8.12318 119.685 8.02773C119.551 7.91318 119.437 7.71273 119.341 7.42636C119.074 6.41454 118.635 5.72727 118.024 5.36455C117.432 4.98273 116.697 4.79182 115.819 4.79182C114.769 4.79182 113.938 5.08773 113.328 5.67954C112.717 6.25227 112.383 7.21636 112.325 8.57182C112.268 10.1373 112.268 11.7409 112.325 13.3827C112.383 14.7382 112.717 15.7118 113.328 16.3036C113.938 16.8764 114.769 17.1627 115.819 17.1627C116.697 17.1627 117.442 16.9718 118.053 16.59C118.663 16.2082 119.093 15.5209 119.341 14.5282C119.418 14.2418 119.523 14.0509 119.656 13.9555C119.809 13.8409 120.009 13.7836 120.258 13.7836H124.123C124.295 13.7836 124.438 13.8409 124.553 13.9555C124.687 14.07 124.744 14.2132 124.725 14.385C124.706 15.4541 124.467 16.4182 124.009 17.2773C123.57 18.1173 122.949 18.8427 122.148 19.4536C121.346 20.0455 120.41 20.5036 119.341 20.8282C118.272 21.1336 117.108 21.2864 115.848 21.2864ZM134.294 21C134.084 21 133.912 20.9332 133.778 20.7995C133.644 20.6659 133.578 20.4941 133.578 20.2841V5.45045H128.48C128.27 5.45045 128.099 5.38364 127.965 5.25C127.831 5.09727 127.764 4.92545 127.764 4.73454V1.67045C127.764 1.46045 127.831 1.28864 127.965 1.155C128.099 1.02136 128.27 0.954544 128.48 0.954544H143.887C144.097 0.954544 144.269 1.02136 144.402 1.155C144.536 1.28864 144.603 1.46045 144.603 1.67045V4.73454C144.603 4.92545 144.536 5.09727 144.402 5.25C144.269 5.38364 144.097 5.45045 143.887 5.45045H138.789V20.2841C138.789 20.4941 138.723 20.6659 138.589 20.7995C138.455 20.9332 138.284 21 138.074 21H134.294ZM198.672 21C198.462 21 198.291 20.9332 198.157 20.7995C198.023 20.6659 197.956 20.4941 197.956 20.2841V1.67045C197.956 1.46045 198.023 1.28864 198.157 1.155C198.291 1.02136 198.462 0.954544 198.672 0.954544H206.691C208.275 0.954544 209.65 1.20273 210.814 1.69909C211.998 2.17636 212.914 2.90182 213.563 3.87545C214.231 4.84909 214.566 6.08045 214.566 7.56954C214.566 9.03954 214.231 10.2518 213.563 11.2064C212.914 12.1609 211.998 12.8673 210.814 13.3255C209.65 13.7836 208.275 14.0127 206.691 14.0127H203.283V20.2841C203.283 20.4941 203.206 20.6659 203.054 20.7995C202.92 20.9332 202.748 21 202.538 21H198.672ZM203.197 10.0609H206.547C207.368 10.0609 208.017 9.85091 208.495 9.43091C208.991 9.01091 209.239 8.37136 209.239 7.51227C209.239 6.78682 209.029 6.17591 208.609 5.67954C208.189 5.18318 207.502 4.935 206.547 4.935H203.197V10.0609ZM219.456 21C219.246 21 219.074 20.9332 218.941 20.7995C218.807 20.6659 218.74 20.4941 218.74 20.2841V1.67045C218.74 1.46045 218.807 1.28864 218.941 1.155C219.074 1.02136 219.246 0.954544 219.456 0.954544H223.236C223.427 0.954544 223.589 1.02136 223.723 1.155C223.876 1.28864 223.952 1.46045 223.952 1.67045V16.6759H232.6C232.81 16.6759 232.982 16.7523 233.116 16.905C233.268 17.0386 233.345 17.2105 233.345 17.4205V20.2841C233.345 20.4941 233.268 20.6659 233.116 20.7995C232.982 20.9332 232.81 21 232.6 21H219.456ZM236.113 21C235.961 21 235.817 20.9427 235.684 20.8282C235.569 20.6945 235.512 20.5514 235.512 20.3986C235.512 20.3032 235.521 20.2173 235.541 20.1409L242.27 1.75636C242.327 1.54636 242.442 1.365 242.614 1.21227C242.805 1.04045 243.062 0.954544 243.387 0.954544H247.625C247.95 0.954544 248.198 1.04045 248.37 1.21227C248.561 1.365 248.685 1.54636 248.742 1.75636L255.443 20.1409C255.481 20.2173 255.5 20.3032 255.5 20.3986C255.5 20.5514 255.433 20.6945 255.3 20.8282C255.185 20.9427 255.042 21 254.87 21H251.348C251.061 21 250.842 20.9332 250.689 20.7995C250.556 20.6468 250.47 20.5132 250.431 20.3986L249.315 17.4777H241.669L240.581 20.3986C240.542 20.5132 240.456 20.6468 240.323 20.7995C240.189 20.9332 239.96 21 239.636 21H236.113ZM242.843 13.3541H248.169L245.477 5.79409L242.843 13.3541ZM262.274 21C262.064 21 261.892 20.9332 261.758 20.7995C261.624 20.6659 261.558 20.4941 261.558 20.2841V5.45045H256.46C256.25 5.45045 256.079 5.38364 255.945 5.25C255.811 5.09727 255.744 4.92545 255.744 4.73454V1.67045C255.744 1.46045 255.811 1.28864 255.945 1.155C256.079 1.02136 256.25 0.954544 256.46 0.954544H271.867C272.077 0.954544 272.249 1.02136 272.382 1.155C272.516 1.28864 272.583 1.46045 272.583 1.67045V4.73454C272.583 4.92545 272.516 5.09727 272.382 5.25C272.249 5.38364 272.077 5.45045 271.867 5.45045H266.769V20.2841C266.769 20.4941 266.703 20.6659 266.569 20.7995C266.435 20.9332 266.264 21 266.054 21H262.274ZM277.333 21C277.123 21 276.951 20.9332 276.817 20.7995C276.684 20.6659 276.617 20.4941 276.617 20.2841V1.67045C276.617 1.46045 276.684 1.28864 276.817 1.155C276.951 1.02136 277.123 0.954544 277.333 0.954544H290.477C290.687 0.954544 290.859 1.02136 290.992 1.155C291.145 1.28864 291.222 1.46045 291.222 1.67045V4.56273C291.222 4.77273 291.145 4.94454 290.992 5.07818C290.859 5.21182 290.687 5.27864 290.477 5.27864H281.657V9.48818H289.904C290.114 9.48818 290.286 9.56454 290.42 9.71727C290.572 9.85091 290.649 10.0227 290.649 10.2327V13.0964C290.649 13.2873 290.572 13.4591 290.42 13.6118C290.286 13.7455 290.114 13.8123 289.904 13.8123H281.657V20.2841C281.657 20.4941 281.59 20.6659 281.457 20.7995C281.323 20.9332 281.151 21 280.941 21H277.333ZM303.773 21.2864C302.017 21.2864 300.489 21 299.191 20.4273C297.893 19.8545 296.881 18.9955 296.156 17.85C295.43 16.6855 295.029 15.2345 294.953 13.4973C294.934 12.6764 294.924 11.8555 294.924 11.0345C294.924 10.2136 294.934 9.38318 294.953 8.54318C295.029 6.825 295.43 5.38364 296.156 4.21909C296.9 3.03545 297.922 2.14773 299.22 1.55591C300.518 0.96409 302.036 0.66818 303.773 0.66818C305.491 0.66818 306.999 0.96409 308.298 1.55591C309.615 2.14773 310.646 3.03545 311.39 4.21909C312.135 5.38364 312.536 6.825 312.593 8.54318C312.631 9.38318 312.65 10.2136 312.65 11.0345C312.65 11.8555 312.631 12.6764 312.593 13.4973C312.517 15.2345 312.116 16.6855 311.39 17.85C310.665 18.9955 309.653 19.8545 308.355 20.4273C307.057 21 305.529 21.2864 303.773 21.2864ZM303.773 17.1627C304.785 17.1627 305.606 16.8573 306.236 16.2464C306.885 15.6355 307.228 14.6618 307.267 13.3255C307.305 12.4855 307.324 11.6932 307.324 10.9486C307.324 10.2041 307.305 9.43091 307.267 8.62909C307.228 7.73182 307.057 7.00636 306.751 6.45273C306.465 5.88 306.064 5.46 305.548 5.19273C305.033 4.92545 304.441 4.79182 303.773 4.79182C303.124 4.79182 302.542 4.92545 302.026 5.19273C301.511 5.46 301.1 5.88 300.795 6.45273C300.489 7.00636 300.318 7.73182 300.279 8.62909C300.26 9.43091 300.251 10.2041 300.251 10.9486C300.251 11.6932 300.26 12.4855 300.279 13.3255C300.337 14.6618 300.68 15.6355 301.31 16.2464C301.94 16.8573 302.761 17.1627 303.773 17.1627ZM318.117 21C317.907 21 317.736 20.9332 317.602 20.7995C317.468 20.6659 317.401 20.4941 317.401 20.2841V1.67045C317.401 1.46045 317.468 1.28864 317.602 1.155C317.736 1.02136 317.907 0.954544 318.117 0.954544H325.906C328.369 0.954544 330.307 1.52727 331.72 2.67273C333.151 3.79909 333.867 5.40273 333.867 7.48364C333.867 8.83909 333.533 9.98454 332.865 10.92C332.216 11.8555 331.357 12.5618 330.288 13.0391L334.24 20.0836C334.297 20.1982 334.326 20.3032 334.326 20.3986C334.326 20.5514 334.259 20.6945 334.125 20.8282C334.011 20.9427 333.867 21 333.696 21H329.916C329.553 21 329.286 20.9141 329.114 20.7423C328.942 20.5514 328.818 20.3795 328.741 20.2268L325.477 13.9268H322.527V20.2841C322.527 20.4941 322.461 20.6659 322.327 20.7995C322.193 20.9332 322.021 21 321.811 21H318.117ZM322.527 9.88909H325.849C326.746 9.88909 327.415 9.66954 327.854 9.23045C328.312 8.79136 328.541 8.19 328.541 7.42636C328.541 6.68182 328.321 6.08045 327.882 5.62227C327.462 5.16409 326.785 4.935 325.849 4.935H322.527V9.88909ZM339.349 21C339.158 21 338.986 20.9332 338.833 20.7995C338.699 20.6659 338.633 20.4941 338.633 20.2841V1.67045C338.633 1.46045 338.699 1.28864 338.833 1.155C338.986 1.02136 339.158 0.954544 339.349 0.954544H342.441C342.747 0.954544 342.976 1.04045 343.129 1.21227C343.3 1.365 343.405 1.48909 343.444 1.58454L348.484 10.6336L353.524 1.58454C353.581 1.48909 353.676 1.365 353.81 1.21227C353.963 1.04045 354.201 0.954544 354.526 0.954544H357.59C357.8 0.954544 357.972 1.02136 358.105 1.155C358.258 1.28864 358.334 1.46045 358.334 1.67045V20.2841C358.334 20.4941 358.258 20.6659 358.105 20.7995C357.972 20.9332 357.8 21 357.59 21H354.182C353.972 21 353.791 20.9332 353.638 20.7995C353.504 20.6659 353.438 20.4941 353.438 20.2841V9.54545L350.202 15.5305C350.125 15.7023 350.011 15.855 349.858 15.9886C349.705 16.1223 349.495 16.1891 349.228 16.1891H347.739C347.472 16.1891 347.262 16.1223 347.109 15.9886C346.956 15.855 346.832 15.7023 346.737 15.5305L343.501 9.54545V20.2841C343.501 20.4941 343.434 20.6659 343.3 20.7995C343.167 20.9332 342.995 21 342.785 21H339.349Z" fill="black" fill-opacity="0.9"/>
    <path d="M147.778 21C147.625 21 147.492 20.9427 147.377 20.8282C147.262 20.7136 147.205 20.58 147.205 20.4273C147.205 20.3318 147.215 20.2268 147.234 20.1123L154.336 1.58454C154.412 1.39364 154.517 1.24091 154.651 1.12636C154.784 1.01182 154.985 0.954544 155.252 0.954544H157.199C157.447 0.954544 157.638 1.01182 157.772 1.12636C157.925 1.24091 158.039 1.39364 158.116 1.58454L165.189 20.1123C165.227 20.2268 165.246 20.3318 165.246 20.4273C165.246 20.58 165.189 20.7136 165.074 20.8282C164.96 20.9427 164.826 21 164.673 21H163.213C162.984 21 162.812 20.9427 162.697 20.8282C162.602 20.7136 162.535 20.6086 162.497 20.5132L160.922 16.4468H151.529L149.954 20.5132C149.935 20.6086 149.868 20.7136 149.754 20.8282C149.639 20.9427 149.467 21 149.238 21H147.778ZM152.36 13.9841H160.092L156.226 3.81818L152.36 13.9841ZM170.398 21C170.188 21 170.026 20.9427 169.912 20.8282C169.797 20.6945 169.74 20.5323 169.74 20.3414V1.64182C169.74 1.43182 169.797 1.26954 169.912 1.155C170.026 1.02136 170.188 0.954544 170.398 0.954544H176.899C178.865 0.954544 180.45 1.25045 181.653 1.84227C182.855 2.43409 183.733 3.31227 184.287 4.47682C184.841 5.62227 185.127 7.035 185.146 8.715C185.165 9.57409 185.175 10.3282 185.175 10.9773C185.175 11.6264 185.165 12.3709 185.146 13.2109C185.108 14.9673 184.812 16.4277 184.258 17.5923C183.724 18.7377 182.865 19.5968 181.681 20.1695C180.517 20.7232 178.97 21 177.042 21H170.398ZM172.546 18.5659H176.899C178.216 18.5659 179.266 18.3845 180.049 18.0218C180.832 17.6591 181.395 17.0768 181.738 16.275C182.101 15.4732 182.292 14.4136 182.311 13.0964C182.349 12.5236 182.368 12.0273 182.368 11.6073C182.368 11.1682 182.368 10.7386 182.368 10.3186C182.368 9.87954 182.349 9.38318 182.311 8.82954C182.273 6.97773 181.834 5.61273 180.994 4.73454C180.154 3.83727 178.741 3.38864 176.756 3.38864H172.546V18.5659Z" fill="#828282"/>
</svg>
