<svg width="163" height="25" viewBox="0 0 163 25" fill="none" xmlns="http://www.w3.org/2000/svg">
<path d="M7.592 2.88C10.8987 2.88 13.4693 3.79733 15.304 5.632C17.16 7.44533 18.088 10.048 18.088 13.44C18.088 16.832 17.16 19.4453 15.304 21.28C13.4693 23.0933 10.8987 24 7.592 24H0.136V2.88H7.592ZM7.592 21.088C9.832 21.088 11.5387 20.4267 12.712 19.104C13.9067 17.76 14.504 15.872 14.504 13.44C14.504 11.008 13.9067 9.13067 12.712 7.808C11.5387 6.464 9.832 5.792 7.592 5.792H3.56V21.088H7.592ZM31.8728 13.728C31.8728 12.6613 31.5741 11.84 30.9768 11.264C30.4008 10.6667 29.6008 10.368 28.5768 10.368C27.6168 10.368 26.7848 10.592 26.0808 11.04C25.3981 11.488 24.9074 12.2133 24.6088 13.216L21.7288 12C22.1341 10.6987 22.9234 9.65333 24.0968 8.864C25.2914 8.07467 26.8274 7.68 28.7048 7.68C29.9634 7.68 31.0834 7.89333 32.0648 8.32C33.0674 8.72533 33.8461 9.35467 34.4008 10.208C34.9768 11.04 35.2648 12.096 35.2648 13.376V20.512C35.2648 21.3013 35.6594 21.696 36.4488 21.696C36.8328 21.696 37.2061 21.6427 37.5688 21.536L37.3768 23.904C36.8861 24.1387 36.2674 24.256 35.5208 24.256C34.6674 24.256 33.9314 24.064 33.3128 23.68C32.6941 23.296 32.2781 22.72 32.0648 21.952C31.5528 22.7413 30.8168 23.3387 29.8568 23.744C28.8968 24.128 27.9368 24.32 26.9768 24.32C25.4621 24.32 24.2034 23.9573 23.2008 23.232C22.1981 22.5067 21.6968 21.4187 21.6968 19.968C21.6968 18.7947 22.0808 17.824 22.8488 17.056C23.6381 16.288 24.7474 15.7547 26.1768 15.456L31.8728 14.336V13.728ZM25.1528 19.712C25.1528 20.3093 25.3768 20.7893 25.8248 21.152C26.2941 21.4933 26.9128 21.664 27.6808 21.664C28.4061 21.664 29.0888 21.5467 29.7288 21.312C30.3688 21.0773 30.8808 20.6933 31.2648 20.16C31.6701 19.6267 31.8728 18.9333 31.8728 18.08V16.736L27.8408 17.568C26.9234 17.7387 26.2408 17.984 25.7928 18.304C25.3661 18.624 25.1528 19.0933 25.1528 19.712ZM46.9548 24.32C45.3548 24.32 43.8934 24.0107 42.5708 23.392C41.2481 22.7733 40.2028 21.8987 39.4348 20.768L41.8028 18.72C42.2721 19.5947 42.9441 20.2987 43.8188 20.832C44.7148 21.344 45.7814 21.6 47.0188 21.6C48.0001 21.6 48.7788 21.4293 49.3548 21.088C49.9308 20.7467 50.2188 20.2667 50.2188 19.648C50.2188 19.2427 50.0801 18.8907 49.8028 18.592C49.5468 18.272 49.0454 18.0267 48.2988 17.856L44.9388 17.152C43.2321 16.8107 42.0161 16.256 41.2908 15.488C40.5654 14.72 40.2028 13.76 40.2028 12.608C40.2028 11.7333 40.4588 10.9227 40.9708 10.176C41.5041 9.42933 42.2614 8.832 43.2428 8.384C44.2241 7.91467 45.4081 7.68 46.7948 7.68C48.3734 7.68 49.7281 7.968 50.8588 8.544C52.0108 9.09867 52.8854 9.89867 53.4828 10.944L51.1148 12.928C50.6881 12.0747 50.0801 11.4453 49.2908 11.04C48.5228 10.6133 47.7121 10.4 46.8588 10.4C45.8134 10.4 45.0028 10.592 44.4268 10.976C43.8721 11.3387 43.5948 11.8187 43.5948 12.416C43.5948 12.8213 43.7548 13.1947 44.0748 13.536C44.3948 13.856 44.9708 14.1013 45.8028 14.272L49.4508 15.04C50.9868 15.3387 52.0641 15.8507 52.6828 16.576C53.3228 17.28 53.6428 18.144 53.6428 19.168C53.6428 20.704 53.0454 21.952 51.8508 22.912C50.6561 23.8507 49.0241 24.32 46.9548 24.32ZM57.8123 24V0.799999H61.2363V10.56C61.7696 9.55733 62.4843 8.832 63.3802 8.384C64.2976 7.91467 65.3109 7.68 66.4203 7.68C67.5509 7.68 68.5643 7.904 69.4603 8.352C70.3776 8.77867 71.1029 9.44 71.6363 10.336C72.1696 11.2107 72.4363 12.3093 72.4363 13.632V24H69.0123V14.72C69.0123 13.12 68.6816 12.0213 68.0203 11.424C67.3803 10.8053 66.5696 10.496 65.5883 10.496C64.8843 10.496 64.2016 10.6667 63.5403 11.008C62.8789 11.328 62.3243 11.8613 61.8763 12.608C61.4496 13.3333 61.2363 14.3147 61.2363 15.552V24H57.8123ZM86.2008 24.32C84.9634 24.32 83.8648 24.0107 82.9048 23.392C81.9661 22.752 81.2621 21.9307 80.7928 20.928L80.6328 24H77.6248V0.799999H81.0488V10.624C81.5394 9.74933 82.2328 9.04533 83.1288 8.512C84.0248 7.95733 85.0808 7.68 86.2968 7.68C87.5981 7.68 88.7714 8.01067 89.8168 8.672C90.8834 9.33333 91.7261 10.2933 92.3448 11.552C92.9848 12.7893 93.3048 14.2827 93.3048 16.032C93.3048 17.76 92.9848 19.2427 92.3448 20.48C91.7261 21.7173 90.8728 22.6667 89.7848 23.328C88.7181 23.9893 87.5234 24.32 86.2008 24.32ZM85.4648 21.568C86.8514 21.568 87.9288 21.0773 88.6968 20.096C89.4861 19.0933 89.8808 17.728 89.8808 16C89.8808 14.272 89.4968 12.9173 88.7288 11.936C87.9608 10.9547 86.8834 10.464 85.4968 10.464C84.1528 10.464 83.0754 10.976 82.2648 12C81.4541 13.0027 81.0488 14.3573 81.0488 16.064C81.0488 17.7707 81.4541 19.1147 82.2648 20.096C83.0754 21.0773 84.1421 21.568 85.4648 21.568ZM104.631 7.68C106.189 7.68 107.565 8.01067 108.759 8.672C109.954 9.33333 110.882 10.2933 111.543 11.552C112.226 12.7893 112.567 14.272 112.567 16C112.567 17.728 112.226 19.2213 111.543 20.48C110.882 21.7173 109.954 22.6667 108.759 23.328C107.565 23.9893 106.189 24.32 104.631 24.32C103.074 24.32 101.698 23.9893 100.503 23.328C99.3086 22.6667 98.3699 21.7173 97.6873 20.48C97.0046 19.2213 96.6633 17.728 96.6633 16C96.6633 14.272 97.0046 12.7893 97.6873 11.552C98.3699 10.2933 99.3086 9.33333 100.503 8.672C101.698 8.01067 103.074 7.68 104.631 7.68ZM104.631 10.368C103.223 10.368 102.114 10.8587 101.303 11.84C100.493 12.8 100.087 14.1867 100.087 16C100.087 17.8133 100.493 19.2107 101.303 20.192C102.114 21.152 103.223 21.632 104.631 21.632C106.039 21.632 107.138 21.152 107.927 20.192C108.738 19.2107 109.143 17.8133 109.143 16C109.143 14.1867 108.738 12.8 107.927 11.84C107.138 10.8587 106.039 10.368 104.631 10.368ZM126.092 13.728C126.092 12.6613 125.793 11.84 125.196 11.264C124.62 10.6667 123.82 10.368 122.796 10.368C121.836 10.368 121.004 10.592 120.3 11.04C119.617 11.488 119.126 12.2133 118.828 13.216L115.948 12C116.353 10.6987 117.142 9.65333 118.316 8.864C119.51 8.07467 121.046 7.68 122.924 7.68C124.182 7.68 125.302 7.89333 126.284 8.32C127.286 8.72533 128.065 9.35467 128.62 10.208C129.196 11.04 129.484 12.096 129.484 13.376V20.512C129.484 21.3013 129.878 21.696 130.668 21.696C131.052 21.696 131.425 21.6427 131.788 21.536L131.596 23.904C131.105 24.1387 130.486 24.256 129.74 24.256C128.886 24.256 128.15 24.064 127.532 23.68C126.913 23.296 126.497 22.72 126.284 21.952C125.772 22.7413 125.036 23.3387 124.076 23.744C123.116 24.128 122.156 24.32 121.196 24.32C119.681 24.32 118.422 23.9573 117.42 23.232C116.417 22.5067 115.916 21.4187 115.916 19.968C115.916 18.7947 116.3 17.824 117.068 17.056C117.857 16.288 118.966 15.7547 120.396 15.456L126.092 14.336V13.728ZM119.372 19.712C119.372 20.3093 119.596 20.7893 120.044 21.152C120.513 21.4933 121.132 21.664 121.9 21.664C122.625 21.664 123.308 21.5467 123.948 21.312C124.588 21.0773 125.1 20.6933 125.484 20.16C125.889 19.6267 126.092 18.9333 126.092 18.08V16.736L122.06 17.568C121.142 17.7387 120.46 17.984 120.012 18.304C119.585 18.624 119.372 19.0933 119.372 19.712ZM135.094 24V8H138.006L138.326 10.88C139.2 8.74667 140.875 7.68 143.35 7.68C143.67 7.68 143.99 7.712 144.31 7.776C144.63 7.81867 144.896 7.89333 145.11 8L144.63 11.008C144.395 10.9227 144.128 10.8587 143.83 10.816C143.552 10.752 143.168 10.72 142.678 10.72C141.995 10.72 141.334 10.9013 140.694 11.264C140.075 11.6053 139.552 12.1387 139.126 12.864C138.72 13.568 138.518 14.4533 138.518 15.52V24H135.094ZM154.081 24.32C152.759 24.32 151.564 23.9893 150.497 23.328C149.431 22.6667 148.577 21.7173 147.937 20.48C147.319 19.2427 147.009 17.76 147.009 16.032C147.009 14.24 147.34 12.7253 148.001 11.488C148.663 10.2507 149.548 9.312 150.657 8.672C151.767 8.01067 152.983 7.68 154.305 7.68C155.457 7.68 156.46 7.95733 157.313 8.512C158.188 9.04533 158.839 9.76 159.265 10.656V0.799999H162.689V24H159.649L159.457 20.96C159.031 22.0267 158.327 22.8587 157.345 23.456C156.364 24.032 155.276 24.32 154.081 24.32ZM154.817 21.568C156.161 21.568 157.239 21.056 158.049 20.032C158.86 19.008 159.265 17.6 159.265 15.808C159.265 14.144 158.86 12.8427 158.049 11.904C157.26 10.944 156.225 10.464 154.945 10.464C153.516 10.464 152.407 10.9547 151.617 11.936C150.828 12.9173 150.433 14.272 150.433 16C150.433 17.728 150.817 19.0933 151.585 20.096C152.353 21.0773 153.431 21.568 154.817 21.568Z" fill="black"/>
</svg>
