<svg width="18" height="20" viewBox="0 0 18 20" fill="none" xmlns="http://www.w3.org/2000/svg">
<path d="M8.75 10C11.4844 10 13.75 7.77344 13.75 5C13.75 2.26562 11.4844 0 8.75 0C5.97656 0 3.75 2.26562 3.75 5C3.75 7.77344 5.97656 10 8.75 10ZM8.75 1.25C10.7812 1.25 12.5 2.96875 12.5 5C12.5 7.07031 10.7812 8.75 8.75 8.75C6.67969 8.75 5 7.07031 5 5C5 2.96875 6.67969 1.25 8.75 1.25ZM10.7031 11.875H6.75781C3.00781 11.875 0 14.9219 0 18.6719C0 19.4141 0.585938 20 1.32812 20H16.1328C16.875 20 17.5 19.4141 17.5 18.6719C17.5 14.9219 14.4531 11.875 10.7031 11.875ZM16.1328 18.75H1.32812C1.28906 18.75 1.25 18.7109 1.25 18.6719C1.25 15.625 3.71094 13.125 6.75781 13.125H10.7031C13.75 13.125 16.25 15.625 16.25 18.6719C16.25 18.7109 16.1719 18.75 16.1328 18.75Z" />
</svg>

