<svg width="30" height="30" viewBox="0 0 30 30" fill="none" xmlns="http://www.w3.org/2000/svg">
<g opacity="0.7">
<rect width="30" height="30" rx="15" fill="#222222"/>
<path d="M17.5 12.4688C17.1875 12.1875 16.7188 12.1875 16.4375 12.4688L15 13.9688L13.5 12.4688C13.1875 12.1875 12.7188 12.1875 12.4375 12.4688C12.125 12.7812 12.125 13.25 12.4375 13.5312L13.9062 15L12.4688 16.4688C12.1562 16.7812 12.1562 17.25 12.4688 17.5312C12.75 17.8438 13.2188 17.8438 13.5 17.5312L15 16.0625L16.4688 17.5312C16.75 17.8438 17.2188 17.8438 17.5 17.5312C17.8125 17.25 17.8125 16.7812 17.5 16.4688L16.0312 15L17.5 13.5312C17.8125 13.25 17.8125 12.7812 17.5 12.4688ZM15 7C10.5625 7 7 10.5938 7 15C7 19.4375 10.5625 23 15 23C19.4062 23 23 19.4375 23 15C23 10.5938 19.4062 7 15 7ZM15 21.5C11.4062 21.5 8.5 18.5938 8.5 15C8.5 11.4375 11.4062 8.5 15 8.5C18.5625 8.5 21.5 11.4375 21.5 15C21.5 18.5938 18.5625 21.5 15 21.5Z" fill="white"/>
</g>
</svg>

