<svg width="9" height="13" viewBox="0 0 9 13" fill="none" xmlns="http://www.w3.org/2000/svg">
<path d="M8.64844 2.79688L6.70312 0.851562C6.49219 0.640625 6.1875 0.5 5.90625 0.5H1.10156C0.492188 0.523438 0 1.01562 0 1.64844V11.3984C0 12.0078 0.492188 12.5 1.10156 12.5H7.875C8.48438 12.5 9 12.0078 9 11.3984V3.59375C9 3.3125 8.85938 3.00781 8.64844 2.79688ZM6 1.27344C6.04688 1.29688 6.11719 1.32031 6.16406 1.36719L8.13281 3.33594C8.17969 3.38281 8.20312 3.45312 8.22656 3.52344H6V1.27344ZM8.25 11.3984C8.25 11.5859 8.0625 11.7734 7.875 11.7734H1.10156C0.914062 11.7734 0.726562 11.5859 0.726562 11.3984V1.64844C0.726562 1.4375 0.914062 1.25 1.10156 1.25H5.25V3.71094C5.25 4.01562 5.48438 4.25 5.8125 4.25H8.25V11.3984ZM2.8125 6.5H2.625C1.99219 6.5 1.5 7.01562 1.5 7.625V8.375C1.5 9.00781 1.99219 9.5 2.625 9.5H2.8125C2.90625 9.5 3 9.42969 3 9.3125V8.9375C3 8.84375 2.90625 8.75 2.8125 8.75H2.625C2.41406 8.75 2.25 8.58594 2.25 8.375V7.625C2.25 7.4375 2.41406 7.25 2.625 7.25H2.8125C2.90625 7.25 3 7.17969 3 7.0625V6.6875C3 6.59375 2.90625 6.5 2.8125 6.5ZM5.4375 6.5C5.32031 6.5 5.25 6.59375 5.25 6.6875V7.17969C5.25 8.02344 5.53125 8.79688 6.09375 9.38281C6.16406 9.47656 6.25781 9.5 6.375 9.5C6.46875 9.5 6.5625 9.47656 6.63281 9.38281C7.19531 8.79688 7.5 8.02344 7.5 7.17969V6.6875C7.5 6.59375 7.40625 6.5 7.3125 6.5H6.9375C6.82031 6.5 6.75 6.59375 6.75 6.6875V7.17969C6.75 7.67188 6.60938 8.11719 6.375 8.51562C6.11719 8.11719 6 7.67188 6 7.17969V6.6875C6 6.59375 5.90625 6.5 5.8125 6.5H5.4375ZM4.19531 7.50781C4.17188 7.48438 4.14844 7.4375 4.14844 7.41406C4.14844 7.34375 4.24219 7.27344 4.38281 7.27344H4.6875C4.78125 7.27344 4.875 7.17969 4.875 7.08594V6.71094C4.875 6.59375 4.78125 6.52344 4.6875 6.52344H4.38281C3.84375 6.52344 3.39844 6.92188 3.39844 7.41406C3.39844 7.67188 3.51562 7.90625 3.70312 8.07031L4.21875 8.51562C4.24219 8.53906 4.26562 8.58594 4.26562 8.60938C4.26562 8.67969 4.17188 8.75 4.03125 8.75H3.75C3.63281 8.75 3.5625 8.84375 3.5625 8.9375V9.3125C3.5625 9.42969 3.63281 9.5 3.75 9.5H4.03125C4.57031 9.5 5.01562 9.10156 5.01562 8.60938C5.01562 8.35156 4.89844 8.11719 4.71094 7.95312L4.19531 7.50781Z" fill="black"/>
</svg>

