<svg width="23" height="19" viewBox="0 0 23 19" fill="none" xmlns="http://www.w3.org/2000/svg">
<path d="M5.625 3C5.625 1.76953 6.60938 0.75 7.875 0.75C9.10547 0.75 10.125 1.76953 10.125 3C10.125 3.70312 9.80859 4.30078 9.31641 4.72266L10.6875 7.67578C11.0391 7.57031 11.4258 7.5 11.8125 7.5C12.9023 7.5 13.9219 7.99219 14.625 8.73047L18.1758 6.16406C18.0352 5.88281 18 5.60156 18 5.25C18 4.01953 18.9844 3 20.25 3C21.4805 3 22.5 4.01953 22.5 5.25C22.5 6.51562 21.4805 7.5 20.25 7.5C19.7227 7.5 19.2305 7.35938 18.8789 7.04297L15.293 9.64453C15.5742 10.1719 15.75 10.8047 15.75 11.4375C15.75 12 15.6094 12.4922 15.4336 12.9844L18.668 14.918C19.0547 14.4961 19.6172 14.25 20.25 14.25C21.4805 14.25 22.5 15.2695 22.5 16.5C22.5 17.7656 21.4805 18.75 20.25 18.75C18.9844 18.75 18 17.7656 18 16.5C18 16.2891 18 16.0781 18.0703 15.8672L14.8359 13.9336C14.1328 14.8125 13.043 15.375 11.8125 15.375C9.80859 15.375 8.15625 13.9336 7.91016 12H4.39453C4.14844 12.9844 3.26953 13.6875 2.25 13.6875C0.984375 13.6875 0 12.7031 0 11.4375C0 10.207 0.984375 9.1875 2.25 9.1875C3.26953 9.1875 4.14844 9.92578 4.39453 10.875H7.91016C8.05078 9.75 8.71875 8.76562 9.66797 8.13281L8.33203 5.21484C8.15625 5.25 8.01562 5.25 7.875 5.25C6.60938 5.25 5.625 4.26562 5.625 3ZM7.875 4.125C8.47266 4.125 9 3.63281 9 3C9 2.40234 8.47266 1.875 7.875 1.875C7.24219 1.875 6.75 2.40234 6.75 3C6.75 3.63281 7.24219 4.125 7.875 4.125ZM20.25 6.375C20.8477 6.375 21.375 5.88281 21.375 5.25C21.375 4.65234 20.8477 4.125 20.25 4.125C19.6172 4.125 19.125 4.65234 19.125 5.25C19.125 5.88281 19.6172 6.375 20.25 6.375ZM20.25 15.375C19.6172 15.375 19.125 15.9023 19.125 16.5C19.125 17.1328 19.6172 17.625 20.25 17.625C20.8477 17.625 21.375 17.1328 21.375 16.5C21.375 15.9023 20.8477 15.375 20.25 15.375ZM2.25 12.5625C2.84766 12.5625 3.375 12.0703 3.375 11.4375C3.375 10.8398 2.84766 10.3125 2.25 10.3125C1.61719 10.3125 1.125 10.8398 1.125 11.4375C1.125 12.0703 1.61719 12.5625 2.25 12.5625ZM11.8125 14.25C13.3594 14.25 14.625 13.0195 14.625 11.4375C14.625 9.89062 13.3594 8.625 11.8125 8.625C10.2305 8.625 9 9.89062 9 11.4375C9 13.0195 10.2305 14.25 11.8125 14.25Z" />
</svg>

