<svg width="16" height="19" viewBox="0 0 16 19" fill="none" xmlns="http://www.w3.org/2000/svg">
<path d="M13.625 4.75H12.2188C11.7266 4.75 11.375 5.13672 11.375 5.59375C11.375 6.08594 11.7266 6.4375 12.2188 6.4375H13.625C13.9062 6.4375 14.1875 6.71875 14.1875 7V16C14.1875 16.3164 13.9062 16.5625 13.625 16.5625H2.375C2.05859 16.5625 1.8125 16.3164 1.8125 16V7C1.8125 6.71875 2.05859 6.4375 2.375 6.4375H3.78125C4.23828 6.4375 4.625 6.08594 4.625 5.59375C4.625 5.13672 4.23828 4.75 3.78125 4.75H2.375C1.10938 4.75 0.125 5.76953 0.125 7V16C0.125 17.2656 1.10938 18.25 2.375 18.25H13.625C14.8555 18.25 15.875 17.2656 15.875 16V7C15.875 5.76953 14.8555 4.75 13.625 4.75ZM4.02734 8.65234C3.67578 8.96875 3.67578 9.49609 3.99219 9.84766L7.36719 13.5039C7.68359 13.8555 8.28125 13.8555 8.59766 13.5039L11.9727 9.84766C12.2891 9.49609 12.2891 8.96875 11.9375 8.65234C11.5859 8.33594 11.0586 8.37109 10.7422 8.72266L8.84375 10.7617V1.12891C8.84375 0.636719 8.45703 0.25 8 0.25C7.50781 0.25 7.15625 0.636719 7.15625 1.12891V10.7617L5.22266 8.6875C5.04688 8.51172 4.83594 8.44141 4.625 8.44141C4.41406 8.44141 4.20312 8.51172 4.02734 8.65234Z" fill="white"/>
</svg>
