<svg width="16" height="15" viewBox="0 0 16 15" fill="none" xmlns="http://www.w3.org/2000/svg">
<path d="M8.16797 8C8.44411 8 8.66797 7.77614 8.66797 7.5C8.66797 7.22386 8.44411 7 8.16797 7C7.89183 7 7.66797 7.22386 7.66797 7.5C7.66797 7.77614 7.89183 8 8.16797 8Z" fill="#C1C1C1" stroke="#C1C1C1" stroke-width="2" stroke-linecap="round" stroke-linejoin="round"/>
<path d="M8.16797 2C8.44411 2 8.66797 1.77614 8.66797 1.5C8.66797 1.22386 8.44411 1 8.16797 1C7.89183 1 7.66797 1.22386 7.66797 1.5C7.66797 1.77614 7.89183 2 8.16797 2Z" fill="#C1C1C1" stroke="#C1C1C1" stroke-width="2" stroke-linecap="round" stroke-linejoin="round"/>
<path d="M8.16797 14C8.44411 14 8.66797 13.7761 8.66797 13.5C8.66797 13.2239 8.44411 13 8.16797 13C7.89183 13 7.66797 13.2239 7.66797 13.5C7.66797 13.7761 7.89183 14 8.16797 14Z" fill="#C1C1C1" stroke="#C1C1C1" stroke-width="2" stroke-linecap="round" stroke-linejoin="round"/>
<path d="M14.168 8C14.4441 8 14.668 7.77614 14.668 7.5C14.668 7.22386 14.4441 7 14.168 7C13.8918 7 13.668 7.22386 13.668 7.5C13.668 7.77614 13.8918 8 14.168 8Z" fill="#C1C1C1" stroke="#C1C1C1" stroke-width="2" stroke-linecap="round" stroke-linejoin="round"/>
<path d="M14.168 2C14.4441 2 14.668 1.77614 14.668 1.5C14.668 1.22386 14.4441 1 14.168 1C13.8918 1 13.668 1.22386 13.668 1.5C13.668 1.77614 13.8918 2 14.168 2Z" fill="#C1C1C1" stroke="#C1C1C1" stroke-width="2" stroke-linecap="round" stroke-linejoin="round"/>
<path d="M14.168 14C14.4441 14 14.668 13.7761 14.668 13.5C14.668 13.2239 14.4441 13 14.168 13C13.8918 13 13.668 13.2239 13.668 13.5C13.668 13.7761 13.8918 14 14.168 14Z" fill="#C1C1C1" stroke="#C1C1C1" stroke-width="2" stroke-linecap="round" stroke-linejoin="round"/>
<path d="M2.16797 8C2.44411 8 2.66797 7.77614 2.66797 7.5C2.66797 7.22386 2.44411 7 2.16797 7C1.89183 7 1.66797 7.22386 1.66797 7.5C1.66797 7.77614 1.89183 8 2.16797 8Z" fill="#C1C1C1" stroke="#C1C1C1" stroke-width="2" stroke-linecap="round" stroke-linejoin="round"/>
<path d="M2.16797 2C2.44411 2 2.66797 1.77614 2.66797 1.5C2.66797 1.22386 2.44411 1 2.16797 1C1.89183 1 1.66797 1.22386 1.66797 1.5C1.66797 1.77614 1.89183 2 2.16797 2Z" fill="#C1C1C1" stroke="#C1C1C1" stroke-width="2" stroke-linecap="round" stroke-linejoin="round"/>
<path d="M2.16797 14C2.44411 14 2.66797 13.7761 2.66797 13.5C2.66797 13.2239 2.44411 13 2.16797 13C1.89183 13 1.66797 13.2239 1.66797 13.5C1.66797 13.7761 1.89183 14 2.16797 14Z" fill="#C1C1C1" stroke="#C1C1C1" stroke-width="2" stroke-linecap="round" stroke-linejoin="round"/>
</svg>
