<svg width="26" height="26" viewBox="0 0 26 26" fill="none" xmlns="http://www.w3.org/2000/svg">
<path d="M11.4531 5.54688V7.79688L12.8594 9.20312C12.5312 7.5625 13.0469 5.92188 14.2188 4.75C15.1562 3.76562 16.4219 3.29688 17.7344 3.29688H17.7812L15.0625 5.96875L15.7656 10.1875L19.9844 10.8906L22.7031 8.21875C22.7031 9.53125 22.1875 10.8438 21.2031 11.7812C20.7812 12.25 20.2656 12.5781 19.75 12.8125C19.7969 12.8594 19.8906 12.9531 19.9844 13L21.4375 14.4531C21.9062 14.1719 22.375 13.7969 22.7969 13.375C24.5781 11.6406 25.3281 8.96875 24.7188 6.53125C24.5781 5.92188 24.1562 5.5 23.5938 5.3125C22.9844 5.17188 22.375 5.35938 22 5.73438L19.2812 8.5L17.7344 8.26562L17.5 6.71875L20.2656 4C20.6406 3.625 20.8281 3.01562 20.6406 2.45312C20.5 1.84375 20.0312 1.42188 19.4688 1.28125C16.9844 0.671875 14.4062 1.375 12.625 3.20312C12.1094 3.67188 11.7344 4.1875 11.4062 4.75H11.4531V5.54688ZM5.96875 22.2812C5.35938 22.8906 4.28125 22.8906 3.67188 22.2812C3.39062 22 3.20312 21.625 3.20312 21.2031C3.20312 20.7812 3.39062 20.4062 3.67188 20.125L10 13.75L8.40625 12.1562L2.125 18.4375C1.375 19.1875 1 20.1719 1 21.1094C0.953125 22.0938 1.375 23.125 2.125 23.8281C2.82812 24.5781 3.8125 24.9531 4.79688 24.9531C5.78125 24.9531 6.76562 24.5781 7.51562 23.8281L12.25 19.1406C11.7812 18.3906 11.5 17.5469 11.5 16.6562L5.96875 22.2812ZM24.4844 19.5625L19 14.0781C17.875 13 16.2812 12.7656 14.9688 13.4219L9.95312 8.40625V5.5L4 1L1 4L5.5 9.95312H8.40625L13.375 14.9219C12.7656 16.2344 12.9531 17.875 14.0312 18.9531L19.5156 24.4375C20.2188 25.0938 21.2969 25.0938 22 24.4375L24.4844 21.9531C25.1406 21.3438 25.1406 20.2656 24.4844 19.5625Z" fill="#4F4F4F"/>
</svg>
