<svg width="21" height="22" viewBox="0 0 21 22" fill="none" xmlns="http://www.w3.org/2000/svg">
<path d="M4.125 0.5C5.15625 0.5 6 1.34375 6 2.375V4.625C6 5.70312 5.15625 6.5 4.125 6.5H1.875C0.796875 6.5 0 5.70312 0 4.625V2.375C0 1.34375 0.796875 0.5 1.875 0.5H4.125ZM4.125 2H1.875C1.64062 2 1.5 2.1875 1.5 2.375V4.625C1.5 4.85938 1.64062 5 1.875 5H4.125C4.3125 5 4.5 4.85938 4.5 4.625V2.375C4.5 2.1875 4.3125 2 4.125 2ZM4.125 8C5.15625 8 6 8.84375 6 9.875V12.125C6 13.2031 5.15625 14 4.125 14H1.875C0.796875 14 0 13.2031 0 12.125V9.875C0 8.84375 0.796875 8 1.875 8H4.125ZM4.125 9.5H1.875C1.64062 9.5 1.5 9.6875 1.5 9.875V12.125C1.5 12.3594 1.64062 12.5 1.875 12.5H4.125C4.3125 12.5 4.5 12.3594 4.5 12.125V9.875C4.5 9.6875 4.3125 9.5 4.125 9.5ZM0 17.375C0 16.3438 0.796875 15.5 1.875 15.5H4.125C5.15625 15.5 6 16.3438 6 17.375V19.625C6 20.7031 5.15625 21.5 4.125 21.5H1.875C0.796875 21.5 0 20.7031 0 19.625V17.375ZM1.5 17.375V19.625C1.5 19.8594 1.64062 20 1.875 20H4.125C4.3125 20 4.5 19.8594 4.5 19.625V17.375C4.5 17.1875 4.3125 17 4.125 17H1.875C1.64062 17 1.5 17.1875 1.5 17.375ZM11.625 0.5C12.6562 0.5 13.5 1.34375 13.5 2.375V4.625C13.5 5.70312 12.6562 6.5 11.625 6.5H9.375C8.29688 6.5 7.5 5.70312 7.5 4.625V2.375C7.5 1.34375 8.29688 0.5 9.375 0.5H11.625ZM11.625 2H9.375C9.14062 2 9 2.1875 9 2.375V4.625C9 4.85938 9.14062 5 9.375 5H11.625C11.8125 5 12 4.85938 12 4.625V2.375C12 2.1875 11.8125 2 11.625 2ZM7.5 9.875C7.5 8.84375 8.29688 8 9.375 8H11.625C12.6562 8 13.5 8.84375 13.5 9.875V12.125C13.5 13.2031 12.6562 14 11.625 14H9.375C8.29688 14 7.5 13.2031 7.5 12.125V9.875ZM9 9.875V12.125C9 12.3594 9.14062 12.5 9.375 12.5H11.625C11.8125 12.5 12 12.3594 12 12.125V9.875C12 9.6875 11.8125 9.5 11.625 9.5H9.375C9.14062 9.5 9 9.6875 9 9.875ZM11.625 15.5C12.6562 15.5 13.5 16.3438 13.5 17.375V19.625C13.5 20.7031 12.6562 21.5 11.625 21.5H9.375C8.29688 21.5 7.5 20.7031 7.5 19.625V17.375C7.5 16.3438 8.29688 15.5 9.375 15.5H11.625ZM11.625 17H9.375C9.14062 17 9 17.1875 9 17.375V19.625C9 19.8594 9.14062 20 9.375 20H11.625C11.8125 20 12 19.8594 12 19.625V17.375C12 17.1875 11.8125 17 11.625 17ZM15 2.375C15 1.34375 15.7969 0.5 16.875 0.5H19.125C20.1562 0.5 21 1.34375 21 2.375V4.625C21 5.70312 20.1562 6.5 19.125 6.5H16.875C15.7969 6.5 15 5.70312 15 4.625V2.375ZM16.5 2.375V4.625C16.5 4.85938 16.6406 5 16.875 5H19.125C19.3125 5 19.5 4.85938 19.5 4.625V2.375C19.5 2.1875 19.3125 2 19.125 2H16.875C16.6406 2 16.5 2.1875 16.5 2.375ZM19.125 8C20.1562 8 21 8.84375 21 9.875V12.125C21 13.2031 20.1562 14 19.125 14H16.875C15.7969 14 15 13.2031 15 12.125V9.875C15 8.84375 15.7969 8 16.875 8H19.125ZM19.125 9.5H16.875C16.6406 9.5 16.5 9.6875 16.5 9.875V12.125C16.5 12.3594 16.6406 12.5 16.875 12.5H19.125C19.3125 12.5 19.5 12.3594 19.5 12.125V9.875C19.5 9.6875 19.3125 9.5 19.125 9.5ZM15 17.375C15 16.3438 15.7969 15.5 16.875 15.5H19.125C20.1562 15.5 21 16.3438 21 17.375V19.625C21 20.7031 20.1562 21.5 19.125 21.5H16.875C15.7969 21.5 15 20.7031 15 19.625V17.375ZM16.5 17.375V19.625C16.5 19.8594 16.6406 20 16.875 20H19.125C19.3125 20 19.5 19.8594 19.5 19.625V17.375C19.5 17.1875 19.3125 17 19.125 17H16.875C16.6406 17 16.5 17.1875 16.5 17.375Z" fill="#333333"/>
</svg>
