<svg width="35" height="35" viewBox="0 0 35 35" fill="none" xmlns="http://www.w3.org/2000/svg">
<mask id="path-1-outside-1" maskUnits="userSpaceOnUse" x="1.18799" y="1.30664" width="33" height="33" fill="black">
<rect fill="white" x="1.18799" y="1.30664" width="33" height="33"/>
<path d="M23.3495 12.5335C23.3595 12.409 23.3664 12.3066 23.3696 12.2301C23.373 12.1496 23.3749 12.0383 23.3749 11.8927C23.3749 10.2247 22.8585 8.6506 21.9446 7.2641C21.0442 5.89799 19.7569 4.70787 18.194 3.78064C16.6311 4.70787 15.3436 5.89809 14.4431 7.2642C13.5291 8.65072 13.0125 10.2249 13.0125 11.8927C13.0125 12.0356 13.0145 12.1464 13.0179 12.2275C13.0216 12.3123 13.0295 12.4257 13.0406 12.5617C13.0606 12.8035 12.953 13.0262 12.7736 13.1633C11.8064 13.9595 11.0178 14.9624 10.4771 16.1031C9.95334 17.2081 9.66015 18.4464 9.66015 19.7554C9.66015 22.1119 10.6153 24.2456 12.1596 25.7898C13.7038 27.3341 15.8374 28.2893 18.194 28.2893C20.5505 28.2893 22.6842 27.3339 24.2284 25.7898C25.7726 24.2455 26.7279 22.1119 26.7279 19.7554H26.7305C26.7305 18.4504 26.4362 17.2118 25.9107 16.1032C25.3667 14.9554 24.5717 13.9471 23.5961 13.1484C23.4071 12.9937 23.3217 12.7593 23.3495 12.5335ZM24.7359 12.2838L24.7344 12.3173C25.7405 13.2027 26.5662 14.2912 27.1483 15.5191C27.7563 16.8018 28.0966 18.2383 28.0967 19.7554H28.0994C28.0994 22.4905 26.9904 24.9671 25.1982 26.7595C23.4057 28.552 20.9291 29.6608 18.194 29.6608C15.4587 29.6608 12.9822 28.5519 11.1899 26.7595C9.3975 24.9672 8.28866 22.4905 8.28866 19.7554C8.28866 18.2418 8.62988 16.8053 9.2395 15.519C9.82149 14.291 10.6472 13.2028 11.6531 12.3175L11.6517 12.2864C11.6447 12.1259 11.641 11.9936 11.641 11.8927C11.641 9.9532 12.2407 8.12412 13.3021 6.51414C14.3789 4.88065 15.9306 3.47855 17.8096 2.42441C18.0169 2.28442 18.2937 2.26332 18.5272 2.39311L18.194 2.99252L18.5262 2.39517C20.4286 3.45264 21.9991 4.8654 23.0856 6.51402C24.1468 8.12388 24.7464 9.95298 24.7464 11.8927C24.7464 11.9907 24.7426 12.1227 24.7359 12.2838ZM12.7736 13.1633C12.6729 13.2402 12.5497 13.2903 12.414 13.3015L12.7736 13.1633Z"/>
<path d="M6.11011 11.9426C5.94535 12.1073 5.83345 12.3099 5.77314 12.5316C5.74838 12.6226 5.73198 12.7172 5.72385 12.814C5.82072 12.8058 5.91543 12.7893 6.00658 12.7645C6.2282 12.7043 6.43069 12.5924 6.59533 12.4278C6.60496 12.4182 6.61482 12.4089 6.62491 12.3999C6.77282 12.2416 6.87486 12.0494 6.93208 11.839C6.95683 11.7479 6.97334 11.6533 6.98149 11.5564C6.8846 11.5646 6.79001 11.581 6.69886 11.6057C6.47736 11.666 6.27477 11.7779 6.11011 11.9426ZM4.4498 12.1727C4.57167 11.7245 4.80088 11.3123 5.14037 10.9728C5.47986 10.6333 5.89204 10.4043 6.34 10.2824C6.77741 10.1635 7.24863 10.1486 7.71735 10.2347C7.99974 10.2736 8.23926 10.4875 8.29682 10.7828C8.39062 11.2639 8.37753 11.7488 8.25542 12.1979C8.13916 12.6257 7.92315 13.0219 7.60487 13.3541C7.59238 13.369 7.57908 13.3836 7.56508 13.3975C7.22571 13.7369 6.81341 13.9661 6.36545 14.0879C5.92862 14.2067 5.45797 14.2216 4.98983 14.136C4.70675 14.0977 4.46655 13.8838 4.40865 13.588C4.31451 13.1071 4.3277 12.6218 4.4498 12.1727Z"/>
<path d="M5.19403 17.9401C5.63785 18.1276 6.00521 18.4225 6.28519 18.7897C6.56896 19.1621 6.76342 19.6065 6.85676 20.0856C6.91603 20.3893 6.76537 20.6853 6.50522 20.823C6.10851 21.0721 5.67328 21.2313 5.23071 21.2847C4.77393 21.3397 4.30729 21.2816 3.86311 21.0942C3.41916 20.9068 3.05181 20.6118 2.77194 20.2446C2.48921 19.8737 2.29499 19.4292 2.20085 18.9485C2.14352 18.6544 2.28238 18.3678 2.5275 18.2249C2.92982 17.9681 3.37389 17.804 3.82677 17.7496C4.28344 17.6944 4.74997 17.7525 5.19403 17.9401ZM5.19758 19.6201C5.05679 19.4354 4.87665 19.2891 4.66363 19.199C4.45095 19.1092 4.2198 19.0823 3.98751 19.1103C3.89407 19.1215 3.80062 19.142 3.70787 19.171C3.75167 19.2579 3.80235 19.3393 3.85955 19.4143C4.00024 19.599 4.18036 19.7454 4.3935 19.8353C4.60631 19.925 4.83757 19.952 5.06996 19.924C5.16342 19.9128 5.25662 19.8925 5.34914 19.8638C5.30524 19.7766 5.25468 19.6949 5.19758 19.6201Z"/>
<path d="M24.1449 30.5939C23.997 30.7525 23.8949 30.9446 23.8375 31.155C23.8331 31.1715 23.828 31.1882 23.8224 31.204C23.8046 31.2794 23.7927 31.3575 23.7863 31.4375C23.8839 31.4294 23.979 31.4129 24.0706 31.388C24.2923 31.3278 24.4947 31.2159 24.6594 31.0513C24.669 31.0416 24.6789 31.0324 24.689 31.0234C24.8369 30.865 24.939 30.6727 24.9964 30.4623C25.0211 30.3711 25.0376 30.2765 25.0458 30.1798C24.949 30.1879 24.8544 30.2043 24.7634 30.2291C24.5417 30.2894 24.3393 30.4013 24.1745 30.5661C24.1649 30.5757 24.155 30.585 24.1449 30.5939ZM22.5143 30.7956C22.6308 30.3679 22.8467 29.9724 23.1646 29.6402C23.1773 29.6252 23.1905 29.6105 23.2048 29.5963C23.5444 29.2567 23.9564 29.0276 24.4045 28.9057C24.8419 28.7868 25.3132 28.7719 25.7817 28.8582C26.0641 28.897 26.3037 29.111 26.3612 29.4063C26.455 29.8874 26.442 30.3721 26.3197 30.8211C26.2033 31.2493 25.9872 31.6455 25.6689 31.9776C25.6564 31.9925 25.6431 32.007 25.6291 32.021C25.2896 32.3605 24.8775 32.5896 24.4295 32.7114C23.9921 32.8302 23.5209 32.8451 23.0522 32.7592C22.7698 32.7203 22.5303 32.5063 22.4727 32.211C22.3843 31.7581 22.3925 31.2982 22.499 30.8655C22.5028 30.8422 22.508 30.8189 22.5143 30.7956Z"/>
<path d="M6.92776 27.1359C6.76312 27.3006 6.6511 27.5032 6.59079 27.7248C6.56602 27.8159 6.54963 27.9106 6.54148 28.0073C6.63837 27.9992 6.73296 27.9827 6.82411 27.9579C7.04745 27.8971 7.2504 27.7855 7.41436 27.6222C7.579 27.4576 7.68953 27.2537 7.74983 27.0322C7.77459 26.941 7.79099 26.8464 7.79925 26.7494C7.70226 26.7576 7.60755 26.7741 7.51629 26.7989C7.29247 26.8597 7.09 26.971 6.92776 27.1332L6.44288 26.6511L6.92776 27.1359ZM5.26744 27.366C5.38932 26.918 5.61829 26.5059 5.9579 26.1663C6.29957 25.8251 6.71232 25.5967 7.15741 25.4755C7.5923 25.3573 8.06043 25.3419 8.52639 25.4266C8.81257 25.4622 9.05632 25.6774 9.11445 25.9759L8.44143 26.1072L9.11377 25.9786C9.20733 26.4589 9.19494 26.9427 9.07317 27.3911C8.95131 27.8391 8.722 28.2513 8.38273 28.5906L7.89785 28.1057L8.37997 28.5906C8.03957 28.9308 7.62854 29.1601 7.18298 29.2812C6.74638 29.4 6.27595 29.4149 5.80781 29.3294C5.52462 29.2913 5.28419 29.0773 5.22629 28.7814C5.13216 28.3004 5.14533 27.815 5.26744 27.366Z"/>
<path d="M30.9294 17.5743L30.9293 17.5772C30.9196 17.5868 30.9098 17.5961 30.8997 17.6051C30.7518 17.7635 30.6496 17.9558 30.5924 18.1662C30.5677 18.2572 30.5513 18.3517 30.5431 18.4485C30.64 18.4403 30.7347 18.4238 30.8259 18.399C31.0475 18.3388 31.25 18.2269 31.4146 18.0623C31.4242 18.0527 31.4341 18.0434 31.4442 18.0344C31.5921 17.8759 31.6943 17.6837 31.7516 17.4733C31.7561 17.4568 31.7611 17.4402 31.7667 17.4244C31.7845 17.3489 31.7964 17.2707 31.8028 17.1908C31.7052 17.1989 31.6101 17.2154 31.5184 17.2403C31.2954 17.3009 31.0929 17.4119 30.9294 17.5743ZM29.2691 17.8073C29.3855 17.3796 29.6012 16.9836 29.9193 16.6515C29.9321 16.6363 29.9454 16.6214 29.9598 16.6072L30.4445 17.0922L29.9624 16.6073C30.3027 16.2672 30.7138 16.0381 31.1595 15.917C31.5942 15.7988 32.0624 15.7834 32.5284 15.868C32.8145 15.9037 33.0583 16.1189 33.1164 16.4174C33.2048 16.8702 33.1966 17.3301 33.0902 17.7628C33.0863 17.7861 33.0812 17.8095 33.0749 17.8328C32.9584 18.2605 32.7424 18.656 32.4245 18.9881C32.4119 19.0032 32.3986 19.0178 32.3844 19.032C32.0449 19.3715 31.6327 19.6006 31.1847 19.7224C30.7479 19.8412 30.2772 19.8561 29.8091 19.7705C29.526 19.7322 29.2858 19.5183 29.2279 19.2225C29.1338 18.7415 29.147 18.2563 29.2691 17.8073Z"/>
<path d="M31.4876 22.9534C31.9314 23.1409 32.2985 23.4357 32.5785 23.8028C32.862 24.1746 33.0566 24.619 33.1505 25.098C33.21 25.4017 33.0597 25.6979 32.7996 25.8357C32.4022 26.085 31.9667 26.2444 31.524 26.2976C31.0672 26.3525 30.6008 26.2945 30.1567 26.1071C29.7127 25.9195 29.3455 25.6247 29.0655 25.2576C28.7817 24.8856 28.5873 24.4412 28.4936 23.9622C28.4341 23.6582 28.585 23.3616 28.8457 23.2241C29.2426 22.9751 29.6779 22.816 30.1201 22.7628C30.5768 22.7079 31.0432 22.7658 31.4876 22.9534ZM31.4909 24.6332C31.3501 24.4486 31.1702 24.3023 30.9572 24.2123C30.7443 24.1225 30.5131 24.0956 30.2808 24.1235C30.1874 24.1348 30.0938 24.1549 30.0013 24.1837C30.0452 24.2709 30.096 24.3524 30.1531 24.4272C30.2939 24.6118 30.4739 24.7581 30.687 24.8481C30.8998 24.9379 31.131 24.9649 31.3633 24.9369C31.4567 24.9257 31.5502 24.9055 31.6427 24.8768C31.5988 24.7897 31.548 24.708 31.4909 24.6332Z"/>
<path d="M18.8795 17.2408C18.8795 16.8621 18.5725 16.5551 18.1938 16.5551C17.8151 16.5551 17.508 16.8621 17.508 17.2408V32.1263C17.508 32.505 17.8151 32.812 18.1938 32.812C18.5725 32.812 18.8795 32.505 18.8795 32.1263V17.2408Z"/>
<path d="M16.6214 23.4119C16.3537 23.1442 15.9194 23.1442 15.6517 23.4119C15.384 23.6796 15.384 24.1139 15.6517 24.3817L17.709 26.439C17.9768 26.7067 18.4111 26.7067 18.6788 26.439L20.7364 24.3817C21.0041 24.1139 21.0041 23.6796 20.7364 23.4119C20.4687 23.1442 20.0344 23.1442 19.7666 23.4119L18.1939 24.9844L16.6214 23.4119Z"/>
<path d="M16.6214 19.9817C16.3537 19.714 15.9194 19.714 15.6517 19.9817C15.384 20.2495 15.384 20.6838 15.6517 20.9515L17.709 23.0089C17.9768 23.2766 18.4111 23.2766 18.6788 23.0089L20.7364 20.9515C21.0041 20.6838 21.0041 20.2495 20.7364 19.9817C20.4687 19.714 20.0344 19.714 19.7666 19.9817L18.1939 21.5542L16.6214 19.9817Z"/>
</mask>
<path d="M23.3495 12.5335C23.3595 12.409 23.3664 12.3066 23.3696 12.2301C23.373 12.1496 23.3749 12.0383 23.3749 11.8927C23.3749 10.2247 22.8585 8.6506 21.9446 7.2641C21.0442 5.89799 19.7569 4.70787 18.194 3.78064C16.6311 4.70787 15.3436 5.89809 14.4431 7.2642C13.5291 8.65072 13.0125 10.2249 13.0125 11.8927C13.0125 12.0356 13.0145 12.1464 13.0179 12.2275C13.0216 12.3123 13.0295 12.4257 13.0406 12.5617C13.0606 12.8035 12.953 13.0262 12.7736 13.1633C11.8064 13.9595 11.0178 14.9624 10.4771 16.1031C9.95334 17.2081 9.66015 18.4464 9.66015 19.7554C9.66015 22.1119 10.6153 24.2456 12.1596 25.7898C13.7038 27.3341 15.8374 28.2893 18.194 28.2893C20.5505 28.2893 22.6842 27.3339 24.2284 25.7898C25.7726 24.2455 26.7279 22.1119 26.7279 19.7554H26.7305C26.7305 18.4504 26.4362 17.2118 25.9107 16.1032C25.3667 14.9554 24.5717 13.9471 23.5961 13.1484C23.4071 12.9937 23.3217 12.7593 23.3495 12.5335ZM24.7359 12.2838L24.7344 12.3173C25.7405 13.2027 26.5662 14.2912 27.1483 15.5191C27.7563 16.8018 28.0966 18.2383 28.0967 19.7554H28.0994C28.0994 22.4905 26.9904 24.9671 25.1982 26.7595C23.4057 28.552 20.9291 29.6608 18.194 29.6608C15.4587 29.6608 12.9822 28.5519 11.1899 26.7595C9.3975 24.9672 8.28866 22.4905 8.28866 19.7554C8.28866 18.2418 8.62988 16.8053 9.2395 15.519C9.82149 14.291 10.6472 13.2028 11.6531 12.3175L11.6517 12.2864C11.6447 12.1259 11.641 11.9936 11.641 11.8927C11.641 9.9532 12.2407 8.12412 13.3021 6.51414C14.3789 4.88065 15.9306 3.47855 17.8096 2.42441C18.0169 2.28442 18.2937 2.26332 18.5272 2.39311L18.194 2.99252L18.5262 2.39517C20.4286 3.45264 21.9991 4.8654 23.0856 6.51402C24.1468 8.12388 24.7464 9.95298 24.7464 11.8927C24.7464 11.9907 24.7426 12.1227 24.7359 12.2838ZM12.7736 13.1633C12.6729 13.2402 12.5497 13.2903 12.414 13.3015L12.7736 13.1633Z" fill="#8BC400"/>
<path d="M6.11011 11.9426C5.94535 12.1073 5.83345 12.3099 5.77314 12.5316C5.74838 12.6226 5.73198 12.7172 5.72385 12.814C5.82072 12.8058 5.91543 12.7893 6.00658 12.7645C6.2282 12.7043 6.43069 12.5924 6.59533 12.4278C6.60496 12.4182 6.61482 12.4089 6.62491 12.3999C6.77282 12.2416 6.87486 12.0494 6.93208 11.839C6.95683 11.7479 6.97334 11.6533 6.98149 11.5564C6.8846 11.5646 6.79001 11.581 6.69886 11.6057C6.47736 11.666 6.27477 11.7779 6.11011 11.9426ZM4.4498 12.1727C4.57167 11.7245 4.80088 11.3123 5.14037 10.9728C5.47986 10.6333 5.89204 10.4043 6.34 10.2824C6.77741 10.1635 7.24863 10.1486 7.71735 10.2347C7.99974 10.2736 8.23926 10.4875 8.29682 10.7828C8.39062 11.2639 8.37753 11.7488 8.25542 12.1979C8.13916 12.6257 7.92315 13.0219 7.60487 13.3541C7.59238 13.369 7.57908 13.3836 7.56508 13.3975C7.22571 13.7369 6.81341 13.9661 6.36545 14.0879C5.92862 14.2067 5.45797 14.2216 4.98983 14.136C4.70675 14.0977 4.46655 13.8838 4.40865 13.588C4.31451 13.1071 4.3277 12.6218 4.4498 12.1727Z" fill="#8BC400"/>
<path d="M5.19403 17.9401C5.63785 18.1276 6.00521 18.4225 6.28519 18.7897C6.56896 19.1621 6.76342 19.6065 6.85676 20.0856C6.91603 20.3893 6.76537 20.6853 6.50522 20.823C6.10851 21.0721 5.67328 21.2313 5.23071 21.2847C4.77393 21.3397 4.30729 21.2816 3.86311 21.0942C3.41916 20.9068 3.05181 20.6118 2.77194 20.2446C2.48921 19.8737 2.29499 19.4292 2.20085 18.9485C2.14352 18.6544 2.28238 18.3678 2.5275 18.2249C2.92982 17.9681 3.37389 17.804 3.82677 17.7496C4.28344 17.6944 4.74997 17.7525 5.19403 17.9401ZM5.19758 19.6201C5.05679 19.4354 4.87665 19.2891 4.66363 19.199C4.45095 19.1092 4.2198 19.0823 3.98751 19.1103C3.89407 19.1215 3.80062 19.142 3.70787 19.171C3.75167 19.2579 3.80235 19.3393 3.85955 19.4143C4.00024 19.599 4.18036 19.7454 4.3935 19.8353C4.60631 19.925 4.83757 19.952 5.06996 19.924C5.16342 19.9128 5.25662 19.8925 5.34914 19.8638C5.30524 19.7766 5.25468 19.6949 5.19758 19.6201Z" fill="#8BC400"/>
<path d="M24.1449 30.5939C23.997 30.7525 23.8949 30.9446 23.8375 31.155C23.8331 31.1715 23.828 31.1882 23.8224 31.204C23.8046 31.2794 23.7927 31.3575 23.7863 31.4375C23.8839 31.4294 23.979 31.4129 24.0706 31.388C24.2923 31.3278 24.4947 31.2159 24.6594 31.0513C24.669 31.0416 24.6789 31.0324 24.689 31.0234C24.8369 30.865 24.939 30.6727 24.9964 30.4623C25.0211 30.3711 25.0376 30.2765 25.0458 30.1798C24.949 30.1879 24.8544 30.2043 24.7634 30.2291C24.5417 30.2894 24.3393 30.4013 24.1745 30.5661C24.1649 30.5757 24.155 30.585 24.1449 30.5939ZM22.5143 30.7956C22.6308 30.3679 22.8467 29.9724 23.1646 29.6402C23.1773 29.6252 23.1905 29.6105 23.2048 29.5963C23.5444 29.2567 23.9564 29.0276 24.4045 28.9057C24.8419 28.7868 25.3132 28.7719 25.7817 28.8582C26.0641 28.897 26.3037 29.111 26.3612 29.4063C26.455 29.8874 26.442 30.3721 26.3197 30.8211C26.2033 31.2493 25.9872 31.6455 25.6689 31.9776C25.6564 31.9925 25.6431 32.007 25.6291 32.021C25.2896 32.3605 24.8775 32.5896 24.4295 32.7114C23.9921 32.8302 23.5209 32.8451 23.0522 32.7592C22.7698 32.7203 22.5303 32.5063 22.4727 32.211C22.3843 31.7581 22.3925 31.2982 22.499 30.8655C22.5028 30.8422 22.508 30.8189 22.5143 30.7956Z" fill="#8BC400"/>
<path d="M6.92776 27.1359C6.76312 27.3006 6.6511 27.5032 6.59079 27.7248C6.56602 27.8159 6.54963 27.9106 6.54148 28.0073C6.63837 27.9992 6.73296 27.9827 6.82411 27.9579C7.04745 27.8971 7.2504 27.7855 7.41436 27.6222C7.579 27.4576 7.68953 27.2537 7.74983 27.0322C7.77459 26.941 7.79099 26.8464 7.79925 26.7494C7.70226 26.7576 7.60755 26.7741 7.51629 26.7989C7.29247 26.8597 7.09 26.971 6.92776 27.1332L6.44288 26.6511L6.92776 27.1359ZM5.26744 27.366C5.38932 26.918 5.61829 26.5059 5.9579 26.1663C6.29957 25.8251 6.71232 25.5967 7.15741 25.4755C7.5923 25.3573 8.06043 25.3419 8.52639 25.4266C8.81257 25.4622 9.05632 25.6774 9.11445 25.9759L8.44143 26.1072L9.11377 25.9786C9.20733 26.4589 9.19494 26.9427 9.07317 27.3911C8.95131 27.8391 8.722 28.2513 8.38273 28.5906L7.89785 28.1057L8.37997 28.5906C8.03957 28.9308 7.62854 29.1601 7.18298 29.2812C6.74638 29.4 6.27595 29.4149 5.80781 29.3294C5.52462 29.2913 5.28419 29.0773 5.22629 28.7814C5.13216 28.3004 5.14533 27.815 5.26744 27.366Z" fill="#8BC400"/>
<path d="M30.9294 17.5743L30.9293 17.5772C30.9196 17.5868 30.9098 17.5961 30.8997 17.6051C30.7518 17.7635 30.6496 17.9558 30.5924 18.1662C30.5677 18.2572 30.5513 18.3517 30.5431 18.4485C30.64 18.4403 30.7347 18.4238 30.8259 18.399C31.0475 18.3388 31.25 18.2269 31.4146 18.0623C31.4242 18.0527 31.4341 18.0434 31.4442 18.0344C31.5921 17.8759 31.6943 17.6837 31.7516 17.4733C31.7561 17.4568 31.7611 17.4402 31.7667 17.4244C31.7845 17.3489 31.7964 17.2707 31.8028 17.1908C31.7052 17.1989 31.6101 17.2154 31.5184 17.2403C31.2954 17.3009 31.0929 17.4119 30.9294 17.5743ZM29.2691 17.8073C29.3855 17.3796 29.6012 16.9836 29.9193 16.6515C29.9321 16.6363 29.9454 16.6214 29.9598 16.6072L30.4445 17.0922L29.9624 16.6073C30.3027 16.2672 30.7138 16.0381 31.1595 15.917C31.5942 15.7988 32.0624 15.7834 32.5284 15.868C32.8145 15.9037 33.0583 16.1189 33.1164 16.4174C33.2048 16.8702 33.1966 17.3301 33.0902 17.7628C33.0863 17.7861 33.0812 17.8095 33.0749 17.8328C32.9584 18.2605 32.7424 18.656 32.4245 18.9881C32.4119 19.0032 32.3986 19.0178 32.3844 19.032C32.0449 19.3715 31.6327 19.6006 31.1847 19.7224C30.7479 19.8412 30.2772 19.8561 29.8091 19.7705C29.526 19.7322 29.2858 19.5183 29.2279 19.2225C29.1338 18.7415 29.147 18.2563 29.2691 17.8073Z" fill="#8BC400"/>
<path d="M31.4876 22.9534C31.9314 23.1409 32.2985 23.4357 32.5785 23.8028C32.862 24.1746 33.0566 24.619 33.1505 25.098C33.21 25.4017 33.0597 25.6979 32.7996 25.8357C32.4022 26.085 31.9667 26.2444 31.524 26.2976C31.0672 26.3525 30.6008 26.2945 30.1567 26.1071C29.7127 25.9195 29.3455 25.6247 29.0655 25.2576C28.7817 24.8856 28.5873 24.4412 28.4936 23.9622C28.4341 23.6582 28.585 23.3616 28.8457 23.2241C29.2426 22.9751 29.6779 22.816 30.1201 22.7628C30.5768 22.7079 31.0432 22.7658 31.4876 22.9534ZM31.4909 24.6332C31.3501 24.4486 31.1702 24.3023 30.9572 24.2123C30.7443 24.1225 30.5131 24.0956 30.2808 24.1235C30.1874 24.1348 30.0938 24.1549 30.0013 24.1837C30.0452 24.2709 30.096 24.3524 30.1531 24.4272C30.2939 24.6118 30.4739 24.7581 30.687 24.8481C30.8998 24.9379 31.131 24.9649 31.3633 24.9369C31.4567 24.9257 31.5502 24.9055 31.6427 24.8768C31.5988 24.7897 31.548 24.708 31.4909 24.6332Z" fill="#8BC400"/>
<path d="M18.8795 17.2408C18.8795 16.8621 18.5725 16.5551 18.1938 16.5551C17.8151 16.5551 17.508 16.8621 17.508 17.2408V32.1263C17.508 32.505 17.8151 32.812 18.1938 32.812C18.5725 32.812 18.8795 32.505 18.8795 32.1263V17.2408Z" fill="#8BC400"/>
<path d="M16.6214 23.4119C16.3537 23.1442 15.9194 23.1442 15.6517 23.4119C15.384 23.6796 15.384 24.1139 15.6517 24.3817L17.709 26.439C17.9768 26.7067 18.4111 26.7067 18.6788 26.439L20.7364 24.3817C21.0041 24.1139 21.0041 23.6796 20.7364 23.4119C20.4687 23.1442 20.0344 23.1442 19.7666 23.4119L18.1939 24.9844L16.6214 23.4119Z" fill="#8BC400"/>
<path d="M16.6214 19.9817C16.3537 19.714 15.9194 19.714 15.6517 19.9817C15.384 20.2495 15.384 20.6838 15.6517 20.9515L17.709 23.0089C17.9768 23.2766 18.4111 23.2766 18.6788 23.0089L20.7364 20.9515C21.0041 20.6838 21.0041 20.2495 20.7364 19.9817C20.4687 19.714 20.0344 19.714 19.7666 19.9817L18.1939 21.5542L16.6214 19.9817Z" fill="#8BC400"/>
<path d="M23.7896 13.3067L24.2235 12.7763L23.8366 12.4597L23.4026 12.9901L23.7896 13.3067ZM4.45667 13.8333L5.1297 13.7016L5.03365 13.2109L4.36063 13.3426L4.45667 13.8333ZM6.80885 19.8402L6.13651 19.9715L6.23232 20.4622L6.90466 20.3309L6.80885 19.8402ZM23.903 30.9137L23.2413 30.7343L23.1104 31.2169L23.7721 31.3963L23.903 30.9137ZM5.27431 29.0267L5.94734 28.895L5.85129 28.4043L5.17826 28.536L5.27431 29.0267ZM31.6861 17.7146L32.3478 17.894L32.4787 17.4115L31.817 17.232L31.6861 17.7146ZM29.2759 19.4678L29.949 19.3361L29.8529 18.8454L29.1799 18.9771L29.2759 19.4678ZM23.3495 12.5335L23.8457 12.5945L23.847 12.584L23.8479 12.5735L23.3495 12.5335ZM23.3696 12.2301L23.8692 12.2511L23.8692 12.2508L23.3696 12.2301ZM21.9446 7.2641L21.5271 7.53925L21.5271 7.53927L21.9446 7.2641ZM18.194 3.78064L18.4492 3.35063L18.194 3.19927L17.9389 3.35062L18.194 3.78064ZM14.4431 7.2642L14.8605 7.53939L14.8606 7.53938L14.4431 7.2642ZM13.0179 12.2275L12.5184 12.2488L12.5184 12.249L13.0179 12.2275ZM13.0406 12.5617L12.5423 12.6025L12.5423 12.6029L13.0406 12.5617ZM12.7736 13.1633L12.47 12.766L12.47 12.7661L12.7736 13.1633ZM10.4771 16.1031L10.0253 15.8889L10.0253 15.8889L10.4771 16.1031ZM12.1596 25.7898L12.5132 25.4362L12.5132 25.4362L12.1596 25.7898ZM24.2284 25.7898L24.582 26.1433L24.582 26.1433L24.2284 25.7898ZM26.7279 19.7554V19.2554H26.2279V19.7554H26.7279ZM26.7305 19.7554V20.2554H27.2305V19.7554H26.7305ZM25.9107 16.1032L25.4589 16.3173L25.4589 16.3173L25.9107 16.1032ZM23.5961 13.1484L23.9128 12.7615L23.9128 12.7615L23.5961 13.1484ZM24.7359 12.2838L25.2354 12.306L25.2354 12.3048L24.7359 12.2838ZM24.7344 12.3173L24.2349 12.295L24.2242 12.5343L24.404 12.6926L24.7344 12.3173ZM27.1483 15.5191L27.6001 15.3049V15.3049L27.1483 15.5191ZM28.0967 19.7554L27.5967 19.7554L27.5968 20.2554H28.0967V19.7554ZM28.0994 19.7554H28.5994V19.2554H28.0994V19.7554ZM25.1982 26.7595L25.5517 27.1131L25.5517 27.1131L25.1982 26.7595ZM11.1899 26.7595L11.5434 26.406L11.5434 26.406L11.1899 26.7595ZM9.2395 15.519L8.78767 15.3049L8.78767 15.3049L9.2395 15.519ZM11.6531 12.3175L11.9834 12.6928L12.1632 12.5347L12.1526 12.2955L11.6531 12.3175ZM11.6517 12.2864L11.1522 12.3082L11.1522 12.3085L11.6517 12.2864ZM13.3021 6.51414L13.7195 6.78934L13.7195 6.78934L13.3021 6.51414ZM17.8096 2.42441L18.0542 2.86047L18.0723 2.85035L18.0894 2.83877L17.8096 2.42441ZM18.5272 2.39311L18.9642 2.63603L19.2072 2.19898L18.7701 1.95607L18.5272 2.39311ZM18.194 2.99252L17.757 2.7496L18.631 3.2355L18.194 2.99252ZM18.5262 2.39517L18.7691 1.95815L18.3322 1.71525L18.0892 2.15219L18.5262 2.39517ZM23.0856 6.51402L22.6682 6.78917L22.6682 6.78919L23.0856 6.51402ZM6.11011 11.9426L5.75657 11.589L5.75656 11.589L6.11011 11.9426ZM5.77314 12.5316L5.29068 12.4003L5.29066 12.4004L5.77314 12.5316ZM5.72385 12.814L5.22561 12.7721L5.17605 13.3617L5.76568 13.3122L5.72385 12.814ZM6.00658 12.7645L6.13763 13.2471L6.13766 13.2471L6.00658 12.7645ZM6.59533 12.4278L6.24178 12.0742L6.24178 12.0742L6.59533 12.4278ZM6.62491 12.3999L6.9565 12.7742L6.97416 12.7585L6.99028 12.7413L6.62491 12.3999ZM6.93208 11.839L7.41455 11.9703L7.4146 11.9701L6.93208 11.839ZM6.98149 11.5564L7.47973 11.5983L7.52934 11.0086L6.93958 11.0582L6.98149 11.5564ZM6.69886 11.6057L6.56772 11.1232L6.56751 11.1233L6.69886 11.6057ZM4.4498 12.1727L3.96732 12.0415L3.96732 12.0415L4.4498 12.1727ZM5.14037 10.9728L4.78681 10.6193L5.14037 10.9728ZM6.34 10.2824L6.20885 9.7999L6.20875 9.79992L6.34 10.2824ZM7.71735 10.2347L7.627 10.7265L7.63806 10.7285L7.64919 10.73L7.71735 10.2347ZM8.29682 10.7828L7.80606 10.8785L7.80606 10.8785L8.29682 10.7828ZM8.25542 12.1979L7.77294 12.0667L7.77292 12.0668L8.25542 12.1979ZM7.60487 13.3541L7.24385 13.0082L7.23241 13.0201L7.22177 13.0328L7.60487 13.3541ZM7.56508 13.3975L7.21174 13.0438L7.21152 13.044L7.56508 13.3975ZM6.36545 14.0879L6.2343 13.6054L6.23425 13.6054L6.36545 14.0879ZM4.98983 14.136L5.0797 13.6442L5.06832 13.6421L5.05686 13.6405L4.98983 14.136ZM4.40865 13.588L4.89934 13.4919L4.89933 13.4919L4.40865 13.588ZM5.19403 17.9401L4.99937 18.4007L4.99948 18.4007L5.19403 17.9401ZM6.28519 18.7897L6.68289 18.4867L6.68281 18.4866L6.28519 18.7897ZM6.85676 20.0856L6.36599 20.1812L6.36602 20.1813L6.85676 20.0856ZM6.50522 20.823L6.27131 20.3811L6.25501 20.3897L6.23938 20.3995L6.50522 20.823ZM5.23071 21.2847L5.2904 21.7812L5.29064 21.7811L5.23071 21.2847ZM3.86311 21.0942L4.05752 20.6335L4.0575 20.6335L3.86311 21.0942ZM2.77194 20.2446L3.16962 19.9415L3.16958 19.9415L2.77194 20.2446ZM2.20085 18.9485L1.71008 19.0442L1.71017 19.0446L2.20085 18.9485ZM2.5275 18.2249L2.77926 18.6569L2.78801 18.6518L2.79654 18.6464L2.5275 18.2249ZM3.82677 17.7496L3.88646 18.246L3.88673 18.246L3.82677 17.7496ZM5.19758 19.6201L4.79994 19.9232L4.8 19.9233L5.19758 19.6201ZM4.66363 19.199L4.46898 19.6596L4.46903 19.6596L4.66363 19.199ZM3.98751 19.1103L4.04713 19.6067L4.04731 19.6067L3.98751 19.1103ZM3.70787 19.171L3.5586 18.6938L2.9961 18.8697L3.26138 19.396L3.70787 19.171ZM3.85955 19.4143L4.25732 19.1113L4.25707 19.111L3.85955 19.4143ZM4.3935 19.8353L4.58787 19.3746L4.58779 19.3745L4.3935 19.8353ZM5.06996 19.924L5.01027 19.4276L5.01022 19.4276L5.06996 19.924ZM5.34914 19.8638L5.49713 20.3414L6.06127 20.1666L5.79578 19.639L5.34914 19.8638ZM24.1449 30.5939L23.813 30.22L23.7954 30.2356L23.7793 30.2529L24.1449 30.5939ZM23.8375 31.155L23.3551 31.0236L23.355 31.0241L23.8375 31.155ZM23.8224 31.204L23.3511 31.037L23.342 31.0628L23.3357 31.0893L23.8224 31.204ZM23.7863 31.4375L23.2879 31.3976L23.2408 31.9847L23.8278 31.9358L23.7863 31.4375ZM24.0706 31.388L24.2017 31.8705L24.2017 31.8705L24.0706 31.388ZM24.6594 31.0513L24.3058 30.6977L24.3058 30.6977L24.6594 31.0513ZM24.689 31.0234L25.0206 31.3976L25.0383 31.3819L25.0545 31.3646L24.689 31.0234ZM24.9964 30.4623L25.4788 30.5938L25.4789 30.5933L24.9964 30.4623ZM25.0458 30.1798L25.544 30.2217L25.5937 29.6319L25.0038 29.6815L25.0458 30.1798ZM24.7634 30.2291L24.8947 30.7115L24.8947 30.7115L24.7634 30.2291ZM24.1745 30.5661L24.5281 30.9196L24.1745 30.5661ZM22.5143 30.7956L22.0319 30.6642L22.0317 30.6647L22.5143 30.7956ZM23.1646 29.6402L23.5258 29.986L23.5372 29.9741L23.5477 29.9616L23.1646 29.6402ZM23.2048 29.5963L22.8512 29.2427L22.8512 29.2427L23.2048 29.5963ZM24.4045 28.9057L24.2734 28.4232L24.2733 28.4233L24.4045 28.9057ZM25.7817 28.8582L25.6913 29.3499L25.7024 29.3519L25.7136 29.3535L25.7817 28.8582ZM26.3612 29.4063L25.8704 29.5019L25.8704 29.502L26.3612 29.4063ZM26.3197 30.8211L25.8373 30.6897L25.8372 30.69L26.3197 30.8211ZM25.6689 31.9776L25.308 31.6316L25.2965 31.6435L25.2859 31.6562L25.6689 31.9776ZM25.6291 32.021L25.9827 32.3746L25.9829 32.3744L25.6291 32.021ZM24.4295 32.7114L24.5606 33.1939L24.5607 33.1938L24.4295 32.7114ZM23.0522 32.7592L23.1424 32.2674L23.1314 32.2653L23.1203 32.2638L23.0522 32.7592ZM22.4727 32.211L22.9635 32.1153L22.9634 32.1152L22.4727 32.211ZM22.499 30.8655L22.9845 30.9849L22.989 30.9666L22.9921 30.948L22.499 30.8655ZM6.92776 27.1359L7.28133 27.4895L7.63485 27.1359L7.28131 26.7824L6.92776 27.1359ZM6.59079 27.7248L7.07325 27.8561L7.07325 27.8561L6.59079 27.7248ZM6.54148 28.0073L6.04325 27.9654L5.99358 28.5551L6.5833 28.5056L6.54148 28.0073ZM6.82411 27.9579L6.95517 28.4404L6.95539 28.4404L6.82411 27.9579ZM7.41436 27.6222L7.76717 27.9765L7.76791 27.9757L7.41436 27.6222ZM7.74983 27.0322L8.23227 27.1635L8.23235 27.1632L7.74983 27.0322ZM7.79925 26.7494L8.29745 26.7918L8.34766 26.2016L7.75738 26.2512L7.79925 26.7494ZM7.51629 26.7989L7.38529 26.3163L7.38506 26.3164L7.51629 26.7989ZM6.92776 27.1332L6.57522 27.4878L6.92877 27.8393L7.28132 27.4867L6.92776 27.1332ZM6.44288 26.6511L6.79542 26.2965L6.08933 27.0046L6.44288 26.6511ZM5.26744 27.366L4.78498 27.2347L4.78496 27.2348L5.26744 27.366ZM5.9579 26.1663L5.60458 25.8125L5.60434 25.8128L5.9579 26.1663ZM7.15741 25.4755L7.02626 24.993L7.02605 24.9931L7.15741 25.4755ZM8.52639 25.4266L8.43705 25.9185L8.45075 25.921L8.46458 25.9227L8.52639 25.4266ZM9.11445 25.9759L9.21018 26.4666L9.7008 26.3709L9.60523 25.8803L9.11445 25.9759ZM8.44143 26.1072L8.3457 25.6164L8.53532 26.5983L8.44143 26.1072ZM9.11377 25.9786L9.60455 25.883L9.50928 25.3939L9.01988 25.4875L9.11377 25.9786ZM9.07317 27.3911L9.55565 27.5223L9.55569 27.5221L9.07317 27.3911ZM8.38273 28.5906L8.02919 28.9441L8.38273 29.2977L8.73628 28.9441L8.38273 28.5906ZM7.89785 28.1057L8.2514 27.7521L7.5433 28.4583L7.89785 28.1057ZM8.37997 28.5906L8.73342 28.9442L9.08618 28.5917L8.73453 28.238L8.37997 28.5906ZM7.18298 29.2812L7.05176 28.7988L7.05173 28.7988L7.18298 29.2812ZM5.80781 29.3294L5.89768 28.8375L5.8861 28.8354L5.87443 28.8339L5.80781 29.3294ZM5.22629 28.7814L5.71698 28.6853L5.71698 28.6853L5.22629 28.7814ZM30.9294 17.5743L30.577 17.2197L30.4367 17.359L30.4297 17.5565L30.9294 17.5743ZM30.9293 17.5772L31.2825 17.9311L31.4219 17.7919L31.429 17.595L30.9293 17.5772ZM30.8997 17.6051L30.5678 17.2311L30.5502 17.2467L30.5342 17.2639L30.8997 17.6051ZM30.5924 18.1662L30.1099 18.035L30.1099 18.035L30.5924 18.1662ZM30.5431 18.4485L30.0449 18.4066L29.9953 18.9963L30.585 18.9467L30.5431 18.4485ZM30.8259 18.399L30.9569 18.8816L30.9569 18.8816L30.8259 18.399ZM31.4146 18.0623L31.7682 18.4159L31.7685 18.4155L31.4146 18.0623ZM31.4442 18.0344L31.7758 18.4087L31.7936 18.3929L31.8098 18.3755L31.4442 18.0344ZM31.7516 17.4733L32.234 17.6047L32.2341 17.6042L31.7516 17.4733ZM31.7667 17.4244L32.2379 17.5915L32.2471 17.5657L32.2534 17.539L31.7667 17.4244ZM31.8028 17.1908L32.3012 17.2308L32.3484 16.6435L31.7612 16.6925L31.8028 17.1908ZM31.5184 17.2403L31.6494 17.7229L31.6498 17.7228L31.5184 17.2403ZM29.2691 17.8073L28.7866 17.676L28.7866 17.6761L29.2691 17.8073ZM29.9193 16.6515L30.2804 16.9973L30.291 16.9863L30.3008 16.9747L29.9193 16.6515ZM29.9598 16.6072L30.3134 16.2537L29.9613 15.9015L29.6077 16.2522L29.9598 16.6072ZM30.4445 17.0922L30.0909 17.4457L30.7991 16.7396L30.4445 17.0922ZM29.9624 16.6073L29.6089 16.2537L29.2562 16.6063L29.6078 16.9599L29.9624 16.6073ZM31.1595 15.917L31.2906 16.3995L31.2907 16.3995L31.1595 15.917ZM32.5284 15.868L32.439 16.36L32.4527 16.3625L32.4665 16.3642L32.5284 15.868ZM33.1164 16.4174L32.6257 16.5129L32.6257 16.5131L33.1164 16.4174ZM33.0902 17.7628L32.6046 17.6434L32.6001 17.6617L32.597 17.6803L33.0902 17.7628ZM33.0749 17.8328L33.5574 17.9641L33.5576 17.9634L33.0749 17.8328ZM32.4245 18.9881L32.0633 18.6424L32.0521 18.6541L32.0416 18.6665L32.4245 18.9881ZM32.3844 19.032L32.7379 19.3856L32.3844 19.032ZM31.1847 19.7224L31.0536 19.2399L31.0535 19.2399L31.1847 19.7224ZM29.8091 19.7705L29.899 19.2787L29.8876 19.2766L29.8761 19.2751L29.8091 19.7705ZM29.2279 19.2225L28.7372 19.3185L28.7372 19.3185L29.2279 19.2225ZM31.4876 22.9534L31.6822 22.4928L31.682 22.4927L31.4876 22.9534ZM32.5785 23.8028L32.1809 24.106L32.181 24.1061L32.5785 23.8028ZM33.1505 25.098L33.6412 25.0018L33.6412 25.0018L33.1505 25.098ZM32.7996 25.8357L32.5655 25.3938L32.5493 25.4024L32.5338 25.4121L32.7996 25.8357ZM31.524 26.2976L31.4644 25.8012L31.4643 25.8012L31.524 26.2976ZM30.1567 26.1071L29.9621 26.5676L29.9622 26.5677L30.1567 26.1071ZM29.0655 25.2576L29.4631 24.9544L29.463 24.9543L29.0655 25.2576ZM28.4936 23.9622L28.9843 23.8663L28.9843 23.8662L28.4936 23.9622ZM28.8457 23.2241L29.0791 23.6663L29.0955 23.6576L29.1113 23.6477L28.8457 23.2241ZM30.1201 22.7628L30.0604 22.2664L30.0604 22.2664L30.1201 22.7628ZM31.4909 24.6332L31.8885 24.33L31.8885 24.3299L31.4909 24.6332ZM30.9572 24.2123L31.1518 23.7517L31.1514 23.7515L30.9572 24.2123ZM30.2808 24.1235L30.3405 24.6199L30.3406 24.6199L30.2808 24.1235ZM30.0013 24.1837L29.8527 23.7063L29.2892 23.8817L29.5548 24.4087L30.0013 24.1837ZM30.1531 24.4272L30.5507 24.124L30.5507 24.124L30.1531 24.4272ZM30.687 24.8481L30.4925 25.3088L30.4927 25.3088L30.687 24.8481ZM31.3633 24.9369L31.3037 24.4404L31.3035 24.4405L31.3633 24.9369ZM31.6427 24.8768L31.7906 25.3544L32.3552 25.1796L32.0892 24.6518L31.6427 24.8768ZM16.6214 23.4119L16.975 23.0584L16.975 23.0584L16.6214 23.4119ZM15.6517 23.4119L16.0052 23.7655L16.0053 23.7655L15.6517 23.4119ZM15.6517 24.3817L16.0052 24.0281L15.6517 24.3817ZM17.709 26.439L17.3555 26.7926L17.709 26.439ZM18.6788 26.439L18.3253 26.0854L18.3252 26.0855L18.6788 26.439ZM20.7364 24.3817L21.0899 24.7352L21.0899 24.7352L20.7364 24.3817ZM20.7364 23.4119L20.3828 23.7655L20.3828 23.7655L20.7364 23.4119ZM19.7666 23.4119L20.1202 23.7655L20.1202 23.7655L19.7666 23.4119ZM18.1939 24.9844L17.8404 25.3379L18.1939 25.6915L18.5474 25.338L18.1939 24.9844ZM16.6214 19.9817L16.975 19.6282L16.975 19.6282L16.6214 19.9817ZM15.6517 19.9817L16.0052 20.3353L16.0053 20.3353L15.6517 19.9817ZM15.6517 20.9515L15.2981 21.3051L15.2981 21.3051L15.6517 20.9515ZM17.709 23.0089L17.3555 23.3624L17.709 23.0089ZM18.6788 23.0089L18.3253 22.6553L18.3252 22.6553L18.6788 23.0089ZM20.7364 20.9515L21.0899 21.3051L21.0899 21.3051L20.7364 20.9515ZM20.7364 19.9817L21.0899 19.6282L21.0899 19.6282L20.7364 19.9817ZM19.7666 19.9817L20.1202 20.3353L20.1202 20.3353L19.7666 19.9817ZM18.1939 21.5542L17.8404 21.9078L18.1939 22.2613L18.5474 21.9078L18.1939 21.5542ZM23.8479 12.5735C23.858 12.4471 23.8656 12.3372 23.8692 12.2511L22.8701 12.2092C22.8673 12.276 22.8609 12.3709 22.8511 12.4935L23.8479 12.5735ZM23.8692 12.2508C23.8729 12.1607 23.8749 12.0419 23.8749 11.8927H22.8749C22.8749 12.0348 22.873 12.1385 22.8701 12.2095L23.8692 12.2508ZM23.8749 11.8927C23.8749 10.1182 23.3248 8.44955 22.3621 6.98892L21.5271 7.53927C22.3922 8.85166 22.8749 10.3312 22.8749 11.8927H23.8749ZM22.3621 6.98894C21.415 5.5519 20.0687 4.31153 18.4492 3.35063L17.9389 4.21066C19.445 5.10422 20.6735 6.24408 21.5271 7.53925L22.3621 6.98894ZM17.9389 3.35062C16.3192 4.31152 14.9729 5.55199 14.0256 6.98902L14.8606 7.53938C15.7143 6.24419 16.9429 5.10423 18.4491 4.21067L17.9389 3.35062ZM14.0256 6.989C13.0628 8.44964 12.5125 10.1184 12.5125 11.8927H13.5125C13.5125 10.3315 13.9954 8.8518 14.8605 7.53939L14.0256 6.989ZM12.5125 11.8927C12.5125 12.0391 12.5145 12.1578 12.5184 12.2488L13.5175 12.2063C13.5145 12.1351 13.5125 12.032 13.5125 11.8927H12.5125ZM12.5184 12.249C12.5225 12.3437 12.531 12.4647 12.5423 12.6025L13.539 12.521C13.528 12.3868 13.5207 12.281 13.5175 12.206L12.5184 12.249ZM12.5423 12.6029C12.5477 12.6684 12.5193 12.7283 12.47 12.766L13.0772 13.5606C13.3867 13.324 13.5734 12.9386 13.5389 12.5206L12.5423 12.6029ZM12.4558 12.7773C11.4327 13.6195 10.5979 14.6807 10.0253 15.8889L10.9289 16.3172C11.4376 15.244 12.1801 14.2995 13.0914 13.5494L12.4558 12.7773ZM10.0253 15.8889C9.47036 17.0597 9.16015 18.371 9.16015 19.7554H10.1602C10.1602 18.5217 10.4363 17.3565 10.9289 16.3172L10.0253 15.8889ZM9.16015 19.7554C9.16015 22.2498 10.1718 24.5092 11.8061 26.1433L12.5132 25.4362C11.0588 23.982 10.1602 21.974 10.1602 19.7554H9.16015ZM11.8061 26.1433C13.4402 27.7776 15.6995 28.7893 18.194 28.7893V27.7893C15.9753 27.7893 13.9674 26.8906 12.5132 25.4362L11.8061 26.1433ZM18.194 28.7893C20.6885 28.7893 22.9478 27.7774 24.582 26.1433L23.8749 25.4362C22.4206 26.8904 20.4126 27.7893 18.194 27.7893V28.7893ZM24.582 26.1433C26.2161 24.5091 27.2279 22.2498 27.2279 19.7554H26.2279C26.2279 21.9739 25.3291 23.9819 23.8749 25.4362L24.582 26.1433ZM26.7279 20.2554H26.7305V19.2554H26.7279V20.2554ZM27.2305 19.7554C27.2305 18.3745 26.919 17.0629 26.3626 15.889L25.4589 16.3173C25.9535 17.3606 26.2305 18.5263 26.2305 19.7554H27.2305ZM26.3626 15.889C25.7863 14.6734 24.9448 13.6064 23.9128 12.7615L23.2794 13.5353C24.1986 14.2878 24.947 15.2374 25.4589 16.3173L26.3626 15.889ZM23.9128 12.7615C23.8616 12.7196 23.8381 12.6566 23.8457 12.5945L22.8532 12.4725C22.8053 12.8619 22.9527 13.2679 23.2794 13.5353L23.9128 12.7615ZM24.2364 12.2615L24.2349 12.295L25.2339 12.3395L25.2354 12.306L24.2364 12.2615ZM24.404 12.6926C25.3596 13.5336 26.1438 14.5673 26.6965 15.7333L27.6001 15.3049C26.9887 14.015 26.1214 12.8719 25.0647 11.9419L24.404 12.6926ZM26.6965 15.7333C27.2734 16.9502 27.5966 18.3137 27.5967 19.7554L28.5967 19.7553C28.5966 18.1628 28.2393 16.6533 27.6001 15.3049L26.6965 15.7333ZM28.0967 20.2554H28.0994V19.2554H28.0967V20.2554ZM27.5994 19.7554C27.5994 22.3525 26.547 24.7035 24.8446 26.406L25.5517 27.1131C27.4339 25.2307 28.5994 22.6284 28.5994 19.7554H27.5994ZM24.8446 26.406C23.142 28.1085 20.7912 29.1608 18.194 29.1608V30.1608C21.067 30.1608 23.6693 28.9955 25.5517 27.1131L24.8446 26.406ZM18.194 29.1608C15.5967 29.1608 13.2458 28.1084 11.5434 26.406L10.8363 27.1131C12.7186 28.9954 15.3208 30.1608 18.194 30.1608V29.1608ZM11.5434 26.406C9.84099 24.7036 8.78866 22.3525 8.78866 19.7554H7.78866C7.78866 22.6284 8.954 25.2309 10.8363 27.1131L11.5434 26.406ZM8.78866 19.7554C8.78866 18.3177 9.11265 16.9542 9.69132 15.7331L8.78767 15.3049C8.14712 16.6565 7.78866 18.1659 7.78866 19.7554H8.78866ZM9.69132 15.7331C10.2439 14.5672 11.0281 13.5336 11.9834 12.6928L11.3228 11.9422C10.2663 12.8719 9.39905 14.0149 8.78767 15.3049L9.69132 15.7331ZM12.1526 12.2955L12.1512 12.2644L11.1522 12.3085L11.1536 12.3396L12.1526 12.2955ZM12.1512 12.2647C12.1444 12.1073 12.141 11.9831 12.141 11.8927H11.141C11.141 12.004 11.1451 12.1445 11.1522 12.3082L12.1512 12.2647ZM12.141 11.8927C12.141 10.0596 12.7071 8.32506 13.7195 6.78934L12.8846 6.23894C11.7743 7.92318 11.141 9.84685 11.141 11.8927H12.141ZM13.7195 6.78934C14.7475 5.22991 16.2367 3.88014 18.0542 2.86047L17.565 1.98834C15.6245 3.07696 14.0103 4.5314 12.8846 6.23895L13.7195 6.78934ZM18.0894 2.83877C18.1467 2.80008 18.2217 2.79534 18.2843 2.83015L18.7701 1.95607C18.3657 1.73129 17.8871 1.76876 17.5298 2.01004L18.0894 2.83877ZM18.0902 2.15019L17.757 2.7496L18.6311 3.23543L18.9642 2.63603L18.0902 2.15019ZM18.631 3.2355L18.9632 2.63815L18.0892 2.15219L17.7571 2.74953L18.631 3.2355ZM18.2833 2.83219C20.1236 3.8552 21.6309 5.21534 22.6682 6.78917L23.5031 6.23887C22.3673 4.51546 20.7335 3.05008 18.7691 1.95815L18.2833 2.83219ZM22.6682 6.78919C23.6804 8.3248 24.2464 10.0593 24.2464 11.8927H25.2464C25.2464 9.84664 24.6132 7.92297 23.5031 6.23885L22.6682 6.78919ZM24.2464 11.8927C24.2464 11.9801 24.243 12.1038 24.2363 12.2628L25.2354 12.3048C25.2423 12.1416 25.2464 12.0014 25.2464 11.8927H24.2464ZM12.47 12.7661C12.4429 12.7867 12.4102 12.8001 12.3731 12.8031L12.4549 13.7998C12.6891 13.7806 12.903 13.6937 13.0772 13.5606L12.47 12.7661ZM5.75656 11.589C5.52555 11.82 5.37207 12.1012 5.29068 12.4003L6.2556 12.6628C6.29482 12.5187 6.36514 12.3946 6.46366 12.2961L5.75656 11.589ZM5.29066 12.4004C5.25758 12.522 5.23615 12.6466 5.22561 12.7721L6.22209 12.8558C6.22781 12.7878 6.23919 12.7232 6.25562 12.6628L5.29066 12.4004ZM5.76568 13.3122C5.89167 13.3016 6.01629 13.28 6.13763 13.2471L5.87553 12.282C5.81456 12.2986 5.74977 12.31 5.68202 12.3157L5.76568 13.3122ZM6.13766 13.2471C6.43697 13.1657 6.71804 13.0122 6.94889 12.7814L6.24178 12.0742C6.14334 12.1727 6.01944 12.2429 5.8755 12.282L6.13766 13.2471ZM6.94888 12.7814C6.95158 12.7787 6.95412 12.7763 6.9565 12.7742L6.29332 12.0257C6.27552 12.0415 6.25834 12.0577 6.24178 12.0742L6.94888 12.7814ZM6.99028 12.7413C7.19866 12.5182 7.33795 12.2519 7.41455 11.9703L6.4496 11.7078C6.41176 11.847 6.34698 11.965 6.25954 12.0586L6.99028 12.7413ZM7.4146 11.9701C7.44755 11.8488 7.46913 11.7243 7.47973 11.5983L6.48325 11.5145C6.47754 11.5823 6.46612 11.647 6.44956 11.708L7.4146 11.9701ZM6.93958 11.0582C6.81403 11.0687 6.6895 11.0901 6.56772 11.1232L6.83 12.0882C6.89053 12.0718 6.95517 12.0604 7.0234 12.0547L6.93958 11.0582ZM6.56751 11.1233C6.26858 11.2047 5.98747 11.3581 5.75657 11.589L6.46365 12.2961C6.56206 12.1977 6.68613 12.1274 6.83021 12.0882L6.56751 11.1233ZM4.93229 12.3039C5.03256 11.9351 5.2194 11.6009 5.49392 11.3264L4.78681 10.6193C4.38236 11.0237 4.11078 11.5139 3.96732 12.0415L4.93229 12.3039ZM5.49392 11.3264C5.76841 11.0519 6.10259 10.8651 6.47126 10.7649L6.20875 9.79992C5.68149 9.94336 5.19131 10.2148 4.78681 10.6193L5.49392 11.3264ZM6.47116 10.7649C6.83117 10.667 7.22641 10.6529 7.627 10.7265L7.8077 9.74292C7.27086 9.6443 6.72365 9.65996 6.20885 9.7999L6.47116 10.7649ZM7.64919 10.73C7.72634 10.7406 7.79066 10.7995 7.80606 10.8785L8.78759 10.6872C8.68785 10.1755 8.27314 9.80646 7.78552 9.73936L7.64919 10.73ZM7.80606 10.8785C7.88623 11.2897 7.87355 11.6967 7.77294 12.0667L8.7379 12.3291C8.88151 11.801 8.89501 11.2382 8.78758 10.6872L7.80606 10.8785ZM7.77292 12.0668C7.67755 12.4177 7.5017 12.7391 7.24385 13.0082L7.96588 13.7C8.34461 13.3048 8.60077 12.8337 8.73792 12.329L7.77292 12.0668ZM7.22177 13.0328C7.21835 13.0369 7.21495 13.0406 7.21174 13.0438L7.91842 13.7513C7.94321 13.7265 7.96641 13.7011 7.98796 13.6754L7.22177 13.0328ZM7.21152 13.044C6.93715 13.3184 6.60287 13.5052 6.2343 13.6054L6.49659 14.5704C7.02394 14.427 7.51427 14.1555 7.91864 13.7511L7.21152 13.044ZM6.23425 13.6054C5.87483 13.7031 5.48001 13.7173 5.0797 13.6442L4.89997 14.6279C5.43592 14.7258 5.98242 14.7102 6.49664 14.5704L6.23425 13.6054ZM5.05686 13.6405C4.97937 13.6301 4.91485 13.5712 4.89934 13.4919L3.91796 13.684C4.01826 14.1964 4.43414 14.5654 4.9228 14.6315L5.05686 13.6405ZM4.89933 13.4919C4.81895 13.0813 4.83165 12.674 4.93229 12.3039L3.96732 12.0415C3.82374 12.5696 3.81007 13.1329 3.91796 13.684L4.89933 13.4919ZM4.99948 18.4007C5.3594 18.5528 5.65795 18.7917 5.88758 19.0929L6.68281 18.4866C6.35247 18.0533 5.91631 17.7024 5.38857 17.4795L4.99948 18.4007ZM5.8875 19.0928C6.12181 19.4003 6.28639 19.7727 6.36599 20.1812L7.34753 19.9899C7.24045 19.4404 7.01611 18.924 6.68289 18.4867L5.8875 19.0928ZM6.36602 20.1813C6.38203 20.2634 6.34169 20.3438 6.27131 20.3811L6.73913 21.2649C7.18906 21.0268 7.45004 20.5152 7.3475 19.9898L6.36602 20.1813ZM6.23938 20.3995C5.90037 20.6124 5.53484 20.7444 5.17078 20.7883L5.29064 21.7811C5.81173 21.7182 6.31665 21.5317 6.77106 21.2465L6.23938 20.3995ZM5.17102 20.7883C4.79706 20.8333 4.41832 20.7858 4.05752 20.6335L3.66869 21.5548C4.19626 21.7775 4.7508 21.846 5.2904 21.7812L5.17102 20.7883ZM4.0575 20.6335C3.69762 20.4816 3.39914 20.2427 3.16962 19.9415L2.37426 20.5476C2.70449 20.981 3.1407 21.332 3.66871 21.5548L4.0575 20.6335ZM3.16958 19.9415C2.93663 19.6359 2.77202 19.2634 2.69152 18.8524L1.71017 19.0446C1.81796 19.5949 2.04178 20.1115 2.3743 20.5477L3.16958 19.9415ZM2.69161 18.8529C2.676 18.7728 2.71334 18.6954 2.77926 18.6569L2.27575 17.7929C1.85141 18.0402 1.61105 18.5361 1.71008 19.0442L2.69161 18.8529ZM2.79654 18.6464C3.14007 18.4271 3.51321 18.2909 3.88646 18.246L3.76708 17.2532C3.23457 17.3172 2.71958 17.5091 2.25846 17.8035L2.79654 18.6464ZM3.88673 18.246C4.26038 18.2008 4.63882 18.2483 4.99937 18.4007L5.38868 17.4796C4.86112 17.2566 4.3065 17.188 3.76681 17.2532L3.88673 18.246ZM5.59522 19.3169C5.40663 19.0695 5.15878 18.8655 4.85823 18.7385L4.46903 19.6596C4.59452 19.7127 4.70694 19.8012 4.79994 19.9232L5.59522 19.3169ZM4.85828 18.7385C4.55712 18.6112 4.23716 18.5766 3.92771 18.6139L4.04731 19.6067C4.20244 19.588 4.34478 19.6071 4.46898 19.6596L4.85828 18.7385ZM3.9279 18.6139C3.80233 18.629 3.67889 18.6561 3.5586 18.6938L3.85713 19.6482C3.92235 19.6278 3.98581 19.6141 4.04713 19.6067L3.9279 18.6139ZM3.26138 19.396C3.31846 19.5093 3.38534 19.617 3.46203 19.7175L4.25707 19.111C4.21936 19.0615 4.18488 19.0065 4.15435 18.9459L3.26138 19.396ZM3.46179 19.7172C3.65026 19.9647 3.8982 20.169 4.19922 20.296L4.58779 19.3745C4.46251 19.3217 4.35023 19.2333 4.25732 19.1113L3.46179 19.7172ZM4.19914 20.2959C4.50013 20.4229 4.82004 20.4577 5.1297 20.4204L5.01022 19.4276C4.8551 19.4463 4.71248 19.4272 4.58787 19.3746L4.19914 20.2959ZM5.12966 20.4204C5.2549 20.4054 5.37764 20.3784 5.49713 20.3414L5.20116 19.3862C5.13559 19.4065 5.07193 19.4202 5.01027 19.4276L5.12966 20.4204ZM5.79578 19.639C5.73891 19.526 5.67221 19.4179 5.59516 19.3169L4.8 19.9233C4.83715 19.972 4.87157 20.0271 4.90251 20.0886L5.79578 19.639ZM23.7793 30.2529C23.5713 30.4759 23.4319 30.7419 23.3551 31.0236L24.32 31.2865C24.3579 31.1474 24.4228 31.0291 24.5106 30.935L23.7793 30.2529ZM23.355 31.0241C23.353 31.0314 23.3516 31.0356 23.3511 31.037L24.2937 31.371C24.3044 31.3407 24.3131 31.3117 24.3201 31.286L23.355 31.0241ZM23.3357 31.0893C23.3118 31.1911 23.2962 31.2943 23.2879 31.3976L24.2847 31.4775C24.2892 31.4208 24.2975 31.3678 24.3091 31.3187L23.3357 31.0893ZM23.8278 31.9358C23.9544 31.9253 24.0796 31.9037 24.2017 31.8705L23.9396 30.9055C23.8785 30.9221 23.8133 30.9336 23.7448 30.9393L23.8278 31.9358ZM24.2017 31.8705C24.501 31.7892 24.7821 31.6357 25.013 31.4048L24.3058 30.6977C24.2074 30.7962 24.0835 30.8664 23.9396 30.9055L24.2017 31.8705ZM25.0129 31.4048C25.0154 31.4023 25.018 31.3999 25.0206 31.3976L24.3574 30.6492C24.3398 30.6648 24.3226 30.681 24.3058 30.6977L25.0129 31.4048ZM25.0545 31.3646C25.2627 31.1415 25.402 30.8753 25.4788 30.5938L24.514 30.3308C24.476 30.47 24.4111 30.5884 24.3234 30.6823L25.0545 31.3646ZM25.4789 30.5933C25.5118 30.472 25.5334 30.3476 25.544 30.2217L24.5475 30.1378C24.5418 30.2055 24.5304 30.2702 24.5138 30.3312L25.4789 30.5933ZM25.0038 29.6815C24.8784 29.6921 24.7538 29.7135 24.6321 29.7466L24.8947 30.7115C24.955 30.6951 25.0196 30.6838 25.0877 30.678L25.0038 29.6815ZM24.6321 29.7466C24.3329 29.828 24.0519 29.9816 23.821 30.2125L24.5281 30.9196C24.6266 30.821 24.7506 30.7507 24.8947 30.7115L24.6321 29.7466ZM23.821 30.2125C23.8185 30.215 23.8158 30.2175 23.813 30.22L24.4769 30.9678C24.4942 30.9524 24.5113 30.9364 24.5281 30.9196L23.821 30.2125ZM22.9967 30.927C23.0923 30.5762 23.2681 30.2552 23.5258 29.986L22.8034 29.2945C22.4253 29.6895 22.1693 30.1597 22.0319 30.6642L22.9967 30.927ZM23.5477 29.9616C23.552 29.9565 23.5555 29.9527 23.5583 29.9499L22.8512 29.2427C22.8256 29.2683 22.8025 29.2939 22.7816 29.3188L23.5477 29.9616ZM23.5583 29.9499C23.833 29.6752 24.167 29.4885 24.5358 29.3882L24.2733 28.4233C23.7458 28.5667 23.2558 28.8382 22.8512 29.2427L23.5583 29.9499ZM24.5357 29.3882C24.8957 29.2904 25.2909 29.2762 25.6913 29.3499L25.8722 28.3664C25.3354 28.2676 24.7882 28.2833 24.2734 28.4232L24.5357 29.3882ZM25.7136 29.3535C25.7908 29.3641 25.8551 29.423 25.8704 29.5019L26.852 29.3107C26.7523 28.799 26.3375 28.4299 25.8499 28.3628L25.7136 29.3535ZM25.8704 29.502C25.9506 29.9132 25.938 30.3199 25.8373 30.6897L26.8021 30.9526C26.946 30.4242 26.9594 29.8616 26.852 29.3106L25.8704 29.502ZM25.8372 30.69C25.7417 31.0412 25.5658 31.3626 25.308 31.6316L26.0299 32.3236C26.4086 31.9284 26.6649 31.4573 26.8022 30.9523L25.8372 30.69ZM25.2859 31.6562C25.2825 31.6602 25.279 31.6641 25.2754 31.6677L25.9829 32.3744C26.0073 32.35 26.0303 32.3247 26.052 32.2989L25.2859 31.6562ZM25.2756 31.6675C25.0011 31.942 24.6669 32.1287 24.2984 32.2289L24.5607 33.1938C25.088 33.0505 25.5782 32.7791 25.9827 32.3746L25.2756 31.6675ZM24.2984 32.2289C23.9383 32.3267 23.5431 32.3409 23.1424 32.2674L22.9619 33.2509C23.4987 33.3494 24.0459 33.3338 24.5606 33.1939L24.2984 32.2289ZM23.1203 32.2638C23.0432 32.2532 22.9788 32.1943 22.9635 32.1153L21.9819 32.3067C22.0817 32.8184 22.4964 33.1874 22.984 33.2545L23.1203 32.2638ZM22.9634 32.1152C22.8883 31.7302 22.8962 31.3438 22.9845 30.9849L22.0134 30.7461C21.8889 31.2526 21.8803 31.7861 21.982 32.3068L22.9634 32.1152ZM22.9921 30.948C22.9932 30.9417 22.9947 30.9345 22.9969 30.9265L22.0317 30.6647C22.0213 30.7033 22.0125 30.7428 22.0058 30.783L22.9921 30.948ZM6.57419 26.7824C6.34341 27.0132 6.18976 27.2943 6.10834 27.5935L7.07325 27.8561C7.11244 27.7121 7.18283 27.588 7.28133 27.4895L6.57419 26.7824ZM6.10834 27.5935C6.07518 27.7153 6.0538 27.84 6.04325 27.9654L7.03972 28.0493C7.04546 27.9811 7.05685 27.9164 7.07325 27.8561L6.10834 27.5935ZM6.5833 28.5056C6.70939 28.495 6.83389 28.4734 6.95517 28.4404L6.69306 27.4754C6.63203 27.492 6.56735 27.5034 6.49966 27.5091L6.5833 28.5056ZM6.95539 28.4404C7.25502 28.3588 7.53651 28.2062 7.76717 27.9765L7.06155 27.2679C6.9643 27.3647 6.83988 27.4354 6.69283 27.4755L6.95539 28.4404ZM7.76791 27.9757C8.00066 27.743 8.15164 27.4597 8.23227 27.1635L7.26739 26.9008C7.22741 27.0477 7.15733 27.1721 7.0608 27.2686L7.76791 27.9757ZM8.23235 27.1632C8.2654 27.0416 8.28678 26.9172 8.29745 26.7918L7.30104 26.7071C7.29521 26.7757 7.28378 26.8405 7.26731 26.9011L8.23235 27.1632ZM7.75738 26.2512C7.63135 26.2618 7.50675 26.2834 7.38529 26.3163L7.64729 27.2814C7.70834 27.2648 7.77316 27.2534 7.84111 27.2477L7.75738 26.2512ZM7.38506 26.3164C7.08569 26.3978 6.80402 26.5498 6.57421 26.7796L7.28132 27.4867C7.37598 27.3921 7.49925 27.3217 7.64751 27.2813L7.38506 26.3164ZM7.2803 26.7786L6.79542 26.2965L6.09034 27.0056L6.57522 27.4878L7.2803 26.7786ZM6.08933 27.0046L6.57421 27.4895L7.28131 26.7824L6.79643 26.2975L6.08933 27.0046ZM5.7499 27.4972C5.85022 27.1285 6.03686 26.7945 6.31145 26.5199L5.60434 25.8128C5.19971 26.2174 4.92843 26.7075 4.78498 27.2347L5.7499 27.4972ZM6.31121 26.5201C6.58791 26.2438 6.92279 26.0576 7.28878 25.958L7.02605 24.9931C6.50185 25.1358 6.01122 25.4064 5.60458 25.8125L6.31121 26.5201ZM7.28857 25.958C7.64646 25.8607 8.03898 25.8462 8.43705 25.9185L8.61573 24.9346C8.08189 24.8377 7.53814 24.8539 7.02626 24.993L7.28857 25.958ZM8.46458 25.9227C8.54271 25.9325 8.60812 25.9916 8.62368 26.0715L9.60523 25.8803C9.50452 25.3632 9.08243 24.992 8.5882 24.9304L8.46458 25.9227ZM9.01872 25.4851L8.3457 25.6164L8.53716 26.5979L9.21018 26.4666L9.01872 25.4851ZM8.53532 26.5983L9.20766 26.4697L9.01988 25.4875L8.34754 25.6161L8.53532 26.5983ZM8.62299 26.0742C8.70304 26.4851 8.69085 26.8911 8.59066 27.26L9.55569 27.5221C9.69903 26.9944 9.71162 26.4327 9.60455 25.883L8.62299 26.0742ZM8.5907 27.2598C8.49043 27.6285 8.30351 27.9627 8.02919 28.237L8.73628 28.9441C9.14049 28.5399 9.41218 28.0498 9.55565 27.5223L8.5907 27.2598ZM8.73628 28.237L8.2514 27.7521L7.54431 28.4593L8.02919 28.9441L8.73628 28.237ZM7.5433 28.4583L8.02542 28.9431L8.73453 28.238L8.25241 27.7532L7.5433 28.4583ZM8.02653 28.2369C7.75045 28.5128 7.41709 28.6994 7.05176 28.7988L7.31421 29.7637C7.83998 29.6207 8.3287 29.3487 8.73342 28.9442L8.02653 28.2369ZM7.05173 28.7988C6.69258 28.8965 6.29801 28.9107 5.89768 28.8375L5.71795 29.8213C6.25388 29.9192 6.80019 29.9036 7.31424 29.7637L7.05173 28.7988ZM5.87443 28.8339C5.79709 28.8235 5.73249 28.7646 5.71698 28.6853L4.73559 28.8774C4.83589 29.39 5.25215 29.7592 5.7412 29.8249L5.87443 28.8339ZM5.71698 28.6853C5.6366 28.2746 5.6493 27.8672 5.74992 27.4971L4.78496 27.2348C4.64137 27.7629 4.62773 28.3262 4.73559 28.8774L5.71698 28.6853ZM30.4297 17.5565L30.4296 17.5594L31.429 17.595L31.4291 17.5922L30.4297 17.5565ZM30.576 17.2233C30.5732 17.2262 30.5704 17.2288 30.5678 17.2311L31.2316 17.979C31.2492 17.9634 31.2661 17.9475 31.2825 17.9311L30.576 17.2233ZM30.5342 17.2639C30.326 17.4869 30.1866 17.7532 30.1099 18.035L31.0749 18.2974C31.1127 18.1584 31.1776 18.0401 31.2652 17.9463L30.5342 17.2639ZM30.1099 18.035C30.0769 18.1566 30.0554 18.281 30.0449 18.4066L31.0414 18.4903C31.0471 18.4224 31.0584 18.3579 31.0749 18.2974L30.1099 18.035ZM30.585 18.9467C30.7109 18.9361 30.8355 18.9145 30.9569 18.8816L30.6948 17.9165C30.6339 17.9331 30.5691 17.9445 30.5012 17.9502L30.585 18.9467ZM30.9569 18.8816C31.2562 18.8003 31.5373 18.6467 31.7682 18.4159L31.0611 17.7088C30.9626 17.8072 30.8387 17.8774 30.6948 17.9165L30.9569 18.8816ZM31.7685 18.4155C31.7708 18.4133 31.7732 18.411 31.7758 18.4087L31.1126 17.6602C31.095 17.6758 31.0777 17.6921 31.0607 17.7091L31.7685 18.4155ZM31.8098 18.3755C32.0178 18.1525 32.1572 17.8865 32.234 17.6047L31.2692 17.3419C31.2313 17.481 31.1664 17.5993 31.0786 17.6934L31.8098 18.3755ZM32.2341 17.6042C32.2361 17.597 32.2375 17.5928 32.2379 17.5915L31.2955 17.2572C31.2847 17.2876 31.276 17.3167 31.269 17.3424L32.2341 17.6042ZM32.2534 17.539C32.2774 17.4372 32.2929 17.3339 32.3012 17.2308L31.3044 17.1508C31.2999 17.2075 31.2916 17.2606 31.28 17.3097L32.2534 17.539ZM31.7612 16.6925C31.6351 16.7031 31.5098 16.7245 31.387 16.7579L31.6498 17.7228C31.7104 17.7062 31.7754 17.6948 31.8444 17.6891L31.7612 16.6925ZM31.3874 16.7578C31.0885 16.8389 30.8074 16.9906 30.577 17.2197L31.2818 17.929C31.3783 17.8331 31.5022 17.7628 31.6494 17.7229L31.3874 16.7578ZM29.7515 17.9386C29.847 17.5876 30.0228 17.2664 30.2804 16.9973L29.5582 16.3057C29.1797 16.7009 28.9239 17.1717 28.7866 17.676L29.7515 17.9386ZM30.3008 16.9747C30.3083 16.9658 30.3114 16.9627 30.3118 16.9623L29.6077 16.2522C29.5794 16.2802 29.5559 16.3069 29.5378 16.3283L30.3008 16.9747ZM29.6061 16.9607L30.0909 17.4457L30.7982 16.7387L30.3134 16.2537L29.6061 16.9607ZM30.7991 16.7396L30.3169 16.2548L29.6078 16.9599L30.09 17.4448L30.7991 16.7396ZM30.3159 16.9609C30.5917 16.6852 30.925 16.4988 31.2906 16.3995L31.0284 15.4345C30.5026 15.5773 30.0137 15.8491 29.6089 16.2537L30.3159 16.9609ZM31.2907 16.3995C31.6483 16.3022 32.0409 16.2877 32.439 16.36L32.6177 15.3761C32.0839 15.2792 31.54 15.2954 31.0283 15.4345L31.2907 16.3995ZM32.4665 16.3642C32.5447 16.3739 32.6101 16.4331 32.6257 16.5129L33.6072 16.3218C33.5065 15.8047 33.0844 15.4335 32.5902 15.3719L32.4665 16.3642ZM32.6257 16.5131C32.7008 16.8982 32.6929 17.2845 32.6046 17.6434L33.5757 17.8822C33.7003 17.3757 33.7088 16.8423 33.6072 16.3216L32.6257 16.5131ZM32.597 17.6803C32.5957 17.6881 32.5941 17.6955 32.5923 17.7021L33.5576 17.9634C33.5684 17.9235 33.5768 17.884 33.5833 17.8454L32.597 17.6803ZM32.5925 17.7014C32.497 18.0522 32.3211 18.373 32.0633 18.6424L32.7857 19.3339C33.1637 18.9389 33.4199 18.4689 33.5574 17.9641L32.5925 17.7014ZM32.0416 18.6665C32.0372 18.6718 32.0336 18.6756 32.0308 18.6785L32.7379 19.3856C32.7635 19.36 32.7865 19.3345 32.8073 19.3097L32.0416 18.6665ZM32.0308 18.6785C31.7563 18.953 31.4221 19.1397 31.0536 19.2399L31.3159 20.2049C31.8432 20.0615 32.3334 19.7901 32.7379 19.3856L32.0308 18.6785ZM31.0535 19.2399C30.6941 19.3376 30.2993 19.3518 29.899 19.2787L29.7192 20.2624C30.2552 20.3603 30.8017 20.3447 31.3159 20.2049L31.0535 19.2399ZM29.8761 19.2751C29.7986 19.2646 29.7341 19.2057 29.7186 19.1264L28.7372 19.3185C28.8375 19.8309 29.2534 20.1999 29.7421 20.266L29.8761 19.2751ZM29.7186 19.1265C29.6382 18.7157 29.6509 18.3085 29.7516 17.9385L28.7866 17.6761C28.643 18.2041 28.6294 18.7673 28.7372 19.3185L29.7186 19.1265ZM31.2929 23.4139C31.6529 23.5661 31.9513 23.8049 32.1809 24.106L32.9761 23.4996C32.6458 23.0665 32.2099 22.7158 31.6822 22.4928L31.2929 23.4139ZM32.181 24.1061C32.4149 24.4128 32.5797 24.7852 32.6599 25.1942L33.6412 25.0018C33.5335 24.4527 33.3092 23.9363 32.9761 23.4996L32.181 24.1061ZM32.6598 25.1941C32.676 25.2764 32.6356 25.3567 32.5655 25.3938L33.0336 26.2775C33.4838 26.039 33.7441 25.527 33.6412 25.0018L32.6598 25.1941ZM32.5338 25.4121C32.194 25.6254 31.8283 25.7575 31.4644 25.8012L31.5837 26.794C32.1052 26.7314 32.6104 26.5447 33.0653 26.2592L32.5338 25.4121ZM31.4643 25.8012C31.0904 25.8461 30.7119 25.7987 30.3511 25.6464L29.9622 26.5677C30.4898 26.7904 31.0441 26.8589 31.5837 26.794L31.4643 25.8012ZM30.3513 25.6465C29.9911 25.4943 29.6927 25.2554 29.4631 24.9544L28.6679 25.5608C28.9983 25.9939 29.4343 26.3446 29.9621 26.5676L30.3513 25.6465ZM29.463 24.9543C29.2289 24.6474 29.0642 24.2751 28.9843 23.8663L28.0029 24.0582C28.1103 24.6074 28.3346 25.1239 28.668 25.5609L29.463 24.9543ZM28.9843 23.8662C28.9682 23.7839 29.0087 23.7034 29.0791 23.6663L28.6123 22.7818C28.1613 23.0199 27.9 23.5324 28.0029 24.0582L28.9843 23.8662ZM29.1113 23.6477C29.4507 23.4349 29.8162 23.303 30.1798 23.2592L30.0604 22.2664C29.5395 22.329 29.0346 22.5154 28.5801 22.8005L29.1113 23.6477ZM30.1798 23.2592C30.5537 23.2143 30.9321 23.2616 31.2931 23.414L31.682 22.4927C31.1542 22.2699 30.5998 22.2015 30.0604 22.2664L30.1798 23.2592ZM31.8885 24.3299C31.7 24.0829 31.4525 23.8788 31.1518 23.7517L30.7626 24.6728C30.8879 24.7258 31.0002 24.8142 31.0933 24.9364L31.8885 24.3299ZM31.1514 23.7515C30.8504 23.6246 30.5307 23.5898 30.2211 23.6271L30.3406 24.6199C30.4955 24.6013 30.6381 24.6204 30.7629 24.673L31.1514 23.7515ZM30.2211 23.6271C30.0965 23.6421 29.9733 23.6688 29.8527 23.7063L30.1498 24.6612C30.2144 24.6411 30.2782 24.6274 30.3405 24.6199L30.2211 23.6271ZM29.5548 24.4087C29.612 24.5223 29.679 24.6302 29.7556 24.7305L30.5507 24.124C30.513 24.0746 30.4784 24.0194 30.4478 23.9587L29.5548 24.4087ZM29.7555 24.7305C29.944 24.9776 30.1917 25.1817 30.4925 25.3088L30.8815 24.3875C30.7561 24.3345 30.6438 24.2461 30.5507 24.124L29.7555 24.7305ZM30.4927 25.3088C30.7936 25.4358 31.1134 25.4706 31.4231 25.4333L31.3035 24.4405C31.1485 24.4591 31.006 24.4401 30.8814 24.3875L30.4927 25.3088ZM31.4229 25.4333C31.5477 25.4183 31.6706 25.3916 31.7906 25.3544L31.4948 24.3992C31.4297 24.4193 31.3658 24.433 31.3037 24.4404L31.4229 25.4333ZM32.0892 24.6518C32.0321 24.5384 31.9651 24.4305 31.8885 24.33L31.0933 24.9364C31.1309 24.9856 31.1655 25.0409 31.1962 25.1019L32.0892 24.6518ZM19.3795 17.2408C19.3795 16.586 18.8486 16.0551 18.1938 16.0551V17.0551C18.2964 17.0551 18.3795 17.1382 18.3795 17.2408H19.3795ZM18.1938 16.0551C17.5389 16.0551 17.008 16.586 17.008 17.2408H18.008C18.008 17.1382 18.0912 17.0551 18.1938 17.0551V16.0551ZM17.008 17.2408V32.1263H18.008V17.2408H17.008ZM17.008 32.1263C17.008 32.7812 17.539 33.312 18.1938 33.312V32.312C18.0912 32.312 18.008 32.2289 18.008 32.1263H17.008ZM18.1938 33.312C18.8486 33.312 19.3795 32.7812 19.3795 32.1263H18.3795C18.3795 32.2289 18.2964 32.312 18.1938 32.312V33.312ZM19.3795 32.1263V17.2408H18.3795V32.1263H19.3795ZM16.975 23.0584C16.512 22.5954 15.7611 22.5954 15.2981 23.0584L16.0053 23.7655C16.0777 23.693 16.1954 23.693 16.2679 23.7655L16.975 23.0584ZM15.2982 23.0583C14.8351 23.5213 14.8352 24.2722 15.2981 24.7352L16.0052 24.0281C15.9328 23.9556 15.9328 23.8379 16.0052 23.7655L15.2982 23.0583ZM15.2981 24.7352L17.3555 26.7926L18.0626 26.0855L16.0052 24.0281L15.2981 24.7352ZM17.3555 26.7926C17.8185 27.2556 18.5694 27.2556 19.0323 26.7926L18.3252 26.0855C18.2528 26.1579 18.1351 26.1579 18.0626 26.0855L17.3555 26.7926ZM19.0323 26.7926L21.0899 24.7352L20.3829 24.0281L18.3253 26.0854L19.0323 26.7926ZM21.0899 24.7352C21.5529 24.2722 21.5529 23.5213 21.0899 23.0583L20.3828 23.7655C20.4553 23.8379 20.4553 23.9556 20.3828 24.0281L21.0899 24.7352ZM21.0899 23.0584C20.627 22.5954 19.8761 22.5954 19.4131 23.0584L20.1202 23.7655C20.1926 23.693 20.3104 23.693 20.3828 23.7655L21.0899 23.0584ZM19.4131 23.0583L17.8404 24.6308L18.5474 25.338L20.1202 23.7655L19.4131 23.0583ZM18.5475 24.6308L16.975 23.0584L16.2679 23.7655L17.8404 25.3379L18.5475 24.6308ZM16.975 19.6282C16.512 19.1652 15.7611 19.1652 15.2981 19.6282L16.0053 20.3353C16.0777 20.2628 16.1954 20.2628 16.2679 20.3353L16.975 19.6282ZM15.2981 19.6282C14.8352 20.0912 14.8352 20.8421 15.2981 21.3051L16.0052 20.5979C15.9328 20.5255 15.9328 20.4077 16.0052 20.3353L15.2981 19.6282ZM15.2981 21.3051L17.3555 23.3624L18.0626 22.6553L16.0052 20.5979L15.2981 21.3051ZM17.3555 23.3624C17.8185 23.8254 18.5694 23.8254 19.0323 23.3624L18.3252 22.6553C18.2528 22.7278 18.1351 22.7278 18.0626 22.6553L17.3555 23.3624ZM19.0323 23.3624L21.0899 21.3051L20.3829 20.5979L18.3253 22.6553L19.0323 23.3624ZM21.0899 21.3051C21.5529 20.8421 21.5529 20.0912 21.0899 19.6282L20.3828 20.3353C20.4553 20.4078 20.4553 20.5255 20.3828 20.5979L21.0899 21.3051ZM21.0899 19.6282C20.627 19.1652 19.8761 19.1652 19.4131 19.6282L20.1202 20.3353C20.1926 20.2628 20.3104 20.2628 20.3828 20.3353L21.0899 19.6282ZM19.4131 19.6282L17.8404 21.2007L18.5474 21.9078L20.1202 20.3353L19.4131 19.6282ZM18.5475 21.2007L16.975 19.6282L16.2679 20.3353L17.8404 21.9078L18.5475 21.2007Z" fill="#8BC400" mask="url(#path-1-outside-1)"/>
</svg>
