<svg width="29" height="29" viewBox="0 0 29 29" fill="none" xmlns="http://www.w3.org/2000/svg">
<path d="M28.8125 0.875L28.125 0.1875C27.9375 0 27.625 0 27.4375 0.1875L22.6875 4.875C20.625 3.125 17.9375 2 15 2C8.3125 2 3 7.375 3 14C3 17 4.0625 19.6875 5.8125 21.75L1.125 26.5C0.9375 26.6875 0.9375 27 1.125 27.1875L1.8125 27.875C2 28.0625 2.3125 28.0625 2.5 27.875L7.25 23.1875C9.3125 24.9375 12 26 15 26C21.625 26 27 20.6875 27 14C27 11.0625 25.875 8.375 24.125 6.3125L28.8125 1.5625C28.875 1.5 29 1.375 29 1.25C29 1.125 28.875 0.9375 28.8125 0.875ZM5 14C5 8.5 9.4375 4 15 4C17.375 4 19.5625 4.9375 21.25 6.3125L7.25 20.3125C5.875 18.625 5 16.4375 5 14ZM25 14C25 19.5625 20.5 24 15 24C12.5625 24 10.375 23.125 8.6875 21.75L22.6875 7.75C24.0625 9.4375 25 11.625 25 14Z" fill="#212121"/>
</svg>
