<svg width="43" height="38" viewBox="0 0 43 38" fill="none" xmlns="http://www.w3.org/2000/svg">
<path d="M41.554 15.8867L37.8626 12.1953C37.3704 11.7031 36.7142 11.375 35.9759 11.375H31.8743V4.8125C31.8743 2.67969 30.0697 0.875 27.9368 0.875H14.8118C12.597 0.875 10.8743 2.67969 10.8743 4.8125V11.375H6.69075C5.95247 11.375 5.29622 11.7031 4.80403 12.1953L1.11262 15.8867C0.620434 16.3789 0.37434 17.0352 0.37434 17.7734V35C0.37434 36.4766 1.52278 37.625 2.99934 37.625H39.7493C41.1439 37.625 42.3743 36.4766 42.3743 35V17.7734C42.3743 17.0352 42.0462 16.3789 41.554 15.8867ZM13.4993 4.8125C13.4993 4.15625 14.0736 3.5 14.8118 3.5H27.9368C28.5931 3.5 29.2493 4.15625 29.2493 4.8125V11.375H13.4993V4.8125ZM39.7493 35H2.99934V27.125H10.8743V29.0938C10.8743 29.5039 11.1204 29.75 11.5306 29.75H12.8431C13.1712 29.75 13.4993 29.5039 13.4993 29.0938V27.125H29.2493V29.0938C29.2493 29.5039 29.4954 29.75 29.9056 29.75H31.2181C31.5462 29.75 31.8743 29.5039 31.8743 29.0938V27.125H39.7493V35ZM31.8743 24.5V22.5312C31.8743 22.2031 31.5462 21.875 31.2181 21.875H29.9056C29.4954 21.875 29.2493 22.2031 29.2493 22.5312V24.5H13.4993V22.5312C13.4993 22.2031 13.1712 21.875 12.8431 21.875H11.5306C11.1204 21.875 10.8743 22.2031 10.8743 22.5312V24.5H2.99934V17.7734L6.69075 14H35.9759L39.7493 17.7734V24.5H31.8743Z" fill="#4F4F4F"/>
<path d="M31.8743 11.375H31.3743V11.875H31.8743V11.375ZM10.8743 11.375V11.875H11.3743V11.375H10.8743ZM29.2493 11.375V11.875H29.7493V11.375H29.2493ZM13.4993 11.375H12.9993V11.875H13.4993V11.375ZM39.7493 35V35.5H40.2493V35H39.7493ZM2.99934 35H2.49934V35.5H2.99934V35ZM2.99934 27.125V26.625H2.49934V27.125H2.99934ZM10.8743 27.125H11.3743V26.625H10.8743V27.125ZM13.4993 27.125V26.625H12.9993V27.125H13.4993ZM29.2493 27.125H29.7493V26.625H29.2493V27.125ZM31.8743 27.125V26.625H31.3743V27.125H31.8743ZM39.7493 27.125H40.2493V26.625H39.7493V27.125ZM31.8743 24.5H31.3743V25H31.8743V24.5ZM29.2493 24.5V25H29.7493V24.5H29.2493ZM13.4993 24.5H12.9993V25H13.4993V24.5ZM10.8743 24.5V25H11.3743V24.5H10.8743ZM2.99934 24.5H2.49934V25H2.99934V24.5ZM2.99934 17.7734L2.64192 17.4238L2.49934 17.5695V17.7734H2.99934ZM6.69075 14V13.5H6.48041L6.33333 13.6504L6.69075 14ZM35.9759 14L36.3295 13.6464L36.183 13.5H35.9759V14ZM39.7493 17.7734H40.2493V17.5663L40.1029 17.4199L39.7493 17.7734ZM39.7493 24.5V25H40.2493V24.5H39.7493ZM41.9076 15.5332L38.2162 11.8418L37.5091 12.5489L41.2005 16.2403L41.9076 15.5332ZM38.2162 11.8418C37.6469 11.2725 36.8687 10.875 35.9759 10.875V11.875C36.5597 11.875 37.094 12.1338 37.5091 12.5489L38.2162 11.8418ZM35.9759 10.875H31.8743V11.875H35.9759V10.875ZM32.3743 11.375V4.8125H31.3743V11.375H32.3743ZM32.3743 4.8125C32.3743 2.40355 30.3458 0.375 27.9368 0.375V1.375C29.7935 1.375 31.3743 2.95583 31.3743 4.8125H32.3743ZM27.9368 0.375H14.8118V1.375H27.9368V0.375ZM14.8118 0.375C12.3141 0.375 10.3743 2.41035 10.3743 4.8125H11.3743C11.3743 2.94902 12.8799 1.375 14.8118 1.375V0.375ZM10.3743 4.8125V11.375H11.3743V4.8125H10.3743ZM10.8743 10.875H6.69075V11.875H10.8743V10.875ZM6.69075 10.875C5.798 10.875 5.01975 11.2725 4.45047 11.8418L5.15758 12.5489C5.57268 12.1338 6.10693 11.875 6.69075 11.875V10.875ZM4.45047 11.8418L0.759068 15.5332L1.46617 16.2403L5.15758 12.5489L4.45047 11.8418ZM0.759068 15.5332C0.161527 16.1307 -0.12566 16.9199 -0.12566 17.7734H0.87434C0.87434 17.1504 1.07934 16.6271 1.46617 16.2403L0.759068 15.5332ZM-0.12566 17.7734V35H0.87434V17.7734H-0.12566ZM-0.12566 35C-0.12566 36.7527 1.24664 38.125 2.99934 38.125V37.125C1.79892 37.125 0.87434 36.2004 0.87434 35H-0.12566ZM2.99934 38.125H39.7493V37.125H2.99934V38.125ZM39.7493 38.125C41.4098 38.125 42.8743 36.7628 42.8743 35H41.8743C41.8743 36.1903 40.8779 37.125 39.7493 37.125V38.125ZM42.8743 35V17.7734H41.8743V35H42.8743ZM42.8743 17.7734C42.8743 16.8807 42.4769 16.1024 41.9076 15.5332L41.2005 16.2403C41.6156 16.6554 41.8743 17.1896 41.8743 17.7734H42.8743ZM13.9993 4.8125C13.9993 4.41212 14.3695 4 14.8118 4V3C13.7776 3 12.9993 3.90038 12.9993 4.8125H13.9993ZM14.8118 4H27.9368V3H14.8118V4ZM27.9368 4C28.1023 4 28.3097 4.08779 28.4856 4.26371C28.6616 4.43963 28.7493 4.64699 28.7493 4.8125H29.7493C29.7493 4.32176 29.509 3.87287 29.1927 3.5566C28.8765 3.24034 28.4276 3 27.9368 3V4ZM28.7493 4.8125V11.375H29.7493V4.8125H28.7493ZM29.2493 10.875H13.4993V11.875H29.2493V10.875ZM13.9993 11.375V4.8125H12.9993V11.375H13.9993ZM39.7493 34.5H2.99934V35.5H39.7493V34.5ZM3.49934 35V27.125H2.49934V35H3.49934ZM2.99934 27.625H10.8743V26.625H2.99934V27.625ZM10.3743 27.125V29.0938H11.3743V27.125H10.3743ZM10.3743 29.0938C10.3743 29.3991 10.4679 29.702 10.6951 29.9292C10.9223 30.1564 11.2253 30.25 11.5306 30.25V29.25C11.4776 29.25 11.4445 29.242 11.4265 29.2355C11.4096 29.2293 11.4038 29.2237 11.4022 29.2221C11.4007 29.2206 11.3951 29.2148 11.3889 29.1979C11.3823 29.1798 11.3743 29.1467 11.3743 29.0938H10.3743ZM11.5306 30.25H12.8431V29.25H11.5306V30.25ZM12.8431 30.25C13.4055 30.25 13.9993 29.8201 13.9993 29.0938H12.9993C12.9993 29.1559 12.9782 29.1871 12.9564 29.2071C12.9281 29.233 12.8856 29.25 12.8431 29.25V30.25ZM13.9993 29.0938V27.125H12.9993V29.0938H13.9993ZM13.4993 27.625H29.2493V26.625H13.4993V27.625ZM28.7493 27.125V29.0938H29.7493V27.125H28.7493ZM28.7493 29.0938C28.7493 29.3991 28.8429 29.702 29.0701 29.9292C29.2973 30.1564 29.6003 30.25 29.9056 30.25V29.25C29.8526 29.25 29.8195 29.242 29.8015 29.2355C29.7846 29.2293 29.7788 29.2237 29.7772 29.2221C29.7757 29.2206 29.7701 29.2148 29.7639 29.1979C29.7573 29.1798 29.7493 29.1467 29.7493 29.0938H28.7493ZM29.9056 30.25H31.2181V29.25H29.9056V30.25ZM31.2181 30.25C31.7805 30.25 32.3743 29.8201 32.3743 29.0938H31.3743C31.3743 29.1559 31.3532 29.1871 31.3314 29.2071C31.3031 29.233 31.2606 29.25 31.2181 29.25V30.25ZM32.3743 29.0938V27.125H31.3743V29.0938H32.3743ZM31.8743 27.625H39.7493V26.625H31.8743V27.625ZM39.2493 27.125V35H40.2493V27.125H39.2493ZM32.3743 24.5V22.5312H31.3743V24.5H32.3743ZM32.3743 22.5312C32.3743 22.2046 32.216 21.9197 32.0228 21.7265C31.8296 21.5333 31.5448 21.375 31.2181 21.375V22.375C31.2169 22.375 31.227 22.3749 31.2476 22.3845C31.2682 22.3941 31.2926 22.4105 31.3157 22.4336C31.3388 22.4568 31.3552 22.4811 31.3649 22.5017C31.3745 22.5223 31.3743 22.5325 31.3743 22.5312H32.3743ZM31.2181 21.375H29.9056V22.375H31.2181V21.375ZM29.9056 21.375C29.1792 21.375 28.7493 21.9688 28.7493 22.5312H29.7493C29.7493 22.4887 29.7663 22.4462 29.7922 22.4179C29.8122 22.3962 29.8434 22.375 29.9056 22.375V21.375ZM28.7493 22.5312V24.5H29.7493V22.5312H28.7493ZM29.2493 24H13.4993V25H29.2493V24ZM13.9993 24.5V22.5312H12.9993V24.5H13.9993ZM13.9993 22.5312C13.9993 22.2046 13.841 21.9197 13.6478 21.7265C13.4546 21.5333 13.1698 21.375 12.8431 21.375V22.375C12.8419 22.375 12.852 22.3749 12.8726 22.3845C12.8932 22.3941 12.9176 22.4105 12.9407 22.4336C12.9638 22.4568 12.9802 22.4811 12.9899 22.5017C12.9995 22.5223 12.9993 22.5325 12.9993 22.5312H13.9993ZM12.8431 21.375H11.5306V22.375H12.8431V21.375ZM11.5306 21.375C10.8042 21.375 10.3743 21.9688 10.3743 22.5312H11.3743C11.3743 22.4887 11.3913 22.4462 11.4172 22.4179C11.4372 22.3962 11.4684 22.375 11.5306 22.375V21.375ZM10.3743 22.5312V24.5H11.3743V22.5312H10.3743ZM10.8743 24H2.99934V25H10.8743V24ZM3.49934 24.5V17.7734H2.49934V24.5H3.49934ZM3.35676 18.1231L7.04816 14.3496L6.33333 13.6504L2.64192 17.4238L3.35676 18.1231ZM6.69075 14.5H35.9759V13.5H6.69075V14.5ZM35.6223 14.3536L39.3958 18.127L40.1029 17.4199L36.3295 13.6464L35.6223 14.3536ZM39.2493 17.7734V24.5H40.2493V17.7734H39.2493ZM39.7493 24H31.8743V25H39.7493V24Z" fill="#E0E0E0"/>
</svg>
