<svg width="20" height="20" viewBox="0 0 20 20" fill="#212121" xmlns="http://www.w3.org/2000/svg">
    <path d="M10.625 5.58594C11.1328 5.625 11.6406 5.78125 12.1484 5.9375C12.2266 5.9375 12.2656 5.97656 12.3438 5.97656C12.6562 6.05469 12.8516 6.40625 12.7734 6.75781C12.6953 7.07031 12.3438 7.26562 11.9922 7.1875C11.9141 7.14844 11.7969 7.14844 11.7188 7.10938C11.4062 7.03125 11.1328 6.91406 10.8203 6.875C10.0781 6.75781 9.41406 6.875 8.90625 7.07031C8.39844 7.30469 8.16406 7.57812 8.125 7.85156C8.04688 8.24219 8.20312 8.47656 8.51562 8.71094C8.94531 8.94531 9.57031 9.14062 10.3125 9.33594C11.0156 9.53125 11.8359 9.76562 12.4609 10.1953C13.2031 10.7031 13.5547 11.5234 13.3594 12.4219C13.2031 13.2422 12.6172 13.8281 11.9141 14.1016C11.5234 14.2578 11.0547 14.375 10.625 14.375V15.3125C10.625 15.6641 10.3125 15.9375 10 15.9375C9.64844 15.9375 9.375 15.6641 9.375 15.3125V14.3359C9.02344 14.2578 8.51562 14.1016 8.08594 13.9844C7.8125 13.9062 7.53906 13.8281 7.26562 13.75C6.95312 13.6328 6.79688 13.2812 6.875 12.9297C6.99219 12.6172 7.34375 12.4219 7.69531 12.5391C7.92969 12.6172 8.20312 12.7344 8.4375 12.8125C8.90625 12.9297 9.33594 13.0469 9.57031 13.0859C10.3125 13.2031 10.9766 13.125 11.4453 12.9688C11.875 12.7734 12.0703 12.5 12.1484 12.1875C12.2266 11.7578 12.0703 11.4453 11.7578 11.2109C11.2891 10.8984 10.7031 10.7422 10.1562 10.5859C10.0391 10.5859 9.96094 10.5469 9.88281 10.5078C9.21875 10.3516 8.4375 10.1172 7.85156 9.72656C7.53906 9.53125 7.22656 9.25781 7.07031 8.90625C6.875 8.51562 6.79688 8.08594 6.91406 7.61719C7.03125 6.79688 7.69531 6.25 8.39844 5.9375C8.71094 5.82031 9.02344 5.70312 9.33594 5.66406V4.6875C9.33594 4.375 9.64844 4.0625 9.96094 4.0625C10.3125 4.0625 10.625 4.375 10.625 4.6875V5.58594ZM20 10C20 15.5469 15.5078 20 10 20C4.45312 20 0 15.5469 0 10C0 4.49219 4.45312 0 10 0C15.5078 0 20 4.49219 20 10ZM10 1.25C5.15625 1.25 1.25 5.19531 1.25 10C1.25 14.8438 5.15625 18.75 10 18.75C14.8047 18.75 18.75 14.8438 18.75 10C18.75 5.19531 14.8047 1.25 10 1.25Z"/>
</svg>