<svg width="17" height="17" viewBox="0 0 17 17" fill="none" xmlns="http://www.w3.org/2000/svg">
<path d="M1.05469 1.00781C1.37109 0.902344 1.75781 0.972656 1.96875 1.21875L3.44531 2.66016C4.88672 1.21875 6.85547 0.375 8.96484 0.375C13.3242 0.410156 16.875 3.92578 16.875 8.25C16.875 12.6094 13.3242 16.125 9 16.125C7.13672 16.125 5.34375 15.4922 3.9375 14.332C3.58594 14.0156 3.55078 13.4883 3.83203 13.1367C4.14844 12.7852 4.67578 12.7148 5.02734 13.0312C6.11719 13.9453 7.52344 14.4375 9 14.4375C12.4102 14.4375 15.1875 11.6953 15.1875 8.25C15.1875 4.83984 12.4102 2.0625 9 2.0625C7.3125 2.0625 5.80078 2.76562 4.64062 3.85547L6.46875 5.71875C6.71484 5.92969 6.78516 6.31641 6.67969 6.63281C6.53906 6.94922 6.22266 7.125 5.90625 7.125H1.40625C0.914062 7.125 0.5625 6.77344 0.5625 6.28125V1.78125C0.5625 1.46484 0.738281 1.14844 1.05469 1.00781Z" fill="white"/>
</svg>
