<svg width="30" height="30" viewBox="0 0 30 30" fill="none" xmlns="http://www.w3.org/2000/svg">
<g opacity="0.7">
<rect width="30" height="30" rx="15" fill="#222222"/>
</g>
<path d="M7.05469 8.00781C7.37109 7.90234 7.75781 7.97266 7.96875 8.21875L9.44531 9.66016C10.8867 8.21875 12.8555 7.375 14.9648 7.375C19.3242 7.41016 22.875 10.9258 22.875 15.25C22.875 19.6094 19.3242 23.125 15 23.125C13.1367 23.125 11.3438 22.4922 9.9375 21.332C9.58594 21.0156 9.55078 20.4883 9.83203 20.1367C10.1484 19.7852 10.6758 19.7148 11.0273 20.0312C12.1172 20.9453 13.5234 21.4375 15 21.4375C18.4102 21.4375 21.1875 18.6953 21.1875 15.25C21.1875 11.8398 18.4102 9.0625 15 9.0625C13.3125 9.0625 11.8008 9.76562 10.6406 10.8555L12.4688 12.7188C12.7148 12.9297 12.7852 13.3164 12.6797 13.6328C12.5391 13.9492 12.2227 14.125 11.9062 14.125H7.40625C6.91406 14.125 6.5625 13.7734 6.5625 13.2812V8.78125C6.5625 8.46484 6.73828 8.14844 7.05469 8.00781Z" fill="white" fill-opacity="0.7"/>
</svg>
