<svg width="20" height="20" viewBox="0 0 20 20" fill="none" xmlns="http://www.w3.org/2000/svg">
<path d="M9.96094 20C7.77344 20 6.99219 19.5703 6.99219 18.6328V17.0703C6.36719 16.8359 5.82031 16.4844 5.3125 16.1328L3.98438 16.875C3.78906 16.9922 3.59375 17.0312 3.39844 17.0312C1.95312 17.0312 0.390625 13.4375 0.390625 12.8125C0.390625 12.3828 0.625 11.9531 1.01562 11.7578L2.34375 10.9766C2.34375 10.6641 2.30469 10.3125 2.30469 10C2.30469 9.64844 2.34375 9.33594 2.38281 9.02344L1.05469 8.28125C0.664062 8.08594 0.429688 7.65625 0.429688 7.22656C0.429688 6.75781 1.91406 2.96875 3.39844 2.96875C3.63281 2.96875 3.82812 3.04688 4.02344 3.16406L5.35156 3.90625C5.85938 3.55469 6.40625 3.20312 6.99219 2.96875V1.40625C6.99219 0.195312 8.39844 0 10 0C11.5234 0 12.9297 0.195312 12.9297 1.40625V2.96875C13.5156 3.20312 14.0625 3.51562 14.5703 3.90625L15.8984 3.16406C16.0938 3.04688 16.2891 3.00781 16.5234 3.00781C17.9297 3.00781 19.4922 6.60156 19.4922 7.22656C19.4922 7.65625 19.2578 8.08594 18.8672 8.28125L17.5391 9.0625C17.5781 9.375 17.6172 9.6875 17.6172 10C17.6172 10.3125 17.5781 10.6641 17.5391 10.9766L18.8672 11.7578C19.2578 11.9531 19.4922 12.3828 19.4922 12.8125C19.4922 13.2812 18.0078 17.0312 16.5234 17.0312C16.2891 17.0312 16.0938 16.9922 15.8984 16.875L14.5703 16.1328C14.0625 16.4844 13.5156 16.8359 12.9297 17.0703V18.6328C12.9688 19.5703 12.1875 20 9.96094 20ZM5.46875 14.6094C6.875 15.8203 7.53906 15.9375 8.24219 16.2109V18.6328C8.82812 18.7109 9.375 18.75 9.96094 18.75C10.5469 18.75 11.1328 18.7109 11.7188 18.5938L11.6797 16.2109C12.3438 15.9766 13.0859 15.7812 14.4531 14.6094L16.5625 15.8203C17.3047 14.9609 17.8906 13.9453 18.2422 12.8125L16.2109 11.6406C16.2891 11.0547 16.3672 10.625 16.3672 10.0781C16.3672 9.6875 16.3281 9.17969 16.2109 8.39844L18.2812 7.22656C17.8906 6.13281 17.3047 5.11719 16.5234 4.21875L14.4531 5.42969C13.0859 4.21875 12.4219 4.10156 11.6797 3.82812V1.40625C11.1328 1.32812 10.5859 1.28906 10 1.28906C9.41406 1.28906 8.82812 1.32812 8.20312 1.44531L8.24219 3.82812C7.61719 4.0625 6.875 4.21875 5.46875 5.42969L3.39844 4.21875C2.65625 5.11719 2.07031 6.13281 1.67969 7.26562L3.75 8.39844C3.67188 8.98438 3.59375 9.41406 3.59375 9.92188C3.59375 10.3516 3.63281 10.8594 3.75 11.6016L1.67969 12.8125C2.07031 13.8672 2.65625 14.8828 3.4375 15.7812L5.46875 14.6094ZM10 13.75C7.92969 13.75 6.25 12.0703 6.25 10C6.25 7.92969 7.92969 6.25 10 6.25C12.0312 6.25 13.75 7.92969 13.75 10C13.75 12.0703 12.0312 13.75 10 13.75ZM10 7.5C8.59375 7.5 7.5 8.59375 7.5 10C7.5 11.3672 8.59375 12.5 10 12.5C11.3672 12.5 12.5 11.3672 12.5 10C12.5 8.59375 11.3672 7.5 10 7.5Z" />
</svg>

