<svg width="18" height="19" viewBox="0 0 18 19" fill="none" xmlns="http://www.w3.org/2000/svg">
<path d="M11.25 12.3438C11.25 11.8867 11.6016 11.5 12.0938 11.5H13.7812C14.2383 11.5 14.625 11.8867 14.625 12.3438V14.0312C14.625 14.5234 14.2383 14.875 13.7812 14.875H12.0938C11.6016 14.875 11.25 14.5234 11.25 14.0312V12.3438ZM13.5 13.75V12.625H12.375V13.75H13.5ZM11.25 3.34375C11.25 2.88672 11.6016 2.5 12.0938 2.5H13.7812C14.2383 2.5 14.625 2.88672 14.625 3.34375V5.03125C14.625 5.52344 14.2383 5.875 13.7812 5.875H12.0938C11.6016 5.875 11.25 5.52344 11.25 5.03125V3.34375ZM12.375 3.625V4.75H13.5V3.625H12.375ZM12.0938 10.375C11.6016 10.375 11.25 10.0234 11.25 9.53125V7.84375C11.25 7.38672 11.6016 7 12.0938 7H13.7812C14.2383 7 14.625 7.38672 14.625 7.84375V9.53125C14.625 10.0234 14.2383 10.375 13.7812 10.375H12.0938ZM12.375 8.125V9.25H13.5V8.125H12.375ZM15.75 0.25C16.9805 0.25 18 1.26953 18 2.5V16C18 17.2656 16.9805 18.25 15.75 18.25H10.125C8.85938 18.25 7.875 17.2656 7.875 16V2.5C7.875 1.26953 8.85938 0.25 10.125 0.25H15.75ZM15.75 1.375H10.125C9.49219 1.375 9 1.90234 9 2.5V16C9 16.6328 9.49219 17.125 10.125 17.125H15.75C16.3477 17.125 16.875 16.6328 16.875 16V2.5C16.875 1.90234 16.3477 1.375 15.75 1.375ZM6.1875 5.875H2.25C1.61719 5.875 1.125 6.40234 1.125 7V16C1.125 16.6328 1.61719 17.125 2.25 17.125H6.75C7.03125 17.125 7.3125 17.4062 7.3125 17.6875C7.3125 18.0039 7.03125 18.25 6.75 18.25H2.25C0.984375 18.25 0 17.2656 0 16V7C0 5.76953 0.984375 4.75 2.25 4.75H6.1875C6.46875 4.75 6.75 5.03125 6.75 5.3125C6.75 5.62891 6.46875 5.875 6.1875 5.875ZM4.78125 11.5C5.23828 11.5 5.625 11.8867 5.625 12.3438V14.0312C5.625 14.5234 5.23828 14.875 4.78125 14.875H3.09375C2.60156 14.875 2.25 14.5234 2.25 14.0312V12.3438C2.25 11.8867 2.60156 11.5 3.09375 11.5H4.78125ZM4.5 13.75V12.625H3.375V13.75H4.5ZM4.78125 7C5.23828 7 5.625 7.38672 5.625 7.84375V9.53125C5.625 10.0234 5.23828 10.375 4.78125 10.375H3.09375C2.60156 10.375 2.25 10.0234 2.25 9.53125V7.84375C2.25 7.38672 2.60156 7 3.09375 7H4.78125ZM4.5 9.25V8.125H3.375V9.25H4.5Z" />
</svg>

