<svg width="34" height="34" viewBox="0 0 34 34" fill="none" xmlns="http://www.w3.org/2000/svg">
<path d="M4.40783 24.4373C4.56242 24.7111 4.81691 24.9109 5.11541 24.9928C5.41391 25.0748 5.73201 25.0322 5.99984 24.8744L8.11155 23.6273V26.1213C8.11155 26.4377 8.23443 26.7413 8.45316 26.9651C8.67189 27.1887 8.96855 27.3145 9.27786 27.3145C9.58718 27.3145 9.88385 27.1887 10.1026 26.9651C10.3213 26.7413 10.4442 26.4377 10.4442 26.1213V22.2492L13.1393 20.6578L15.8337 22.249V25.4321L12.5556 27.3679C12.2877 27.5261 12.0922 27.7867 12.0121 28.0924C11.932 28.3981 11.9739 28.7238 12.1285 28.998C12.2832 29.2722 12.538 29.4722 12.8368 29.554C13.1356 29.6361 13.454 29.5932 13.722 29.435L15.8337 28.1881V30.6818C15.8337 30.9983 15.9566 31.3018 16.1753 31.5256C16.394 31.7492 16.6907 31.875 17 31.875C17.3093 31.875 17.606 31.7492 17.8247 31.5256C18.0434 31.3018 18.1663 30.9983 18.1663 30.6818V28.1876L20.278 29.435C20.4107 29.5132 20.5571 29.5641 20.709 29.5846C20.8609 29.6051 21.0152 29.5946 21.1632 29.554C21.3111 29.5135 21.4498 29.4436 21.5713 29.3481C21.6929 29.2527 21.7948 29.1338 21.8714 28.998C21.948 28.8622 21.9977 28.7124 22.0177 28.557C22.0377 28.4017 22.0275 28.2439 21.9879 28.0924C21.9482 27.9411 21.8798 27.7991 21.7865 27.6748C21.6933 27.5505 21.577 27.4462 21.4443 27.3679L18.1663 25.4326V22.249L20.8609 20.6578L23.556 22.2492V26.1213C23.556 26.4377 23.6789 26.7413 23.8976 26.9651C24.1164 27.1887 24.413 27.3145 24.7223 27.3145C25.0317 27.3145 25.3283 27.1887 25.547 26.9651C25.7658 26.7413 25.8886 26.4377 25.8886 26.1213V23.6273L28.0004 24.8744C28.1329 24.9528 28.2794 25.0036 28.4313 25.0241C28.5831 25.0445 28.7376 25.0342 28.8854 24.9936C29.0336 24.953 29.1721 24.883 29.2936 24.7876C29.4152 24.6922 29.5171 24.5732 29.5939 24.4375C29.6704 24.3018 29.72 24.152 29.7401 23.9966C29.7599 23.8412 29.7499 23.6833 29.7103 23.532C29.6706 23.3806 29.6022 23.2387 29.5089 23.1144C29.4156 22.99 29.2992 22.8857 29.1668 22.8074L27.0556 21.5605L29.1668 20.3139C29.2992 20.2356 29.4156 20.1313 29.5089 20.0069C29.6022 19.8826 29.6706 19.7407 29.7103 19.5893C29.7499 19.438 29.7599 19.2801 29.7401 19.1247C29.72 18.9694 29.6704 18.8195 29.5939 18.6838C29.5171 18.5481 29.4152 18.4291 29.2936 18.3337C29.1721 18.2383 29.0336 18.1683 28.8854 18.1277C28.7376 18.0871 28.5831 18.0768 28.4313 18.0972C28.2794 18.1177 28.1329 18.1685 28.0004 18.2469L24.7221 20.1829L22.0277 18.5907V15.4088L24.7221 13.8181L28.0004 15.7541C28.1329 15.8324 28.2794 15.8833 28.4313 15.9037C28.5831 15.9242 28.7376 15.9138 28.8854 15.8732C29.0336 15.8327 29.1721 15.7627 29.2936 15.6673C29.4152 15.5718 29.5171 15.4529 29.5939 15.3172C29.6704 15.1814 29.72 15.0316 29.7401 14.8762C29.7599 14.7209 29.7499 14.563 29.7103 14.4116C29.6706 14.2602 29.6022 14.1184 29.5089 13.994C29.4156 13.8697 29.2992 13.7654 29.1668 13.687L27.0556 12.4404L29.1668 11.1936C29.4345 11.0353 29.63 10.7747 29.7103 10.469C29.7903 10.1633 29.7485 9.83757 29.5939 9.56346C29.4392 9.28934 29.1842 9.08931 28.8854 9.00739C28.5866 8.92544 28.2682 8.9683 28.0004 9.12652L25.8886 10.3736V7.8787C25.8886 7.56225 25.7658 7.25875 25.547 7.03501C25.3283 6.81124 25.0317 6.68553 24.7223 6.68553C24.413 6.68553 24.1164 6.81124 23.8976 7.03501C23.6789 7.25875 23.556 7.56225 23.556 7.8787V11.7508L20.8609 13.3422L18.1665 11.751V8.56811L21.4445 6.63232C21.5772 6.55397 21.6935 6.44967 21.7868 6.32534C21.88 6.20101 21.9485 6.05912 21.9881 5.90775C22.0278 5.75639 22.0379 5.59851 22.0179 5.44313C21.9979 5.28776 21.9482 5.13794 21.8716 5.00221C21.7951 4.86647 21.6931 4.74751 21.5716 4.65211C21.4501 4.5567 21.3114 4.48671 21.1634 4.44613C21.0154 4.40556 20.8611 4.3952 20.7092 4.41564C20.5574 4.43608 20.4109 4.48693 20.2782 4.56527L18.1665 5.81213V3.31817C18.1665 3.00172 18.0436 2.69823 17.8249 2.47447C17.6062 2.25071 17.3095 2.125 17.0002 2.125C16.6909 2.125 16.3942 2.25071 16.1755 2.47447C15.9568 2.69823 15.8339 3.00172 15.8339 3.31817V5.81237L13.7222 4.56503C13.4543 4.40681 13.1359 4.36395 12.837 4.44589C12.5382 4.52783 12.2835 4.72785 12.1288 5.00197C11.9741 5.27609 11.9322 5.60182 12.0123 5.90751C12.0924 6.21323 12.288 6.47386 12.5559 6.63208L15.8339 8.56811V11.751L13.1395 13.3422L10.4444 11.7508V7.8787C10.4444 7.56225 10.3215 7.25875 10.1028 7.03501C9.88408 6.81124 9.58742 6.68553 9.27809 6.68553C8.96879 6.68553 8.67212 6.81124 8.45339 7.03501C8.23467 7.25875 8.11178 7.56225 8.11178 7.8787V10.3727L5.99984 9.12556C5.86714 9.04722 5.72066 8.99639 5.56876 8.97594C5.41685 8.95551 5.2625 8.96589 5.11452 9.00648C4.96653 9.0471 4.82781 9.11711 4.70628 9.21254C4.58475 9.308 4.48278 9.42698 4.4062 9.56274C4.25154 9.83691 4.20967 10.1627 4.28981 10.4684C4.36995 10.7742 4.56554 11.0349 4.83353 11.1931L6.94454 12.4399L4.83353 13.6861C4.5656 13.8443 4.37008 14.1049 4.28998 14.4107C4.20988 14.7163 4.25177 15.0421 4.40643 15.3162C4.5611 15.5903 4.81586 15.7903 5.11468 15.8723C5.4135 15.9542 5.73191 15.9114 5.99984 15.7531L9.27832 13.8181L11.9727 15.4097V18.5907L9.27832 20.1824L5.99984 18.2469C5.73191 18.0886 5.4135 18.0458 5.11468 18.1277C4.81586 18.2097 4.5611 18.4097 4.40643 18.6838C4.25177 18.9579 4.20988 19.2837 4.28998 19.5893C4.37008 19.8951 4.5656 20.1557 4.83353 20.3139L6.94454 21.5605L4.83353 22.8074C4.70084 22.8857 4.58454 22.99 4.4913 23.1143C4.39806 23.2387 4.32971 23.3806 4.29017 23.532C4.25062 23.6834 4.24066 23.8413 4.26085 23.9966C4.28104 24.152 4.33099 24.3017 4.40783 24.4373ZM14.3053 15.4083L17.0002 13.8166L19.6951 15.4083V18.5907L17.0002 20.1824L14.3053 18.5907V15.4083Z" fill="#47A0F4"/>
</svg>
