<svg width="14" height="13" viewBox="0 0 14 13" fill="none" xmlns="http://www.w3.org/2000/svg">
<path d="M6.5625 8.71875H11.8125C12.0312 8.71875 12.25 8.52734 12.25 8.28125V7.84375C12.25 7.625 12.0312 7.40625 11.8125 7.40625H6.5625C6.31641 7.40625 6.125 7.625 6.125 7.84375V8.28125C6.125 8.52734 6.31641 8.71875 6.5625 8.71875ZM6.5625 3.46875H8.3125C8.53125 3.46875 8.75 3.27734 8.75 3.03125V2.59375C8.75 2.375 8.53125 2.15625 8.3125 2.15625H6.5625C6.31641 2.15625 6.125 2.375 6.125 2.59375V3.03125C6.125 3.27734 6.31641 3.46875 6.5625 3.46875ZM6.5625 6.09375H10.0625C10.2812 6.09375 10.5 5.90234 10.5 5.65625V5.21875C10.5 5 10.2812 4.78125 10.0625 4.78125H6.5625C6.31641 4.78125 6.125 5 6.125 5.21875V5.65625C6.125 5.90234 6.31641 6.09375 6.5625 6.09375ZM13.5625 10.0312H6.5625C6.31641 10.0312 6.125 10.25 6.125 10.4688V10.9062C6.125 11.1523 6.31641 11.3438 6.5625 11.3438H13.5625C13.7812 11.3438 14 11.1523 14 10.9062V10.4688C14 10.25 13.7812 10.0312 13.5625 10.0312ZM0.765625 3.25H1.96875V12.4375C1.96875 12.6836 2.16016 12.875 2.40625 12.875H2.84375C3.0625 12.875 3.28125 12.6836 3.28125 12.4375V3.25H4.48438C4.64844 3.25 4.8125 3.11328 4.8125 2.92188C4.8125 2.86719 4.75781 2.75781 4.70312 2.70312L2.84375 0.734375C2.78906 0.679688 2.67969 0.652344 2.625 0.652344C2.54297 0.652344 2.43359 0.679688 2.37891 0.734375L0.519531 2.70312C0.464844 2.75781 0.4375 2.86719 0.4375 2.92188C0.4375 3.11328 0.574219 3.25 0.765625 3.25Z" fill="#4F4F4F"/>
</svg>
