<svg width="14" height="13" viewBox="0 0 14 13" fill="none" xmlns="http://www.w3.org/2000/svg">
<path d="M8.75 3.03125V2.59375C8.75 2.375 8.53125 2.15625 8.3125 2.15625H6.5625C6.31641 2.15625 6.125 2.375 6.125 2.59375V3.03125C6.125 3.27734 6.31641 3.46875 6.5625 3.46875H8.3125C8.53125 3.46875 8.75 3.27734 8.75 3.03125ZM4.48438 10.25H3.28125V1.0625C3.28125 0.84375 3.0625 0.625 2.84375 0.625H2.40625C2.16016 0.625 1.96875 0.84375 1.96875 1.0625V10.25H0.765625H0.738281C0.574219 10.25 0.410156 10.4141 0.410156 10.5781C0.410156 10.6602 0.464844 10.7695 0.519531 10.8242L2.37891 12.793C2.43359 12.8477 2.54297 12.9023 2.625 12.9023C2.67969 12.9023 2.78906 12.8477 2.84375 12.793L4.70312 10.8242C4.75781 10.7695 4.8125 10.6602 4.8125 10.5781C4.8125 10.4141 4.64844 10.25 4.48438 10.25ZM12.25 8.28125V7.84375C12.25 7.625 12.0312 7.40625 11.8125 7.40625H6.5625C6.31641 7.40625 6.125 7.625 6.125 7.84375V8.28125C6.125 8.52734 6.31641 8.71875 6.5625 8.71875H11.8125C12.0312 8.71875 12.25 8.52734 12.25 8.28125ZM14 10.9062V10.4688C14 10.25 13.7812 10.0312 13.5625 10.0312H6.5625C6.31641 10.0312 6.125 10.25 6.125 10.4688V10.9062C6.125 11.1523 6.31641 11.3438 6.5625 11.3438H13.5625C13.7812 11.3438 14 11.1523 14 10.9062ZM10.5 5.65625V5.21875C10.5 5 10.2812 4.78125 10.0625 4.78125H6.5625C6.31641 4.78125 6.125 5 6.125 5.21875V5.65625C6.125 5.90234 6.31641 6.09375 6.5625 6.09375H10.0625C10.2812 6.09375 10.5 5.90234 10.5 5.65625Z" fill="#4F4F4F"/>
</svg>
