<svg width="22" height="17" viewBox="0 0 22 17" fill="none" xmlns="http://www.w3.org/2000/svg">
<path d="M21.3125 14.4375H20.625V12.375C20.625 7.5625 17.0156 3.56641 12.375 2.87891V2.0625H14.4375C14.7812 2.0625 15.125 1.76172 15.125 1.375V0.6875C15.125 0.34375 14.7812 0 14.4375 0H7.5625C7.17578 0 6.875 0.34375 6.875 0.6875V1.375C6.875 1.76172 7.17578 2.0625 7.5625 2.0625H9.625V2.87891C4.94141 3.56641 1.375 7.5625 1.375 12.375V14.4375H0.6875C0.300781 14.4375 0 14.7812 0 15.125V15.8125C0 16.1992 0.300781 16.5 0.6875 16.5H21.3125C21.6562 16.5 22 16.1992 22 15.8125V15.125C22 14.7812 21.6562 14.4375 21.3125 14.4375ZM18.5625 14.4375H3.4375V12.375C3.4375 8.20703 6.78906 4.8125 11 4.8125C15.168 4.8125 18.5625 8.20703 18.5625 12.375V14.4375Z" fill="#47A0F4"/>
</svg>
