<svg width="32" height="24" viewBox="0 0 32 24" fill="none" xmlns="http://www.w3.org/2000/svg">
<path d="M31.5 22H30V18C30 10.625 24.25 4.625 17 4.0625V2H19.5C19.75 2 20 1.8125 20 1.5V0.5C20 0.25 19.75 0 19.5 0H12.5C12.1875 0 12 0.25 12 0.5V1.5C12 1.8125 12.1875 2 12.5 2H15V4.0625C7.6875 4.625 2 10.625 2 18V22H0.5C0.1875 22 0 22.25 0 22.5V23.5C0 23.8125 0.1875 24 0.5 24H31.5C31.75 24 32 23.8125 32 23.5V22.5C32 22.25 31.75 22 31.5 22ZM28 22H4V18C4 11.75 8.875 6.5 15.125 6.0625C16.1875 6 15.75 6 16.8125 6.0625C23.0625 6.5 28 11.75 28 18V22Z" fill="#6C7172"/>
</svg>
