<svg width="35" height="28" viewBox="0 0 35 28" fill="none" xmlns="http://www.w3.org/2000/svg">
<path d="M18.5977 18.1394V16.0389C18.5969 15.4643 18.3167 14.9134 17.8186 14.5071C17.3206 14.1008 16.6453 13.8722 15.9409 13.8715H13.3525L14.146 3.5168C14.1805 3.06555 14.1014 2.61331 13.9134 2.18797C13.7255 1.76263 13.4328 1.3732 13.0533 1.04369C12.6738 0.714188 12.2156 0.451587 11.7069 0.272086C11.1983 0.0925838 10.6499 -1.45312e-05 10.0957 1.71039e-09C9.54148 1.45346e-05 8.99314 0.0926416 8.48448 0.27217C7.97583 0.451698 7.51765 0.714323 7.13818 1.04385C6.75872 1.37338 6.46602 1.76282 6.27813 2.18817C6.09024 2.61352 6.01114 3.06576 6.04572 3.51701L6.83913 13.8715H4.2508C3.54641 13.8722 2.87112 14.1008 2.37304 14.5071C1.87497 14.9134 1.59479 15.4643 1.59396 16.0389V18.1394L0.012831 26.3646C-0.00952677 26.481 -0.00261227 26.5998 0.033153 26.7139C0.0689182 26.8279 0.132785 26.9349 0.22086 27.0281C0.308935 27.1214 0.419373 27.1991 0.545442 27.2564C0.671511 27.3137 0.81057 27.3495 0.954143 27.3616C2.50829 27.4917 4.09668 27.5902 5.67521 27.6537C5.87353 27.6624 6.07086 27.6253 6.24446 27.5466C6.41806 27.4679 6.56088 27.3508 6.65648 27.2088L7.34407 26.1996L7.91694 27.2274C8.00037 27.3771 8.1343 27.5045 8.3031 27.5944C8.4719 27.6844 8.66859 27.7334 8.87022 27.7356C9.28483 27.74 9.69477 27.743 10.0959 27.743C10.937 27.743 11.8088 27.7324 12.6863 27.7117C12.8705 27.7073 13.0502 27.664 13.2077 27.5859C13.3652 27.5077 13.495 27.3976 13.5845 27.2661L13.898 26.806L14.2519 27.2388C14.3548 27.3644 14.4961 27.4659 14.6618 27.5334C14.8275 27.6008 15.0119 27.6319 15.1968 27.6234C16.5574 27.5601 17.9169 27.4721 19.2376 27.3616C19.3811 27.3495 19.5202 27.3137 19.6463 27.2564C19.7723 27.1991 19.8827 27.1214 19.9708 27.0281C20.0589 26.9349 20.1227 26.8279 20.1585 26.7139C20.1943 26.5998 20.2012 26.481 20.1788 26.3646L18.5977 18.1394ZM3.71943 16.0389C3.71957 15.924 3.7756 15.8138 3.87522 15.7325C3.97484 15.6513 4.10991 15.6056 4.2508 15.6054H7.97037C8.11554 15.6055 8.25919 15.5813 8.39245 15.5343C8.5257 15.4873 8.64573 15.4185 8.74512 15.3322C8.84452 15.2459 8.92117 15.1438 8.97034 15.0324C9.01952 14.921 9.04017 14.8025 9.03102 14.6843L8.16702 3.40885C8.15057 3.19396 8.18824 2.9786 8.27772 2.77605C8.3672 2.57349 8.50659 2.38804 8.68729 2.23111C8.868 2.07419 9.08619 1.94913 9.32841 1.86363C9.57063 1.77813 9.83176 1.73402 10.0957 1.734C10.3596 1.73399 10.6207 1.77808 10.863 1.86355C11.1052 1.94902 11.3234 2.07406 11.5042 2.23096C11.6849 2.38786 11.8243 2.5733 11.9138 2.77585C12.0033 2.97839 12.041 3.19375 12.0246 3.40864L11.1606 14.6843C11.1515 14.8025 11.1722 14.921 11.2213 15.0324C11.2705 15.1438 11.3472 15.2459 11.4465 15.3322C11.5459 15.4185 11.666 15.4873 11.7992 15.5343C11.9325 15.5813 12.0761 15.6055 12.2213 15.6054H15.9409C16.0818 15.6056 16.2168 15.6513 16.3165 15.7325C16.4161 15.8138 16.4721 15.924 16.4722 16.0389V17.3394H3.71943V16.0389ZM15.6814 25.8626L14.6996 24.6612C14.5997 24.5366 14.4615 24.4354 14.2989 24.3678C14.1362 24.3002 13.9547 24.2684 13.7723 24.2758C13.5903 24.2818 13.4132 24.326 13.2581 24.404C13.103 24.482 12.975 24.5912 12.8865 24.7211L12.0215 25.9911C11.1892 26.0063 10.3844 26.0118 9.57173 26.0074L8.40625 23.9164C8.32488 23.7702 8.19535 23.6454 8.0321 23.5557C7.86885 23.4661 7.6783 23.4152 7.48169 23.4088C7.28508 23.4023 7.09014 23.4406 6.91859 23.5192C6.74705 23.5978 6.60564 23.7138 6.51014 23.8541L5.12102 25.8933C4.17452 25.8493 3.22646 25.7927 2.28724 25.7242L3.56583 19.0733H16.6258L17.9044 25.724C17.1702 25.7773 16.4266 25.8236 15.6814 25.8626Z" fill="#F2994A"/>
<path d="M29.9582 23.3672C30.1874 22.8718 30.5955 22.4449 31.1286 22.1428C31.6616 21.8407 32.2945 21.6777 32.9435 21.6753C33.2254 21.6753 33.4957 21.584 33.695 21.4214C33.8943 21.2588 34.0062 21.0383 34.0062 20.8084C34.0062 20.5784 33.8943 20.3579 33.695 20.1953C33.4957 20.0327 33.2254 19.9414 32.9435 19.9414C32.0113 19.9444 31.0962 20.1464 30.2892 20.5272C29.4822 20.9079 28.8114 21.4543 28.3433 22.112C27.7707 22.0934 27.1994 22.1692 26.6635 22.3348C26.1276 22.5004 25.6381 22.7524 25.2243 23.0758C24.8105 23.3992 24.4808 23.7874 24.2551 24.2171C24.0293 24.6468 23.912 25.1092 23.9103 25.5767C23.9101 25.7216 23.9212 25.8664 23.9435 26.0102H22.3162C22.0343 26.0102 21.764 26.1015 21.5647 26.2641C21.3654 26.4267 21.2534 26.6472 21.2534 26.8771C21.2534 27.1071 21.3654 27.3276 21.5647 27.4902C21.764 27.6528 22.0343 27.7441 22.3162 27.7441H25.4032C25.5906 27.7441 25.7748 27.7037 25.9369 27.627C26.099 27.5502 26.2334 27.4398 26.3263 27.307C26.4193 27.1742 26.4675 27.0237 26.4661 26.8708C26.4648 26.7178 26.4138 26.5679 26.3185 26.4363C26.1303 26.176 26.0326 25.8788 26.0357 25.5767C26.0363 25.117 26.2604 24.6762 26.6589 24.3512C27.0574 24.0261 27.5977 23.8432 28.1612 23.8428C28.338 23.8426 28.5141 23.8616 28.6848 23.8993C28.9401 23.9555 29.212 23.9322 29.4475 23.8338C29.6829 23.7355 29.865 23.5691 29.9582 23.3672Z" fill="#F2994A"/>
<path d="M32.5178 24.0933C32.0218 24.2701 31.5791 24.5329 31.2204 24.8636C30.8618 25.1942 30.5958 25.5847 30.4411 26.0078H29.7551C29.4733 26.0078 29.203 26.0992 29.0036 26.2618C28.8043 26.4243 28.6924 26.6449 28.6924 26.8748C28.6924 27.1047 28.8043 27.3252 29.0036 27.4878C29.203 27.6504 29.4733 27.7418 29.7551 27.7418H31.3492C31.6311 27.7417 31.9014 27.6504 32.1007 27.4878C32.3 27.3252 32.4119 27.1047 32.412 26.8748C32.412 26.6216 32.5025 26.3739 32.6725 26.1621C32.8424 25.9502 33.0844 25.7834 33.3688 25.6821C33.4972 25.6368 33.6134 25.5712 33.7106 25.4892C33.8079 25.4072 33.8844 25.3103 33.9356 25.2042C33.9869 25.098 34.012 24.9846 34.0094 24.8705C34.0068 24.7564 33.9767 24.6439 33.9207 24.5393C33.8647 24.4347 33.7839 24.3402 33.683 24.2612C33.5821 24.1821 33.4631 24.1201 33.3328 24.0787C33.2024 24.0373 33.0633 24.0172 32.9235 24.0197C32.7836 24.0223 32.6458 24.0473 32.5178 24.0934L32.5178 24.0933Z" fill="#F2994A"/>
<path d="M32.6804 10.0605H32.6643C32.3852 10.0607 32.1174 10.1503 31.9187 10.3102C31.7199 10.47 31.6062 10.6872 31.6021 10.9148C31.5992 11.2512 31.5074 11.5832 31.333 11.8881C29.9425 11.2964 27.7075 10.9534 25.11 12.1117V12.112C22.5143 13.2702 21.6685 16.6502 21.5803 17.0316C21.5354 17.2264 21.5737 17.4278 21.6887 17.6023C21.8037 17.7768 21.9885 17.914 22.2123 17.9909C23.5721 18.4459 25.0217 18.696 26.4908 18.7292C27.4341 18.7493 28.3687 18.5762 29.2088 18.2256C32.4179 16.794 32.9617 14.5073 32.7902 13.2621C33.3901 12.5861 33.7176 11.7747 33.7275 10.9402C33.7316 10.7103 33.6236 10.4885 33.4272 10.3235C33.2308 10.1585 32.9622 10.064 32.6804 10.0605ZM28.1887 16.7042C27.0175 17.2274 25.1089 16.9385 23.8863 16.6365C24.2491 15.622 24.9937 14.1401 26.1301 13.6332C26.6427 13.3751 27.2129 13.2024 27.8078 13.1252C28.4026 13.048 29.0104 13.0679 29.5958 13.1836C29.479 13.2233 29.3591 13.2567 29.2369 13.2835C29.1018 13.3123 28.9751 13.3624 28.8638 13.4311C28.7525 13.4998 28.6589 13.5857 28.5884 13.684C28.5178 13.7822 28.4716 13.8908 28.4525 14.0035C28.4334 14.1163 28.4417 14.231 28.4769 14.3412C28.5121 14.4514 28.5736 14.5548 28.6578 14.6455C28.7421 14.7363 28.8474 14.8127 28.9678 14.8702C29.0882 14.9278 29.2213 14.9655 29.3595 14.9811C29.4977 14.9967 29.6384 14.9899 29.7734 14.9612C29.9971 14.9127 30.2164 14.852 30.43 14.7793C29.9899 15.6194 29.1945 16.3025 28.1887 16.7042Z" fill="#F2994A"/>
<path d="M22.8474 22.5425C23.4343 22.5425 23.9101 22.1544 23.9101 21.6756C23.9101 21.1967 23.4343 20.8086 22.8474 20.8086C22.2605 20.8086 21.7847 21.1967 21.7847 21.6756C21.7847 22.1544 22.2605 22.5425 22.8474 22.5425Z" fill="#F2994A"/>
</svg>
