<svg width="16" height="15" viewBox="0 0 16 15" fill="none" xmlns="http://www.w3.org/2000/svg">
<path d="M7.09766 3.40234V4.71484L7.91797 5.53516C7.72656 4.57812 8.02734 3.62109 8.71094 2.9375C9.25781 2.36328 9.99609 2.08984 10.7617 2.08984H10.7891L9.20312 3.64844L9.61328 6.10938L12.0742 6.51953L13.6602 4.96094C13.6602 5.72656 13.3594 6.49219 12.7852 7.03906C12.5391 7.3125 12.2383 7.50391 11.9375 7.64062C11.9648 7.66797 12.0195 7.72266 12.0742 7.75L12.9219 8.59766C13.1953 8.43359 13.4688 8.21484 13.7148 7.96875C14.7539 6.95703 15.1914 5.39844 14.8359 3.97656C14.7539 3.62109 14.5078 3.375 14.1797 3.26562C13.8242 3.18359 13.4688 3.29297 13.25 3.51172L11.6641 5.125L10.7617 4.98828L10.625 4.08594L12.2383 2.5C12.457 2.28125 12.5664 1.92578 12.457 1.59766C12.375 1.24219 12.1016 0.996094 11.7734 0.914062C10.3242 0.558594 8.82031 0.96875 7.78125 2.03516C7.48047 2.30859 7.26172 2.60938 7.07031 2.9375H7.09766V3.40234ZM3.89844 13.1641C3.54297 13.5195 2.91406 13.5195 2.55859 13.1641C2.39453 13 2.28516 12.7812 2.28516 12.5352C2.28516 12.2891 2.39453 12.0703 2.55859 11.9062L6.25 8.1875L5.32031 7.25781L1.65625 10.9219C1.21875 11.3594 1 11.9336 1 12.4805C0.972656 13.0547 1.21875 13.6562 1.65625 14.0664C2.06641 14.5039 2.64062 14.7227 3.21484 14.7227C3.78906 14.7227 4.36328 14.5039 4.80078 14.0664L7.5625 11.332C7.28906 10.8945 7.125 10.4023 7.125 9.88281L3.89844 13.1641ZM14.6992 11.5781L11.5 8.37891C10.8438 7.75 9.91406 7.61328 9.14844 7.99609L6.22266 5.07031V3.375L2.75 0.75L1 2.5L3.625 5.97266H5.32031L8.21875 8.87109C7.86328 9.63672 7.97266 10.5938 8.60156 11.2227L11.8008 14.4219C12.2109 14.8047 12.8398 14.8047 13.25 14.4219L14.6992 12.9727C15.082 12.6172 15.082 11.9883 14.6992 11.5781Z" fill="black"/>
</svg>
