<svg width="18" height="17" viewBox="0 0 18 17" fill="none" xmlns="http://www.w3.org/2000/svg">
<path d="M16.5 0.25H1.5C0.65625 0.25 0 0.9375 0 1.75V10.75C0 11.5938 0.65625 12.25 1.5 12.25H7.5L6.75 15.25H4.5C4.21875 15.25 4 15.5 4 15.75C4 16.0312 4.21875 16.25 4.5 16.25H13.5C13.75 16.25 14 16.0312 14 15.75C14 15.5 13.75 15.25 13.5 15.25H11.25L10.5 12.25H16.5C17.3125 12.25 18 11.5938 18 10.75V1.75C18 0.9375 17.3125 0.25 16.5 0.25ZM7.78125 15.25L8.28125 13.25H9.71875L10.2188 15.25H7.78125ZM17 10.75C17 11.0312 16.75 11.25 16.5 11.25H1.5C1.21875 11.25 1 11.0312 1 10.75V1.75C1 1.5 1.21875 1.25 1.5 1.25H16.5C16.75 1.25 17 1.5 17 1.75V10.75Z" fill="#6C7172"/>
</svg>
