<svg width="17" height="19" viewBox="0 0 17 19" fill="none" xmlns="http://www.w3.org/2000/svg">
<path d="M3.875 12.9062C3.38281 12.9062 3.03125 13.293 3.03125 13.75C3.03125 14.2422 3.38281 14.5938 3.875 14.5938C4.33203 14.5938 4.71875 14.2422 4.71875 13.75C4.71875 13.293 4.33203 12.9062 3.875 12.9062ZM12.875 13.1875H6.6875C6.37109 13.1875 6.125 13.4688 6.125 13.75C6.125 14.0664 6.37109 14.3125 6.6875 14.3125H12.875C13.1562 14.3125 13.4375 14.0664 13.4375 13.75C13.4375 13.4688 13.1562 13.1875 12.875 13.1875ZM4.05078 10.375C4.19141 10.375 4.33203 10.3398 4.4375 10.2344L6.51172 8.16016C6.72266 7.94922 6.72266 7.59766 6.51172 7.38672C6.30078 7.14062 5.91406 7.14062 5.70312 7.38672L4.05078 9.03906L3.41797 8.40625C3.20703 8.19531 2.82031 8.19531 2.60938 8.40625C2.39844 8.61719 2.39844 8.96875 2.60938 9.21484L3.66406 10.2344C3.76953 10.3398 3.91016 10.375 4.05078 10.375ZM3.875 5.59375C4.33203 5.59375 4.71875 5.24219 4.71875 4.75C4.71875 4.29297 4.33203 3.90625 3.875 3.90625C3.38281 3.90625 3.03125 4.29297 3.03125 4.75C3.03125 5.24219 3.38281 5.59375 3.875 5.59375ZM12.875 8.6875H7.8125C7.49609 8.6875 7.25 8.96875 7.25 9.25C7.25 9.56641 7.49609 9.8125 7.8125 9.8125H12.875C13.1562 9.8125 13.4375 9.56641 13.4375 9.25C13.4375 8.96875 13.1562 8.6875 12.875 8.6875ZM14 0.25H2.75C1.48438 0.25 0.5 1.26953 0.5 2.5V16C0.5 17.2656 1.48438 18.25 2.75 18.25H14C15.2305 18.25 16.25 17.2656 16.25 16V2.5C16.25 1.26953 15.2305 0.25 14 0.25ZM15.125 16C15.125 16.6328 14.5977 17.125 14 17.125H2.75C2.11719 17.125 1.625 16.6328 1.625 16V2.5C1.625 1.90234 2.11719 1.375 2.75 1.375H14C14.5977 1.375 15.125 1.90234 15.125 2.5V16ZM12.875 4.1875H6.6875C6.37109 4.1875 6.125 4.46875 6.125 4.75C6.125 5.06641 6.37109 5.3125 6.6875 5.3125H12.875C13.1562 5.3125 13.4375 5.06641 13.4375 4.75C13.4375 4.46875 13.1562 4.1875 12.875 4.1875Z" fill="#47A0F4"/>
</svg>
