<svg width="38" height="31" viewBox="0 0 38 31" fill="none" xmlns="http://www.w3.org/2000/svg">
<path d="M17.5938 12.9375C18.3555 12.9375 19 12.3516 19 11.5312C19 10.7695 18.3555 10.125 17.5938 10.125C16.7734 10.125 16.1875 10.7695 16.1875 11.5312C16.1875 12.3516 16.7734 12.9375 17.5938 12.9375ZM17.1836 22.5469L12.3203 19.4414L10.5625 25.8281C10.5625 25.9453 10.5625 26.0039 10.5625 26.1211C10.5625 26.5898 10.9727 27 11.5 27C11.9102 27 12.2617 26.7656 12.3789 26.3555L13.4336 22.4297L16.1875 24.1875V26.0625C16.1875 26.5898 16.5977 26.9414 17.0664 26.9414C17.5352 26.9414 18.0039 26.5312 18.0039 26.0625V24.1289C18.0625 23.4844 17.7109 22.8984 17.1836 22.5469ZM37.75 27.9375C37.75 27.4102 37.5742 26.9414 37.2812 26.4727L21.4023 1.98047C20.875 1.16016 19.9375 0.75 19 0.75C18.0039 0.75 17.0664 1.16016 16.5391 1.98047L0.660156 26.4727C0.367188 26.9414 0.25 27.4102 0.25 27.9375C0.25 28.4062 0.308594 28.875 0.542969 29.2852C1.07031 30.2227 2.00781 30.75 3.0625 30.75H34.8789C36.4023 30.75 37.75 29.5195 37.75 27.9375ZM35.8164 27.9961C35.8164 28.582 35.2891 28.875 34.8789 28.875H3.0625C2.65234 28.875 2.125 28.582 2.125 27.9961C2.125 27.8203 2.125 27.6445 2.24219 27.5273L18.1211 3.03516C18.2969 2.74219 18.6484 2.56641 19 2.56641C19.293 2.56641 19.6445 2.74219 19.8203 3.03516L35.6992 27.5273C35.8164 27.6445 35.8164 27.8203 35.8164 27.9961ZM27.2617 18.9727C27.0273 18.7383 26.793 18.5625 26.4414 18.5625C26.0898 18.6211 25.8555 18.7383 25.6797 18.9727L23.5703 21.9609L20.2305 19.8516L19.5859 16.7461C19.4102 15.6914 18.5312 14.8125 17.5352 14.5781L16.1289 14.168C15.9531 14.1094 15.7188 14.0508 15.543 14.0508C14.7227 14.0508 13.9023 14.4023 13.2578 15.2227L12.6133 16.1016C12.4961 16.2773 12.4375 16.4531 12.4375 16.6875C12.4375 16.9805 12.5547 17.2734 12.8477 17.5078L18.9414 21.2578L22.2227 23.25H21.3438C20.9922 23.25 20.7578 23.4258 20.582 23.6602L19.1758 25.5352C19.0586 25.7109 19 25.8867 19 26.0625C19 26.5898 19.4102 27 19.9375 27C20.1719 27 20.4648 26.8828 20.6406 26.6484L21.8125 25.125H23.2188C23.5117 25.125 23.8047 25.0078 23.9805 24.7734L26.5 21.1406L30.3672 26.6484C30.6016 26.8828 30.8945 27 31.1875 27C31.832 27 32.125 26.4141 32.125 26.0625C32.125 25.8867 32.0664 25.7109 31.9492 25.5352L27.2617 18.9727ZM14.7227 16.3945C14.8984 16.1602 15.1328 15.9844 15.4844 15.9844C15.543 15.9844 15.6016 15.9844 15.6602 15.9844L17.0664 16.3945C17.3594 16.4531 17.7109 16.5703 17.8281 17.0977L18.1211 18.5039L14.7227 16.3945Z" fill="#828282"/>
</svg>
