<svg width="17" height="20" viewBox="0 0 17 20" fill="#212121" xmlns="http://www.w3.org/2000/svg">
<path d="M3.64286 13.6607C3.11161 13.6607 2.73214 14.0781 2.73214 14.5714C2.73214 15.1027 3.11161 15.4821 3.64286 15.4821C4.13616 15.4821 4.55357 15.1027 4.55357 14.5714C4.55357 14.0781 4.13616 13.6607 3.64286 13.6607ZM13.3571 13.9643H6.67857C6.33705 13.9643 6.07143 14.2679 6.07143 14.5714C6.07143 14.9129 6.33705 15.1786 6.67857 15.1786H13.3571C13.6607 15.1786 13.9643 14.9129 13.9643 14.5714C13.9643 14.2679 13.6607 13.9643 13.3571 13.9643ZM3.83259 10.9286C3.98438 10.9286 4.13616 10.8906 4.25 10.7768L6.48884 8.53795C6.71652 8.31027 6.71652 7.9308 6.48884 7.70312C6.26116 7.4375 5.84375 7.4375 5.61607 7.70312L3.83259 9.48661L3.14955 8.80357C2.92188 8.57589 2.50446 8.57589 2.27679 8.80357C2.04911 9.03125 2.04911 9.41071 2.27679 9.67634L3.41518 10.7768C3.52902 10.8906 3.6808 10.9286 3.83259 10.9286ZM3.64286 5.76786C4.13616 5.76786 4.55357 5.38839 4.55357 4.85714C4.55357 4.36384 4.13616 3.94643 3.64286 3.94643C3.11161 3.94643 2.73214 4.36384 2.73214 4.85714C2.73214 5.38839 3.11161 5.76786 3.64286 5.76786ZM13.3571 9.10714H7.89286C7.55134 9.10714 7.28571 9.41071 7.28571 9.71429C7.28571 10.0558 7.55134 10.3214 7.89286 10.3214H13.3571C13.6607 10.3214 13.9643 10.0558 13.9643 9.71429C13.9643 9.41071 13.6607 9.10714 13.3571 9.10714ZM14.5714 -2.38419e-07H2.42857C1.0625 -2.38419e-07 0 1.10045 0 2.42857V17C0 18.3661 1.0625 19.4286 2.42857 19.4286H14.5714C15.8996 19.4286 17 18.3661 17 17V2.42857C17 1.10045 15.8996 -2.38419e-07 14.5714 -2.38419e-07ZM15.7857 17C15.7857 17.683 15.2165 18.2143 14.5714 18.2143H2.42857C1.74554 18.2143 1.21429 17.683 1.21429 17V2.42857C1.21429 1.78348 1.74554 1.21429 2.42857 1.21429H14.5714C15.2165 1.21429 15.7857 1.78348 15.7857 2.42857V17ZM13.3571 4.25H6.67857C6.33705 4.25 6.07143 4.55357 6.07143 4.85714C6.07143 5.19866 6.33705 5.46429 6.67857 5.46429H13.3571C13.6607 5.46429 13.9643 5.19866 13.9643 4.85714C13.9643 4.55357 13.6607 4.25 13.3571 4.25Z" />
</svg>

